<?xml version="1.0" encoding="UTF-8"?>
<!DOCTYPE svg PUBLIC "-//W3C//DTD SVG 1.1//EN" "http://www.w3.org/Graphics/SVG/1.1/DTD/svg11.dtd">
<!-- Creator: CorelDRAW 2019 (64-Bit) -->
<svg xmlns="http://www.w3.org/2000/svg" xml:space="preserve" width="279.4mm" height="215.9mm" version="1.1" style="shape-rendering:geometricPrecision; text-rendering:geometricPrecision; image-rendering:optimizeQuality; fill-rule:evenodd; clip-rule:evenodd"
viewBox="0 0 27940 21590"
 xmlns:xlink="http://www.w3.org/1999/xlink">
 <defs>
  <style type="text/css">
   <![CDATA[
    .fil6 {fill:none}
    .fil36 {fill:none}
    .fil54 {fill:#FEFEFE}
    .fil32 {fill:#191919}
    .fil3 {fill:#1A1A1A}
    .fil14 {fill:#1E219A}
    .fil4 {fill:#3F3D56}
    .fil22 {fill:#CDCDCD}
    .fil53 {fill:white}
    .fil0 {fill:#1E219A;fill-opacity:0.180392}
    .fil38 {fill:#191919;fill-opacity:0.250980}
    .fil1 {fill:#1E219A;fill-opacity:0.478431}
    .fil37 {fill:#191919;fill-opacity:0.501961}
    .fil24 {fill:#191919;fill-opacity:0.600000}
    .fil30 {fill:url(#id2)}
    .fil42 {fill:url(#id3)}
    .fil15 {fill:url(#id4)}
    .fil28 {fill:url(#id5)}
    .fil5 {fill:url(#id6)}
    .fil29 {fill:url(#id7)}
    .fil27 {fill:url(#id8)}
    .fil23 {fill:url(#id9)}
    .fil16 {fill:url(#id10)}
    .fil31 {fill:url(#id11)}
    .fil48 {fill:url(#id12)}
    .fil2 {fill:url(#id13)}
    .fil33 {fill:url(#id14)}
    .fil39 {fill:url(#id15)}
    .fil12 {fill:url(#id16)}
    .fil45 {fill:url(#id17)}
    .fil49 {fill:url(#id18)}
    .fil7 {fill:url(#id19)}
    .fil9 {fill:url(#id20)}
    .fil25 {fill:url(#id21)}
    .fil26 {fill:url(#id22)}
    .fil8 {fill:url(#id23)}
    .fil19 {fill:url(#id24)}
    .fil20 {fill:url(#id25)}
    .fil34 {fill:url(#id26)}
    .fil44 {fill:url(#id27)}
    .fil52 {fill:url(#id28)}
    .fil13 {fill:url(#id29)}
    .fil35 {fill:url(#id30)}
    .fil50 {fill:url(#id31)}
    .fil46 {fill:url(#id32)}
    .fil17 {fill:url(#id33)}
    .fil11 {fill:url(#id34)}
    .fil43 {fill:url(#id35)}
    .fil41 {fill:url(#id36)}
    .fil51 {fill:url(#id37)}
    .fil40 {fill:url(#id38)}
    .fil47 {fill:url(#id39)}
    .fil21 {fill:url(#id40)}
    .fil10 {fill:url(#id41)}
    .fil18 {fill:url(#id42);fill-opacity:0.501961}
   ]]>
  </style>
       <clipPath id="id0">
        <path d="M12162.21 11821.8c-250.05,-1336.05 -550.11,-2368.87 -1947.74,-2110.93 -939.66,174.77 -3313.28,1068.09 -4398.23,1493.97 0,0 0,-299.01 5.79,-384.29 29.48,-596.95 7.37,-901.74 189.51,-989.13 182.14,-87.39 3322.24,-2165.69 4712.51,-2622.09 1390.26,-456.4 1448.17,-263.21 1664.53,507.99 157.93,558 301.11,2406.26 383.23,4106.05l-607.49 10.53c-0.43,-4.06 -1.15,-8.15 -2.1,-12.12l-0.01 0.02z"/>
       </clipPath>
       <clipPath id="id1">
        <path d="M12162.21 11821.8c-250.05,-1336.05 -550.11,-2368.87 -1947.74,-2110.93 -939.66,174.77 -3313.28,1068.09 -4398.23,1493.97 0,0 0,-299.01 5.79,-384.29 29.48,-596.95 7.37,-901.74 189.51,-989.13 182.14,-87.39 3322.24,-2165.69 4712.51,-2622.09 1390.26,-456.4 1448.17,-263.21 1664.53,507.99 157.93,558 301.11,2406.26 383.23,4106.05l-607.49 10.53c-0.43,-4.06 -1.15,-8.15 -2.1,-12.12l-0.01 0.02z"/>
       </clipPath>
  <linearGradient id="id2" gradientUnits="userSpaceOnUse" x1="217261.76" y1="-162442.95" x2="237702.91" y2="-187930.4">
   <stop offset="0" style="stop-opacity:1; stop-color:black"/>
   <stop offset="0.0117647" style="stop-opacity:1; stop-color:black"/>
   <stop offset="0.831373" style="stop-opacity:0.0705882; stop-color:black"/>
   <stop offset="1" style="stop-opacity:0; stop-color:black"/>
  </linearGradient>
  <linearGradient id="id3" gradientUnits="userSpaceOnUse" x1="100604.89" y1="-100540.27" x2="103766.66" y2="-100540.27">
   <stop offset="0" style="stop-opacity:1; stop-color:white"/>
   <stop offset="0.0196078" style="stop-opacity:0; stop-color:white"/>
   <stop offset="0.388235" style="stop-opacity:0.388235; stop-color:white"/>
   <stop offset="1" style="stop-opacity:1; stop-color:white"/>
  </linearGradient>
  <linearGradient id="id4" gradientUnits="userSpaceOnUse" xlink:href="#id2" x1="17076506.29" y1="-1308346.2" x2="14126731.46" y2="-699165.12">
  </linearGradient>
  <linearGradient id="id5" gradientUnits="userSpaceOnUse" xlink:href="#id2" x1="303674.92" y1="-196657.97" x2="322604.32" y2="-209019.2">
  </linearGradient>
  <linearGradient id="id6" gradientUnits="userSpaceOnUse" xlink:href="#id2" x1="1893213.8" y1="-527316.16" x2="1912760.58" y2="-527316.16">
  </linearGradient>
  <linearGradient id="id7" gradientUnits="userSpaceOnUse" xlink:href="#id2" x1="404869.56" y1="-278262.99" x2="417366.2" y2="-345565.63">
  </linearGradient>
  <linearGradient id="id8" gradientUnits="userSpaceOnUse" xlink:href="#id2" x1="473001.6" y1="-415760.4" x2="644897.03" y2="-269857.12">
  </linearGradient>
  <linearGradient id="id9" gradientUnits="userSpaceOnUse" xlink:href="#id2" x1="15544797.75" y1="-270446.25" x2="15550924.98" y2="-478177.4">
  </linearGradient>
  <linearGradient id="id10" gradientUnits="userSpaceOnUse" xlink:href="#id2" x1="15872869.19" y1="-1326104.68" x2="15790337.5" y2="-342631.96">
  </linearGradient>
  <linearGradient id="id11" gradientUnits="userSpaceOnUse" xlink:href="#id2" x1="301561.33" y1="-69919.28" x2="298929.39" y2="-92808.45">
  </linearGradient>
  <linearGradient id="id12" gradientUnits="userSpaceOnUse" xlink:href="#id2" x1="973208.7" y1="332141.09" x2="971555.62" y2="220301.86">
  </linearGradient>
  <linearGradient id="id13" gradientUnits="userSpaceOnUse" xlink:href="#id2" x1="16257.18" y1="9401.76" x2="10867.17" y2="22185.21">
  </linearGradient>
  <linearGradient id="id14" gradientUnits="userSpaceOnUse" x1="15023.85" y1="8867.04" x2="15494.26" y2="8867.04">
   <stop offset="0" style="stop-opacity:1; stop-color:#E5C5D5"/>
   <stop offset="0.419608" style="stop-opacity:1; stop-color:#EAD4D1"/>
   <stop offset="1" style="stop-opacity:1; stop-color:#F0E9CB"/>
  </linearGradient>
  <linearGradient id="id15" gradientUnits="userSpaceOnUse" xlink:href="#id3" x1="21600.36" y1="13966.2" x2="21968.86" y2="13966.2">
  </linearGradient>
  <linearGradient id="id16" gradientUnits="userSpaceOnUse" xlink:href="#id2" x1="2361304.73" y1="-584153.68" x2="2392325.06" y2="-584153.68">
  </linearGradient>
  <linearGradient id="id17" gradientUnits="userSpaceOnUse" xlink:href="#id2" x1="-230964.43" y1="-32405.69" x2="-230964.43" y2="-31970.38">
  </linearGradient>
  <linearGradient id="id18" gradientUnits="userSpaceOnUse" xlink:href="#id2" x1="13880976.01" y1="-421674.4" x2="13868882.02" y2="-254777.67">
  </linearGradient>
  <linearGradient id="id19" gradientUnits="userSpaceOnUse" x1="98291.43" y1="14286.07" x2="98646.7" y2="14286.07">
   <stop offset="0" style="stop-opacity:1; stop-color:white"/>
   <stop offset="0.431373" style="stop-opacity:1; stop-color:#FDFDFD"/>
   <stop offset="0.678431" style="stop-opacity:1; stop-color:whitesmoke"/>
   <stop offset="0.870588" style="stop-opacity:1; stop-color:#E7E7E8"/>
   <stop offset="0.968627" style="stop-opacity:1; stop-color:#DDDEDF"/>
   <stop offset="1" style="stop-opacity:1; stop-color:#DDDEDF"/>
  </linearGradient>
  <linearGradient id="id20" gradientUnits="userSpaceOnUse" xlink:href="#id19" x1="1157551.64" y1="-585483.12" x2="1165403.41" y2="-585483.12">
  </linearGradient>
  <linearGradient id="id21" gradientUnits="userSpaceOnUse" xlink:href="#id2" x1="1704651.22" y1="-365735.2" x2="3236054.13" y2="-365735.2">
  </linearGradient>
  <linearGradient id="id22" gradientUnits="userSpaceOnUse" xlink:href="#id2" x1="646711.56" y1="-286110.59" x2="743143.06" y2="-286110.59">
  </linearGradient>
  <linearGradient id="id23" gradientUnits="userSpaceOnUse" xlink:href="#id2" x1="3671037.15" y1="-1026379.84" x2="3859842.15" y2="-1008427.11">
  </linearGradient>
  <linearGradient id="id24" gradientUnits="userSpaceOnUse" xlink:href="#id2" x1="13520013.58" y1="-1493054.24" x2="13156784.01" y2="-3211255.27">
  </linearGradient>
  <linearGradient id="id25" gradientUnits="userSpaceOnUse" xlink:href="#id2" x1="12721673.8" y1="-1102308.6" x2="12629073.49" y2="-368555.91">
  </linearGradient>
  <linearGradient id="id26" gradientUnits="userSpaceOnUse" xlink:href="#id2" x1="106922.03" y1="-60026.77" x2="104876.71" y2="-51129.82">
  </linearGradient>
  <linearGradient id="id27" gradientUnits="userSpaceOnUse" xlink:href="#id3" x1="131794.84" y1="-63169.8" x2="133721.75" y2="-63169.8">
  </linearGradient>
  <linearGradient id="id28" gradientUnits="userSpaceOnUse" xlink:href="#id2" x1="72799.14" y1="-106608.15" x2="68912.21" y2="-107481.14">
  </linearGradient>
  <linearGradient id="id29" gradientUnits="userSpaceOnUse" xlink:href="#id19" x1="755783.31" y1="-335193.08" x2="758869.26" y2="-335193.08">
  </linearGradient>
  <linearGradient id="id30" gradientUnits="userSpaceOnUse" xlink:href="#id14" x1="225577.34" y1="-148619.06" x2="242050.4" y2="-148619.06">
  </linearGradient>
  <linearGradient id="id31" gradientUnits="userSpaceOnUse" xlink:href="#id14" x1="146994.78" y1="-66132.35" x2="151801.19" y2="-66132.35">
  </linearGradient>
  <linearGradient id="id32" gradientUnits="userSpaceOnUse" xlink:href="#id2" x1="-178581.86" y1="-23359.42" x2="-178581.86" y2="-23120.56">
  </linearGradient>
  <linearGradient id="id33" gradientUnits="userSpaceOnUse" xlink:href="#id2" x1="14880802.86" y1="-62725.69" x2="14883135.18" y2="-133880.2">
  </linearGradient>
  <linearGradient id="id34" gradientUnits="userSpaceOnUse" xlink:href="#id19" x1="1058606.1" y1="-585483.12" x2="1066458.58" y2="-585483.12">
  </linearGradient>
  <linearGradient id="id35" gradientUnits="userSpaceOnUse" xlink:href="#id3" x1="169797.76" y1="-103165.71" x2="173158.46" y2="-103165.71">
  </linearGradient>
  <linearGradient id="id36" gradientUnits="userSpaceOnUse" xlink:href="#id3" x1="120190.12" y1="-137820.37" x2="125731.6" y2="-137820.37">
  </linearGradient>
  <linearGradient id="id37" gradientUnits="userSpaceOnUse" xlink:href="#id14" x1="164284.59" y1="-65656.56" x2="172355.07" y2="-65656.56">
  </linearGradient>
  <linearGradient id="id38" gradientUnits="userSpaceOnUse" xlink:href="#id3" x1="152695.9" y1="-173708.07" x2="163099.58" y2="-173708.07">
  </linearGradient>
  <linearGradient id="id39" gradientUnits="userSpaceOnUse" xlink:href="#id2" x1="19441.26" y1="-10987.33" x2="19677.08" y2="-3546.66">
  </linearGradient>
  <linearGradient id="id40" gradientUnits="userSpaceOnUse" x1="96351.68" y1="8337.46" x2="96509.61" y2="7179.34">
   <stop offset="0" style="stop-opacity:0; stop-color:white"/>
   <stop offset="0.121569" style="stop-opacity:0.0392157; stop-color:white"/>
   <stop offset="0.329412" style="stop-opacity:0.141176; stop-color:white"/>
   <stop offset="0.588235" style="stop-opacity:0.301961; stop-color:white"/>
   <stop offset="0.890196" style="stop-opacity:0.521569; stop-color:white"/>
   <stop offset="1" style="stop-opacity:0.6; stop-color:white"/>
  </linearGradient>
  <linearGradient id="id41" gradientUnits="userSpaceOnUse" xlink:href="#id2" x1="3323320.98" y1="-1026096.03" x2="3511961.49" y2="-1008170.06">
  </linearGradient>
  <linearGradient id="id42" gradientUnits="userSpaceOnUse" x1="97194" y1="6642.7" x2="91350.77" y2="7459.06">
   <stop offset="0" style="stop-opacity:1; stop-color:#2B2B2B"/>
   <stop offset="0.219608" style="stop-opacity:1; stop-color:#2E2E2E"/>
   <stop offset="0.411765" style="stop-opacity:1; stop-color:#383939"/>
   <stop offset="0.6" style="stop-opacity:1; stop-color:#494A4B"/>
   <stop offset="0.768627" style="stop-opacity:1; stop-color:#616264"/>
   <stop offset="0.941176" style="stop-opacity:1; stop-color:#7F8184"/>
   <stop offset="1" style="stop-opacity:1; stop-color:#8D8F92"/>
  </linearGradient>
 </defs>
 <g id="Capa_x0020_1">
  <metadata id="CorelCorpID_0Corel-Layer"/>
  <g id="_2330139139296">
   <g>
    <g id="Layer_1" data-name="Layer 1">
     <path class="fil0" d="M23660.24 18322.54c-1039.15,1000.2 -2653.68,1231.29 -4145.55,1263.4 -1429.23,44.75 -2908.99,-52.64 -4299.79,-400.6 -1253.4,-311.64 -2579.45,-179.51 -3887.59,-164.77 -1907.74,22.11 -3948.14,8.42 -5534.76,-1047.57 -1551.35,-1029.68 -2379.93,-2905.31 -2558.38,-4759.35 -11.05,-115.81 -21.06,-231.1 -28.43,-346.91 -173.72,-2489.42 376.39,-4913.05 1924.59,-6872.91 1405.54,-1779.29 3316.44,-3207.99 5548.98,-3728.62 1202.33,-280.58 2457.84,-296.9 3697.03,-252.68 1341.31,46.85 2705.26,186.35 3982.88,588.54 1767.18,556.41 3595.95,1804.03 4095.53,3561.21 556.95,1963.54 942.82,3934.98 1582.94,5895.88 57.38,176.88 115.29,353.75 171.61,531.68 279.53,880.7 523.79,1773.5 552.74,2688.95 34.74,1099.68 -280.58,2254.12 -1101.8,3043.75z"/>
     <path class="fil1" d="M23660.24 18322.54c-1039.15,1000.2 -2653.68,1231.29 -4145.55,1263.4 -1429.23,44.75 -2908.99,-52.64 -4299.79,-400.6 -1253.4,-311.64 -2579.45,-179.51 -3887.59,-164.77 -1907.74,22.11 -3948.14,8.42 -5534.76,-1047.57 -1551.35,-1029.68 -2379.93,-2905.31 -2558.38,-4759.35 -11.05,-115.81 -21.06,-231.1 -28.43,-346.91l21004.09 -277.42c279.53,880.7 523.79,1773.5 552.74,2688.95 34.21,1100.2 -281.11,2254.64 -1102.33,3044.27z"/>
     <path class="fil2" d="M3988 14590.23c47.9,207.94 248.47,338.49 435.87,440.09 523.79,284.27 1074.95,514.84 1624.53,745.41l3798.64 1591.36c579.06,243.21 1167.07,488.52 1786.13,605.38 626.96,118.44 1270.77,105.28 1908.79,86.33 2751.06,-71.07 5506.86,-141.61 8240.55,-458.51 359.54,-41.59 777.52,-128.45 929.65,-455.88 136.87,-293.22 -23.69,-655.92 -280.58,-852.8 -256.89,-196.88 -584.85,-267.42 -901.75,-332.7l-1986.18 -409.54c-2842.66,-585.9 -5685.32,-1172.33 -8557.97,-1575.57 -690.66,-96.87 -7407.76,-1170.23 -6997.68,616.43z"/>
     <path class="fil3" d="M6262.65 12079.74c1842.46,322.69 3830.22,-1236.03 5410.52,1588.2 225.31,450.09 290.06,1365 306.38,2288.34 -1888.25,-539.58 -6047.49,-1891.95 -6122.76,-1956.7 -132.66,-113.18 -132.66,-557.48 -127.39,-954.4 2.09,-150.54 236.35,-523.25 533.25,-965.44z"/>
     <path class="fil4" d="M6339.51 13144.69c171.61,4.74 712.77,499.57 725.93,1123.9 11.58,564.32 -144.24,1052.84 -291.64,1130.22l-563.27 44.22 66.33 -112.13c-121.08,-163.19 -214.25,-579.06 -224.25,-1064.42 -13.16,-623.8 115.29,-1126.01 286.9,-1121.79z"/>
     <path class="fil5" d="M6339.51 13144.69c171.61,4.74 712.77,499.57 725.93,1123.9 11.58,564.32 -144.24,1052.84 -291.64,1130.22l-563.27 44.22 66.33 -112.13c-121.08,-163.19 -214.25,-579.06 -224.25,-1064.42 -13.16,-623.8 115.29,-1126.01 286.9,-1121.79z"/>
     <line class="fil6" x1="6773.8" y1="15398.81" x2="6210.54" y2= "15443.03" />
     <path class="fil4" d="M5863.1 14305.44c13.16,623.81 163.19,1133.38 334.8,1137.59 171.61,4.21 300.06,-497.47 286.9,-1121.27 -13.16,-623.8 -162.66,-1133.91 -334.8,-1138.12 -172.14,-4.21 -300.06,497.47 -286.9,1121.8z"/>
     <path class="fil7" d="M5946.8 14308.6c7.9,368.49 96.86,671.18 197.93,673.82 101.07,2.64 177.93,-294.79 170.56,-664.34 -7.37,-369.55 -96.86,-671.18 -198.46,-673.82 -101.6,-2.64 -177.4,294.79 -170.03,664.34z"/>
     <path class="fil4" d="M6018.39 14311.23c3.68,177.93 46.32,323.75 95.28,324.8 48.96,1.05 85.81,-142.13 82.12,-320.06 -3.69,-177.93 -46.32,-323.75 -95.28,-325.33 -48.96,-1.58 -82.12,142.13 -82.12,320.59z"/>
     <path class="fil4" d="M11140.97 13418.42c299.01,7.9 1579.25,914.92 1602.93,2000.39 20.53,982.82 -157.93,1789.82 -416.4,1931.96l-1413.42 70.01 115.81 -195.83c-210.57,-284.27 -373.23,-1008.62 -391.13,-1852.99 -20.52,-1086 203.2,-1961.43 502.21,-1953.54z"/>
     <path class="fil8" d="M11140.97 13418.42c299.01,7.9 1579.25,914.92 1602.93,2000.39 20.53,982.82 -157.93,1789.82 -416.4,1931.96l-1413.42 70.01 115.81 -195.83c-210.57,-284.27 -373.23,-1008.62 -391.13,-1852.99 -20.52,-1086 203.2,-1961.43 502.21,-1953.54z"/>
     <path class="fil4" d="M10311.33 15439.34c22.64,1086.53 283.74,1973.54 582.75,1981.44 299.01,7.9 522.73,-866.48 499.57,-1953.01 -23.16,-1086.53 -283.74,-1974.07 -582.22,-1981.97 -298.48,-7.9 -522.73,867.02 -500.1,1953.54z"/>
     <path class="fil9" d="M10457.15 15444.08c13.16,643.28 167.93,1169.18 344.8,1173.39 176.87,4.21 309.53,-513.26 296.37,-1158.12 -13.16,-644.86 -167.93,-1169.18 -345.33,-1173.91 -177.4,-4.73 -309.52,515.88 -295.84,1158.64z"/>
     <path class="fil4" d="M10584.55 15449.35c6.32,310.06 81.07,563.79 166.35,565.9 85.28,2.11 148.98,-247.42 142.66,-558 -6.32,-310.58 -81.07,-563.79 -166.35,-565.9 -85.28,-2.11 -149.51,247.41 -142.66,558z"/>
     <path class="fil4" d="M19971.63 13418.42c299.01,7.9 1579.26,914.92 1602.94,2000.39 20.53,982.82 -160.56,1789.82 -416.4,1931.96l-1411.33 68.96 115.81 -195.83c-210.57,-284.27 -373.23,-1008.62 -391.13,-1852.99 -22.62,-1084.95 201.1,-1960.38 500.11,-1952.49z"/>
     <path class="fil10" d="M19971.63 13418.42c299.01,7.9 1579.26,914.92 1602.94,2000.39 20.53,982.82 -160.56,1789.82 -416.4,1931.96l-1411.33 68.96 115.81 -195.83c-210.57,-284.27 -373.23,-1008.62 -391.13,-1852.99 -22.62,-1084.95 201.1,-1960.38 500.11,-1952.49z"/>
     <path class="fil4" d="M19141.99 15439.34c23.16,1086.53 283.74,1973.54 582.75,1981.44 299.01,7.9 522.73,-866.48 499.57,-1953.01 -23.16,-1086.53 -283.74,-1971.44 -582.22,-1981.97 -298.48,-10.53 -522.73,867.02 -500.1,1953.54z"/>
     <path class="fil11" d="M19287.81 15444.08c13.69,643.28 167.93,1169.18 344.8,1173.39 176.87,4.21 310.06,-513.26 296.37,-1158.12 -13.69,-644.86 -167.93,-1169.18 -345.33,-1173.91 -177.4,-4.73 -309.52,515.88 -295.84,1158.64z"/>
     <path class="fil4" d="M19415.21 15449.35c6.32,310.06 81.07,563.79 166.35,565.9 85.28,2.11 148.98,-247.42 142.66,-558 -6.32,-310.58 -81.07,-563.79 -166.35,-565.9 -85.28,-2.11 -149.51,247.41 -142.66,558z"/>
     <path class="fil4" d="M7147.56 13199.96c187.4,4.74 947.55,561.16 961.24,1241.82 12.63,615.91 -101.07,1123.38 -263.21,1210.76l-842.27 55.27 72.65 -122.66c-132.66,-177.93 -233.73,-631.7 -244.78,-1161.28 -11.06,-680.65 128.97,-1228.65 316.37,-1223.91z"/>
     <path class="fil12" d="M7147.56 13199.96c187.4,4.74 947.55,561.16 961.24,1241.82 12.63,615.91 -101.07,1123.38 -263.21,1210.76l-842.27 55.27 72.65 -122.66c-132.66,-177.93 -233.73,-631.7 -244.78,-1161.28 -11.06,-680.65 128.97,-1228.65 316.37,-1223.91z"/>
     <path class="fil4" d="M6627.46 14466c14.74,681.19 177.93,1237.08 365.33,1241.82 187.4,4.74 327.43,-542.74 313.22,-1223.92 -14.21,-681.18 -177.93,-1236.56 -364.81,-1241.82 -186.88,-5.26 -327.95,543.26 -313.74,1223.92z"/>
     <path class="fil13" d="M6719.06 14469.68c8.42,403.24 105.28,732.77 216.36,736.99 111.08,4.22 193.72,-321.64 185.3,-725.4 -8.42,-403.76 -105.28,-732.25 -216.36,-736.99 -111.08,-4.74 -193.73,322.16 -185.3,725.4z"/>
     <path class="fil4" d="M6799.07 14472.84c3.68,194.25 52.64,353.23 105.28,354.28 52.64,1.05 93.7,-155.29 90.02,-349.54 -3.68,-194.25 -52.64,-353.23 -105.28,-354.81 -52.64,-1.58 -94.23,155.29 -90.02,350.07z"/>
     <path class="fil14" d="M11673.17 13671.63c-1579.25,-2824.23 -3567.53,-1263.4 -5410.52,-1588.2 484.83,-728.04 1127.59,-1644.53 1142.33,-2067.76 23.69,-681.19 -34.22,-1601.36 145.82,-1714.54 180.04,-113.18 2854.76,-2122 4231.34,-2776.87 1376.59,-654.87 9051.24,-443.24 9284.44,294.79 233.2,738.03 789.63,4529.83 931.76,6863.96 102.65,1666.64 90.02,1813.51 73.7,3163.25 0,0 -7848.37,333.75 -9200.22,333.75 -87.39,0 -418.5,-84.23 -892.28,-220.04 -16.31,-923.34 -81.06,-1838.25 -306.37,-2288.34z"/>
     <path class="fil15" d="M12663.36 5782.21c276.9,-220.57 7922.07,-170.03 8152.64,-110.02 96.01,23.5 183.14,74.6 250.56,146.85 63.86,120.82 116.27,248.91 155.38,380.06 116.93,397.09 210.07,802.76 276.25,1210.88 133.71,834.9 309.01,2140.42 431.14,3952.87 13.69,217.41 26.85,443.24 38.95,675.92 4.21,207.41 -4.21,608.01 -125.29,667.5 -163.72,80.02 -8035.78,150.03 -8410.06,-120.55 -374.28,-270.58 -386.39,-521.15 -453.25,-1482.92 -66.86,-961.76 -263.21,-3537 -368.49,-4078.15 -105.28,-541.15 -223.14,-1021.87 52.17,-1242.44z"/>
     <path class="fil16" d="M12663.36 5782.21c276.9,-220.57 7922.07,-170.03 8152.64,-110.02 96.01,23.5 183.14,74.6 250.56,146.85 63.86,120.82 116.27,248.91 155.38,380.06 116.93,397.09 210.07,802.76 276.25,1210.88 133.71,834.9 309.01,2140.42 431.14,3952.87 13.69,217.41 26.85,443.24 38.95,675.92 4.21,207.41 -4.21,608.01 -125.29,667.5 -112.15,17.21 -225.23,26.22 -338.31,26.22 -105.28,-1711.39 -38.43,-2188.32 -399.55,-4392.43 -280.58,-1291.83 -730.67,-1179.18 -1372.37,-1179.18 132.66,1984.6 361.65,3623.33 460.62,5607.93 -2401.52,21.06 -6518.11,-7.9 -6760.79,-183.19 -374.81,-270.58 -386.39,-521.15 -453.25,-1482.92 -66.86,-961.76 -263.21,-3537 -368.49,-4078.15 -105.28,-541.15 -222.8,-1021.77 52.51,-1242.34z"/>
     <path class="fil17" d="M12663.36 5782.21c276.9,-220.57 7922.07,-170.03 8152.64,-110.02 96.01,23.5 183.14,74.6 250.56,146.85 63.86,120.82 116.27,248.91 155.38,380.06 45.8,144.24 96.86,337.43 151.08,579.06l-8799.15 70.57c-91.6,-467.46 -157.4,-870.17 89.49,-1066.52z"/>
     <path class="fil4" d="M21102.9 14571.81c0,0 482.73,-117.39 703.3,-902.28 244.26,-443.77 334.8,299.53 315.85,866.48 -14.21,415.34 -750.67,433.24 -972.82,389.02 -222.15,-44.22 -301.64,-232.15 -46.33,-353.22z"/>
     <path class="fil4" d="M20975.51 14667.09l6.84 -8.42c30.99,-34.77 69.84,-61.89 113.17,-78.98 139.41,-44.76 263.65,-128.56 357.46,-241.08 152.62,-170.31 265.51,-373.43 329.54,-592.84 179.51,-191.09 246.36,368.49 231.1,805.95 -12.63,350.07 -675.39,365.33 -875.43,327.96 -148.47,-29.92 -225.85,-124.15 -162.68,-212.59z"/>
     <path class="fil14" d="M21643.01 14070.66c57.75,-103.55 104.92,-213.47 139.58,-326.88 132.66,-141.61 203.72,128.97 225.83,456.4 -65.35,-92.15 -232.75,-124.79 -365.41,-129.52z"/>
     <path class="fil14" d="M19737.9 5357.39c0,0 -6843.44,0 -7896.28,173.19 -579.05,141.61 -5732.16,3194.31 -5732.16,3194.31l255.31 -427.45c0,0 3820.22,-2832.66 5173.11,-3369.08 1352.88,-536.42 7927.34,-895.44 8200.02,429.03z"/>
     <path class="fil18" d="M19737.9 5357.39c0,0 -6843.44,0 -7896.28,173.19 -579.05,141.61 -5732.16,3194.31 -5732.16,3194.31l255.31 -427.45c0,0 3820.22,-2832.66 5173.11,-3369.08 1352.88,-536.42 7927.34,-895.44 8200.02,429.03z"/>
     <path class="fil14" d="M5547.25 13618.46c5.26,-396.92 68.96,-2925.83 92.65,-3606.48 23.69,-680.66 -2.63,-975.45 177.4,-1089.16 180.03,-113.71 3378.03,-2354.67 4754.61,-3006.9 1376.57,-652.23 1440.8,-466.93 1673.47,271.11 232.67,738.04 493.78,3930.77 572.74,5824.81 73.7,1777.72 52.64,4515.62 52.64,4515.62l-1432.9 -446.93c7.37,-161.08 9.48,-329.54 5.79,-502.73 -25.27,-1198.65 -312.69,-2177.27 -642.76,-2186.22 -330.07,-8.95 -579.06,956.5 -551.16,2155.16 0,52.64 3.16,108.97 5.26,162.66 -972.8,-305.33 -2044.59,-644.87 -2910.02,-923.34 3.16,-91.6 4.21,-186.88 0,-284.79 -15.27,-744.88 -194.25,-1352.9 -399.03,-1358.16 -204.78,-5.26 -358.49,593.8 -342.7,1338.68 0,21.58 0,43.17 0,64.75l-96.86 -31.59c0,-64.22 0,-130.03 0,-197.41 -14.21,-662.76 -173.19,-1203.92 -355.33,-1210.76 -182.14,-6.84 -315.85,526.42 -304.8,1182.34 -65.56,-20.02 -129.8,-45.9 -191.07,-76.83 -126.36,-111.1 -110.56,-196.38 -107.93,-593.83z"/>
     <path class="fil19" d="M5547.25 13618.46c5.26,-396.92 68.96,-2925.83 92.65,-3606.48 23.69,-680.66 -2.63,-975.45 177.4,-1089.16 180.03,-113.71 3378.03,-2354.67 4754.61,-3006.9 1376.57,-652.23 1440.8,-466.93 1673.47,271.11 232.67,738.04 493.78,3930.77 572.74,5824.81 73.7,1777.72 52.64,4515.62 52.64,4515.62l-1432.9 -446.93c7.37,-161.08 9.48,-329.54 5.79,-502.73 -25.27,-1198.65 -312.69,-2177.27 -642.76,-2186.22 -330.07,-8.95 -579.06,956.5 -551.16,2155.16 0,52.64 3.16,108.97 5.26,162.66 -972.8,-305.33 -2044.59,-644.87 -2910.02,-923.34 3.16,-91.6 4.21,-186.88 0,-284.79 -15.27,-744.88 -194.25,-1352.9 -399.03,-1358.16 -204.78,-5.26 -358.49,593.8 -342.7,1338.68 0,21.58 0,43.17 0,64.75l-96.86 -31.59c0,-64.22 0,-130.03 0,-197.41 -14.21,-662.76 -173.19,-1203.92 -355.33,-1210.76 -182.14,-6.84 -315.85,526.42 -304.8,1182.34 -65.56,-20.02 -129.8,-45.9 -191.07,-76.83 -126.36,-111.1 -110.56,-196.38 -107.93,-593.83z"/>
     <path class="fil20" d="M12057.98 11690.72c-250.05,-1336.04 -550.1,-2368.87 -1947.74,-2110.93 -939.66,174.77 -3313.28,1068.09 -4398.23,1493.97 0,0 0,-299.01 5.79,-384.29 29.48,-596.95 7.37,-901.74 189.51,-989.13 182.14,-87.39 3322.23,-2165.69 4712.51,-2622.09 1390.27,-456.4 1448.17,-263.21 1664.53,507.99 157.93,558 301.11,2406.26 383.23,4106.05l-607.49 10.53c-0.43,-4.06 -1.15,-8.15 -2.1,-12.12l-0.01 0.02z"/>
     <path class="fil21" d="M12329.61 11698.61l-269.53 4.21c0.14,-2.01 0.21,-4.05 0.21,-6.06 0,-2.01 -0.07,-4.05 -0.19,-6.05 -52.84,-312.25 -124.63,-624.41 -210.56,-928.95 218.97,234.09 365.84,558.36 480.07,936.85z"/>
     <g>
      <polygon class="fil22" points="9334.83,7663.1 9365.89,7647.31 9427.48,9752.98 9396.42,9761.93 "/>
      <polygon class="fil22" points="7779.79,8548.01 7810.85,8529.06 7836.64,10279.93 7805.58,10290.98 "/>
      <polygon class="fil22" points="6572.18,9289.21 6603.24,9269.73 6603.24,10732.11 6572.18,10743.69 "/>
     </g>
     <path class="fil14" d="M22106.78 15060.85c0,0 -35.27,100.02 -562.21,110.02 -526.94,10 -8486.39,130.03 -8754.87,-21.06 -3.68,506.41 -44.22,1377.11 83.17,1436.6 157.93,74.23 8269.51,-42.64 8644.32,-93.18 374.81,-50.54 515.36,-110.02 562.21,-460.62 46.85,-350.6 27.38,-971.76 27.38,-971.76z"/>
     <path class="fil23" d="M22106.78 15060.85c0,0 -35.27,100.02 -562.21,110.02 -526.94,10 -8486.39,130.03 -8754.87,-21.06 -3.68,506.41 -44.22,1377.11 83.17,1436.6 157.93,74.23 8269.51,-42.64 8644.32,-93.18 374.81,-50.54 515.36,-110.02 562.21,-460.62 46.85,-350.6 27.38,-971.76 27.38,-971.76z"/>
     <path class="fil22" d="M11455.77 11664.92l-173.19 -4783.02 31.06 -7.37 315.84 8595.88 1084.95 315.85c20,-1878.79 -52.64,-3604.39 -75.28,-4095.54l31.58 0c26.32,566.43 113.18,2666.31 63.17,4790.41l-31.06 -10.53c4.92,-202.85 8.43,-404.82 10.53,-605.91l-1080.74 -315.85 21.58 597.48 -31.59 -12.11 -24.2 -591.69 -3.16 0 0 -40.01 -136.86 -3756.52 -1487.13 131.6 61.59 3764.42 -31.59 -12.11 -61.59 -3749.68 -1275.51 113.18 52.64 3234.31 -31.06 -11.05 -52.64 -3220.63 -1147.07 101.6 44.22 2751.06 -31.59 -12.63 -43.69 -2737.38 -1876.16 166.35 0 -80.02 5876.95 -520.09z"/>
     <path class="fil24" d="M12431.21 11696.51c0,-22.11 -4.21,-44.22 -5.79,-66.33l-108.44 -1726.64c-22.64,-361.12 56.33,-662.23 183.19,-740.14 67.38,754.36 125.29,1660.84 167.4,2526.8l-236.36 6.31z"/>
     <path class="fil25" d="M21842.52 12706.71c-164.24,80.02 -8035.78,150.03 -8410.06,-120.55 -355.33,-256.37 -384.29,-495.36 -443.24,-1340.26 204.78,-134.24 603.8,-234.26 1124.43,-307.43 123.18,-17.37 253.21,-33.16 389.02,-47.38 246.36,-25.79 512.21,-47.38 789.63,-64.22l160.56 -9.48c201.09,-11.23 407.62,-20.36 619.59,-27.37l226.89 -6.84c205.83,-5.26 415.87,-9.48 626.44,-12.11 111.6,0 224.25,-2.63 336.38,-3.16l160.55 0c579.06,0 1158.12,7.37 1698.23,21.58 1511.35,41.06 2714.74,129.5 2778.44,184.77 9.48,127.39 18.95,256.37 27.9,389.55 14.03,217.94 27.02,443.25 38.95,675.92 5.26,206.36 -3.16,606.96 -123.71,666.98z"/>
     <path class="fil26" d="M20021.11 10831.08c-693.82,-18.42 -1452.39,-27.37 -2195.16,-18.42l-57.91 -1207.07c0,-408.5 494.83,-736.99 1101.27,-730.67 606.44,6.32 1097.58,340.07 1095.48,749.09l56.32 1207.07z"/>
     <path class="fil27" d="M16300.91 10782.65c-816.48,22.64 -1583.47,70.54 -2187.27,157.93l-67.38 -1399.21c0,-408.5 494.83,-736.99 1101.79,-731.2 606.96,5.79 1097.06,340.59 1095.48,749.62l57.38 1222.86z"/>
     <path class="fil14" d="M17153.71 10306.77c-17.89,31.19 -44.93,56.21 -77.4,71.6l0.02 0c-188.46,112.12 -382.18,215.3 -579.06,307.94 -32.91,18.78 -70.04,29.31 -107.93,30.54 -56.98,-9.93 -108.6,-40.05 -145.3,-84.76 -121.6,-115.81 -246.36,-237.41 -307.43,-394.8 -37.04,-113.25 -56.55,-231.88 -57.4,-351.07 -5.45,-79.23 -8.67,-159.67 -8.67,-239.3 0,-92.91 4.02,-186.62 11.66,-279.12 19.48,-157.93 65.8,-270.05 166.87,-187.4 42.11,34.22 368.49,987.03 404.29,961.24l226.89 -153.19c51.7,-42.5 114.5,-69.07 180.78,-76.47 127.39,0 210.57,128.45 268.47,242.15 20.3,30.25 31.2,65.96 31.2,102.43 0,16.98 -2.38,33.89 -7,50.22l0.01 -0.01z"/>
     <path class="fil28" d="M17076.33 10378.37l0 0c-188.46,112.12 -382.18,215.3 -579.06,307.94 -32.91,18.78 -70.04,29.31 -107.93,30.54 -56.98,-9.93 -108.6,-40.05 -145.3,-84.76 -121.6,-115.81 -246.36,-237.41 -307.43,-394.8 -37.04,-113.25 -56.55,-231.88 -57.4,-351.07 -5.45,-79.23 -8.67,-159.67 -8.67,-239.3 0,-92.91 4.02,-186.62 11.66,-279.12 25.27,-25.27 63.17,323.75 105.28,359.54 42.11,35.79 361.86,637.87 401.35,610.49 75.28,-52.64 151.08,-102.65 226.89,-153.19 51.48,-42.34 114.28,-68.91 180.56,-76.31 127.39,0 210.57,128.45 267.95,242.15 3.68,9.99 8.94,18.94 12.1,27.89z"/>
     <path class="fil14" d="M16072.97 10789.49c-210.56,7.37 -417.09,16.49 -619.59,27.37l-160.56 9.48c-279,16.85 -544.84,38.43 -789.63,64.22 0,-63.7 -7.37,-492.73 -4.21,-553.26 16.32,-295.85 -203.2,-804.89 -150.03,-1096.53 26.32,-145.82 1221.82,-466.41 1549.78,-227.94 64.07,41.21 115.68,99.43 148.95,167.93 15.12,47.49 22.78,97.2 22.78,147.08 0,28.5 -2.55,57.07 -7.48,85.1 -22.11,226.89 -43.69,452.72 -65.28,679.61 -5.79,54.19 50.01,427.41 75.27,696.94z"/>
     <path class="fil29" d="M16072.97 10789.49c-210.56,7.37 -417.09,16.49 -619.59,27.37l-94.76 5.26 -65.8 4.21c-279,16.85 -544.84,38.43 -789.63,64.22 0,-63.7 -7.37,-492.73 -4.21,-553.26 0.01,-2.18 0.01,-4.61 0.01,-6.89 0,-104.02 -12.35,-207.88 -36.41,-308.98 -55.8,-268.47 -150.56,-575.9 -113.71,-778.57 26.32,-145.82 1221.82,-466.41 1549.78,-227.94 64.15,41.24 115.76,99.46 149.03,167.96 15.12,47.49 22.78,97.2 22.78,147.08 0,28.5 -2.55,57.07 -7.48,85.1 -22.11,226.89 -43.69,452.72 -65.28,679.61 -5.79,52.08 50.01,425.3 75.27,694.83z"/>
     <path class="fil30" d="M15359.68 10822.13l-65.8 4.21c-279,16.85 -544.84,38.43 -789.63,64.22 0,-63.7 -7.37,-492.73 -4.21,-553.26 0,-2.19 0,-4.62 0,-6.9 0,-104.02 -12.35,-207.88 -36.41,-308.98 17.37,-38.43 35.27,-76.86 52.64,-114.76 15.37,-47.76 37.99,-93.18 66.92,-134.2 52.64,26.32 17.9,165.82 29.48,220.57 9.48,43.69 115.29,383.23 181.61,484.82 12.69,22.64 30.8,41.84 52.64,55.82 25.8,11.26 53.68,17.13 81.83,17.13 7.83,0 15.72,-0.47 23.48,-1.37 157.93,-5.26 315.85,-11.58 470.62,-20.53 11.05,98.45 -51.06,192.68 -63.17,293.23z"/>
     <path class="fil14" d="M15208.6 10581.03c-74.23,43.69 15.27,168.98 -71.07,170.56 -147.92,0 -602.22,-45.27 -750.15,-42.64 -157.93,0 -315.85,-105.28 -414.82,-228.99 -45,-61.53 -69.27,-135.93 -69.27,-212.17 0,-21.16 1.89,-42.31 5.57,-63.12 17.58,-95.29 48.32,-188.29 90.61,-275.39 50.01,-114.76 280.05,-764.36 409.55,-713.3 52.64,21.58 97.39,94.23 128.97,187.4 46.38,146.13 70.36,298.93 70.36,452.45 0,36.7 -1.64,73.76 -4.18,110.28 -11.58,57.38 -149.5,157.93 -105.28,200.57 13.73,11.34 29.27,20.26 45.89,26.39 205.13,89.14 425.97,138.63 649.6,144.84 41.59,73.08 88.97,199.43 14.22,243.12z"/>
     <path class="fil31" d="M15137.53 10751.59c-147.92,0 -602.22,-45.27 -750.15,-42.64 -157.93,0 -315.85,-105.28 -414.82,-228.99 -45,-61.53 -69.27,-135.93 -69.27,-212.17 0,-21.16 1.89,-42.31 5.57,-63.12 31.81,112.72 114.07,204.52 222.68,248.43 198.99,71.07 947.55,112.13 947.55,112.13l127.92 15.79c-72.64,43.7 16.85,168.99 -69.48,170.57z"/>
     <path class="fil32" d="M15082.78 10601.03c7.68,47.35 30,91.19 63.69,125.3 10.06,-11.37 16.48,-25.51 18.42,-40.54 5.51,-19.73 8.32,-40.16 8.32,-60.65 0,-44.12 -12.98,-87.31 -37.27,-124.11 -63.16,-82.67 -60.53,59.47 -53.16,100z"/>
     <path class="fil33" d="M15023.82 8842.28c-5.26,101.6 0,210.57 66.33,290.06 37.83,40.4 84.04,72.26 135.27,93.18 47.44,24.94 100.19,38.53 153.74,39.5 54.52,-0.04 104.49,-30.55 129.48,-78.99 22.18,-56.54 33.58,-116.81 33.58,-177.56 0,-24.76 -1.9,-49.59 -5.64,-74.05 -30.53,-97.39 -35.27,-204.25 -85.28,-293.74 -50.01,-89.49 -227.94,-105.28 -341.65,-97.91 -52.64,3.68 -77.38,20.53 -83.17,72.12 -6.34,72.62 1.55,153.69 -2.66,227.39z"/>
     <path class="fil34" d="M15211.75 8984.94c31.45,73.35 84.83,135.38 152.65,177.41 25.33,15.86 54.38,24.96 84.24,26.32 1.29,0.04 2.59,0.08 3.89,0.08 29.04,0 56.58,-12.97 75.07,-35.35 14.02,-24.1 21.44,-51.54 21.44,-79.44 0,-5.63 -0.31,-11.3 -0.91,-16.89l0 -242.15c0.18,-2.51 0.27,-5.07 0.27,-7.59 0,-14.41 -2.97,-28.69 -8.7,-41.9 -16.07,-23.23 -41.43,-38.41 -69.49,-41.59 -74.75,-18.42 -217.94,-52.64 -280.58,11.58 -62.64,64.22 -7.36,184.24 22.12,249.52z"/>
     <path class="fil35" d="M15897.15 8642.77c-7.9,122.66 -37.9,263.21 -145.29,320.59 -41.89,20.54 -87.65,32.37 -134.25,34.73 -26.59,3.35 -53.39,5.18 -80.19,5.18 -88.11,0 -175.3,-18.71 -255.7,-54.67 -115.28,-63.01 -203.9,-166.04 -248.93,-289.51 -41.91,-117.17 -63.35,-240.63 -63.35,-365.02 0,-5.82 0.13,-12.04 0.13,-17.73 0,-185.83 36.85,-401.13 198.46,-492.2 64.39,-32.69 135.3,-50.75 207.45,-52.58 162.66,-10 532.74,-22.64 511.68,207.41 -21.06,230.05 27.89,465.85 9.99,703.8z"/>
     <path class="fil4" d="M15915.05 7659.94c-31.34,-89.46 -100.52,-160.76 -188.99,-194.77 -58.94,-18.09 -120.42,-27.27 -182.13,-27.27 -20.57,0 -41.21,1.06 -61.63,3.04 -84.75,3.68 -169.51,7.9 -254.26,13.16 -94.95,0.11 -189.34,19.14 -276.89,55.81 -44.19,19.3 -80.22,53.65 -101.59,96.88 -10.11,34.53 -18.38,69.78 -24.18,105.24 -12.63,45.27 -40.01,85.28 -52.64,129.5 -6.63,31.76 -10.02,64.1 -10.02,96.51 0,56.94 10.34,113.53 30.51,166.74 36.85,131.6 79.49,272.16 187.4,355.33 -10.17,-31.47 -15.41,-64.44 -15.41,-97.52 0,-41.3 8.14,-82.25 23.87,-120.42 47.25,36.19 77.55,90.31 83.68,149.51 26.32,0 31.06,-38.43 28.43,-64.75 -10.91,-65.55 -16.61,-132.19 -16.61,-198.69 0,-8.62 0.15,-17.68 0.29,-26.16 2.23,-76.28 37.64,-148.07 96.86,-196.3 95.28,-68.43 225.83,-34.74 341.12,-14.21 89.49,16.32 255.84,52.64 343.22,16.85 87.38,-35.79 75.82,-172.67 48.97,-248.48z"/>
     <path class="fil32" d="M17424.29 10766.85l-160.56 0c-40.53,-417.44 -430.08,-745.4 -902.81,-745.4 -491.67,0 -894.91,354.81 -906.49,794.88 -52.64,3.16 -105.28,5.79 -160.56,9.48 7.9,-532.73 483.25,-964.39 1067.05,-964.39 561.69,2.64 1023.36,400.08 1063.37,905.43z"/>
     <g>
      <g style="clip-path:url(#id0)">
       <polygon class="fil36" points="5816.24,6965.63 12771.81,6965.63 12771.81,11833.9 5816.24,11833.9 "/>
      </g>
      <g style="clip-path:url(#id1)">
       <g>
        <path id="1" class="fil37" d="M12669.68 10350.99c63.7,286.89 401.66,507.98 754.88,493.77l0 0c353.23,-14.74 588.01,-259 526.42,-545.89l-263.21 -1180.76c-63.7,-286.9 -401.66,-507.99 -754.88,-493.25l0 0.01c-353.23,14.21 -588.01,258.47 -526.42,545.37l263.21 1180.75z"/>
        <path class="fil37" d="M11296.79 10406.78c63.7,286.9 754.87,1652.95 1108.63,1638.21l263.21 -108.97c353.23,-14.74 325.85,-149.5 263.21,-436.4l-615.91 -2325.18c-63.7,-287.42 -401.66,-508.52 -754.87,-493.78l-0.01 0.01c-353.75,14.21 -588.01,258.47 -526.42,545.37l262.16 1180.74z"/>
        <path class="fil38" d="M10400.3 10548.39c66.86,250.05 263.21,421.13 441.67,385.86l-0.01 0c176.88,-36.32 265.84,-268.47 198.99,-518.52l-275.84 -1025.45c-66.86,-250.05 -263.21,-421.13 -441.67,-386.39l0 0c-176.88,36.85 -265.84,269 -198.99,519.05l275.85 1025.45z"/>
        <path class="fil38" d="M9712.27 10691.05c67.38,249.52 263.21,421.13 441.67,385.86l0 0c176.88,-36.32 266.37,-269 198.99,-518.52l-275.32 -1028.09c-66.86,-250.05 -263.21,-421.13 -442.19,-386.39l-0.01 0.01c-176.88,36.85 -263.21,269 -198.99,519.05l275.85 1028.08z"/>
        <path class="fil37" d="M9031.09 10767.91c58.44,218.46 231.62,368.49 386.39,337.96l0 0c154.77,-32.11 232.68,-235.84 174.24,-454.3l-241.1 -900.17c-58.96,-218.99 -232.15,-368.49 -386.92,-337.96l0 0c-154.77,32.11 -233.2,235.31 -174.24,454.3l241.63 900.17z"/>
        <path class="fil38" d="M8420.97 10942.68c58.96,218.99 231.62,368.49 386.39,337.96l0 0c157.93,-32.11 233.2,-235.31 174.24,-454.3l-241.1 -900.17c-58.43,-218.46 -231.62,-368.49 -386.92,-337.96l0 0c-154.77,32.11 -232.68,235.31 -174.24,454.3l241.63 900.17z"/>
        <path class="fil38" d="M7874.54 11225.36c60.01,224.78 237.94,380.6 397.45,347.44l0 0c157.93,-33.16 239.52,-242.15 178.98,-466.93l-247.94 -925.96c-60.54,-225.31 -238.47,-380.6 -397.97,-347.44l0 0c-157.93,32.64 -239.52,242.15 -178.98,466.93l248.46 925.96z"/>
        <path class="fil38" d="M7239.68 11439.09c60.54,224.78 238.47,380.07 397.97,347.44l0.01 0c157.93,-33.16 238.99,-242.15 178.98,-466.93l-248.47 -925.97c-60.01,-224.77 -238.47,-380.06 -397.45,-347.43l0 0c-157.93,33.16 -239.52,242.15 -179.51,466.92l248.47 925.97z"/>
        <path class="fil38" d="M6661.15 11561.22c52.64,191.62 202.14,323.22 337.43,295.32l0 0c135.82,-27.9 203.72,-205.3 152.13,-396.39l-210.57 -786.47c-52.64,-191.09 -202.67,-323.21 -337.96,-295.31l0.01 0c-135.29,27.89 -203.2,205.29 -152.13,396.91l211.09 785.94z"/>
        <path class="fil37" d="M6034.19 11665.45c27.37,195.83 162.14,345.33 299.53,333.75l0 0c137.4,-11.58 226.89,-179.51 198.99,-375.86l-114.76 -805.95c-27.9,-195.83 -162.14,-345.33 -300.06,-333.75l0 0c-137.4,11.58 -226.36,180.04 -198.99,375.86l115.29 805.95z"/>
       </g>
      </g>
      <path class="fil6" d="M12162.21 11821.8c-250.05,-1336.05 -550.11,-2368.87 -1947.74,-2110.93 -939.66,174.77 -3313.28,1068.09 -4398.23,1493.97 0,0 0,-299.01 5.79,-384.29 29.48,-596.95 7.37,-901.74 189.51,-989.13 182.14,-87.39 3322.24,-2165.69 4712.51,-2622.09 1390.26,-456.4 1448.17,-263.21 1664.53,507.99 157.93,558 301.11,2406.26 383.23,4106.05l-607.49 10.53c-0.43,-4.06 -1.15,-8.15 -2.1,-12.12l-0.01 0.02z"/>
     </g>
     <path class="fil4" d="M15088.05 14579.7c0,0 -894.91,-190.56 -1483.97,-701.19 -464.3,-401.13 -718.56,271.11 -601.7,781.2 116.86,510.09 1424.49,391.13 1846.68,350.59 422.19,-40.54 486.93,-363.74 238.99,-430.6z"/>
     <path class="fil4" d="M14991.18 14581.28c0,0 -837.53,-163.19 -1391.85,-600.12 -435.35,-343.22 -674.34,232.15 -564.32,668.55 110.02,436.4 1336.05,334.28 1731.92,300.06 395.87,-34.22 456.93,-311.64 224.25,-368.49z"/>
     <path class="fil14" d="M13043.96 14675.51c-3.5,-8.38 -6.51,-17.05 -8.93,-25.81 -110.02,-436.4 128.97,-1011.78 564.32,-668.55 47.9,37.38 97.39,73.17 148.98,105.28 -352.19,82.67 -608.56,289.02 -704.37,589.08z"/>
     <path class="fil14" d="M13471.94 14589.7c0,173.19 121.08,315.85 270.05,315.85 148.97,0 270.05,-140.55 270.05,-315.85 0,-175.3 -121.08,-315.85 -270.05,-315.85 -148.97,0 -270.05,142.66 -270.05,315.85z"/>
     <path class="fil14" d="M14217.35 14692.36c0,131.08 91.6,236.89 204.25,236.89 112.65,0 203.72,-105.28 203.72,-236.89 0,-131.61 -91.07,-236.89 -203.72,-236.89 -112.65,0 -204.25,105.81 -204.25,236.89z"/>
     <path class="fil14" d="M22015.71 14470.21c0,135.82 -94.23,245.84 -210.57,245.84 -116.34,0 -210.57,-110.02 -210.57,-245.84 0,-135.82 94.23,-246.36 210.57,-246.36 116.34,0 210.57,110.54 210.57,246.36z"/>
     <path class="fil14" d="M21594.58 14640.24c-12.42,77.91 -79.65,135.28 -158.57,135.28 -88.66,0 -160.56,-71.9 -160.56,-160.56 0,-88.66 71.9,-160.56 160.56,-160.56 0.2,0 0.43,0 0.63,0 89.69,8.21 158.36,83.45 158.36,173.52 0,4.11 -0.15,8.23 -0.43,12.32l0.01 0z"/>
     <path class="fil39" d="M21643.01 14070.66c57.75,-103.55 104.92,-213.47 139.58,-326.88 132.66,-141.61 203.72,128.97 225.83,456.4 -65.35,-92.15 -232.75,-124.79 -365.41,-129.52z"/>
     <path class="fil40" d="M13043.96 14675.51c-3.5,-8.38 -6.51,-17.05 -8.93,-25.81 -110.02,-436.4 128.97,-1011.78 564.32,-668.55 47.9,37.38 97.39,73.17 148.98,105.28 -352.19,82.67 -608.56,289.02 -704.37,589.08z"/>
     <path class="fil41" d="M13471.94 14589.7c0,173.19 121.08,315.85 270.05,315.85 148.97,0 270.05,-140.55 270.05,-315.85 0,-175.3 -121.08,-315.85 -270.05,-315.85 -148.97,0 -270.05,142.66 -270.05,315.85z"/>
     <path class="fil42" d="M14217.35 14692.36c0,131.08 91.6,236.89 204.25,236.89 112.65,0 203.72,-105.28 203.72,-236.89 0,-131.61 -91.07,-236.89 -203.72,-236.89 -112.65,0 -204.25,105.81 -204.25,236.89z"/>
     <path class="fil43" d="M22015.71 14470.21c0,135.82 -94.23,245.84 -210.57,245.84 -116.34,0 -210.57,-110.02 -210.57,-245.84 0,-135.82 94.23,-246.36 210.57,-246.36 116.34,0 210.57,110.54 210.57,246.36z"/>
     <path class="fil44" d="M21594.58 14640.24c-12.42,77.91 -79.65,135.28 -158.57,135.28 -88.66,0 -160.56,-71.9 -160.56,-160.56 0,-88.66 71.9,-160.56 160.56,-160.56 0.2,0 0.43,0 0.63,0 89.69,8.21 158.36,83.45 158.36,173.52 0,4.11 -0.15,8.23 -0.43,12.32l0.01 0z"/>
     <path class="fil45" d="M11924.27 12817.25c0,16.85 -5.79,30.01 -12.63,28.95l-178.46 -22.11c-6.84,0 -12.11,-15.27 -12.11,-32.11l0 -71.59c0,-16.85 5.26,-29.48 12.11,-28.43l178.98 22.11c6.84,0 12.11,14.74 12.11,31.59l0 71.59z"/>
     <path class="fil46" d="M9305.88 14832.91c0,12.63 -4.21,22.11 -9.48,21.58l-132.66 -16.32c-5.26,0 -8.95,-11.58 -8.95,-23.69l0 -52.64c0,-12.63 4.21,-22.11 8.95,-21.58l133.18 16.85c4.74,0 8.95,11.05 8.95,23.69l0.01 52.11z"/>
     <path class="fil47" d="M8074.58 14594.97c0,10 -3.16,17.9 -7.37,17.37l-108.97 -10.53c-4.21,0 -7.37,-9.48 -7.37,-19.48l0 -43.69c0,-10.53 3.16,-17.9 7.37,-17.37l108.97 13.16c4.21,0 7.37,9.48 7.37,19.48l0 41.06z"/>
     <polygon class="fil0" points="15728.7,5616.39 20193.25,12768.82 21842.52,12705.65 17776.46,5680.61 "/>
     <polygon class="fil0" points="7004.9,9061.27 8202.5,10180.43 9713.85,9679.81 8199.34,8314.81 "/>
     <rect class="fil48" x="16475.17" y="13924.31" width="3349.07" height="1023.88"/>
     <path class="fil49" d="M13440.88 13255.76c-3.66,-22.82 -5.55,-45.92 -5.55,-69.03 0,-36.74 4.74,-73.37 14,-108.9 241.63,696.45 2162,1248.66 4396.12,1248.66 2123.05,0 3790.21,-499.57 3953.93,-1146.54 8.44,24.26 15.03,49.42 19.43,74.76 125.81,730.67 -1648.22,1323.94 -3961.3,1323.94 -2313.08,0 -4290.29,-591.69 -4416.63,-1322.89z"/>
     <path class="fil50" d="M16785.22 9900.91c-23.57,13.45 -44.32,31.34 -61.08,52.65 -15.94,30.58 -24.3,64.7 -24.3,99.23 0,1.99 0.03,4.09 0.08,6.06 -1.14,6.54 -1.73,13.22 -1.73,19.89 0,19.78 5.15,39.24 14.91,56.42 16.32,21.06 55.8,23.69 65.28,0 2.31,28.51 17.42,54.45 41.04,70.56 9.34,5.89 20.19,9.04 31.25,9.04 17.16,0 33.47,-7.55 44.56,-20.64 -1.61,7.93 -2.45,16.07 -2.45,24.17 0,19.25 4.65,38.24 13.51,55.33 15.79,22.64 56.33,27.37 67.91,2.63 5.26,28.43 15.79,62.64 43.69,69.49 2.75,0.41 5.55,0.63 8.34,0.63 17.44,0 33.87,-8.24 44.3,-22.21 11.83,-16.33 21.76,-34.04 29.47,-52.66 2.51,-5.38 6.31,-10.09 11.06,-13.68 3.25,-0.9 6.62,-1.36 10,-1.36 3.38,0 6.75,0.46 10,1.36 7.49,0.77 15.1,1.19 22.64,1.19 7.54,0 15.15,-0.42 22.63,-1.19 7.38,-0.29 14.44,-3.08 20.02,-7.89 2.83,-4.79 4.47,-10.23 4.73,-15.79 5.79,-77.38 -52.64,-141.08 -94.23,-210.57 -30.61,-55.28 -76.77,-100.52 -132.65,-130.03 -25.53,-18.55 -55.15,-30.86 -86.34,-35.79 -37.63,4.21 -73.33,19.23 -102.65,43.17l0.01 -0.01z"/>
     <path class="fil51" d="M15213.86 10337.83c-64.54,28.56 -112.89,84.63 -131.62,152.66 -2.14,9.56 -3.24,19.32 -3.24,29.11 0,61.64 42.65,115.13 102.74,128.82 0.35,-0.01 0.76,-0.01 1.1,-0.01 32.52,0 64.85,-5.19 95.76,-15.26 70.54,-15.27 148.98,-7.9 210.57,-46.85l19.48 27.9c3.91,0.53 7.89,0.79 11.86,0.79 30.84,0 59.56,-15.8 76.05,-41.85 20.53,-27.37 32.11,-61.06 52.64,-89.49 20.53,-28.43 48.43,-57.38 66.33,-90.54 11.46,-21.52 17.48,-45.6 17.48,-70.01 0,-55.95 -31.36,-107.22 -81.17,-132.67 -20.06,-7.79 -41.46,-11.82 -63.01,-11.82 -24.75,0 -49.23,5.3 -71.75,15.5 -48.96,20 -84.75,60.01 -131.08,81.59 -55.28,25.81 -117.39,32.13 -172.14,62.13z"/>
     <path class="fil52" d="M14604.27 9966.18c-11.58,57.38 -149.5,157.93 -105.28,200.57 -60.46,-14.64 -111.36,-55.36 -138.99,-111.07 -29.48,-61.06 23.69,-152.13 98.44,-301.11 47.97,-112.99 73.54,-234.64 74.8,-357.43l6.32 6.32c45.65,144.95 69.09,296.29 69.09,448.36 0,38.15 -1.45,76.31 -4.36,114.28l-0.02 0.08z"/>
     <path class="fil53" d="M14760.61 9061.27l181.61 565.37 293.22 -16.32c0,0 -204.25,-677.5 -210.57,-768.04 -6.32,-90.54 -280.05,-5.27 -264.26,218.99z"/>
     <path class="fil53" d="M15584.46 9560.31c36.99,2.28 74.42,3.72 111.64,3.72 65.81,0 132.24,-3.91 197.43,-11.52 -12.63,-190.56 -99.49,-368.49 -185.3,-538 -1.94,-4.98 -5.02,-9.34 -9.02,-12.72 -4.94,-2.84 -10.55,-4.33 -16.24,-4.33 -0.9,0 -1.82,0.04 -2.72,0.11l-81.59 0c-3.46,-0.45 -6.98,-0.69 -10.48,-0.69 -13.25,0 -26.31,3.33 -37.94,9.65 -31.59,20.53 13.69,205.3 17.37,246.89 8.95,100.01 14.74,203.71 16.85,306.89z"/>
    </g>
   </g>
  </g>
  <g id="_2330139199776">
   <path class="fil54" d="M17135.06 13601.22c57.69,-20.68 219.42,-86.89 294.96,-78.96 68.29,7.17 119.53,143.03 125.25,178.83 -59.64,36.58 -419.92,139.85 -487.34,158.52 95.54,7.61 420.68,-97.36 519.21,-56.43 27.15,11.27 27.27,10.6 42.49,31 10.26,13.75 25.43,27.58 36.17,37.3 26.61,24.03 62.69,42.12 107.85,47.53l-10.91 -14.86c-3.34,-3.5 -7.12,-6.11 -11.41,-10.22 -22.05,-21.18 -39.78,-44.13 -55.53,-74.02 -55.72,-105.8 -65.52,-240.36 -136.5,-338.98 -8.85,-12.29 -11.61,-13.44 -18.97,-26.25 18.97,-21.05 162.75,-112.23 205.09,-108.1 53.49,28.37 45.45,576.56 79.57,619.86 5.67,-112.91 -7.84,-588.46 -55.09,-674.51 -44.44,-0.34 -237.04,137.14 -267.38,162.75 0.52,0.97 1.47,1.27 1.76,2.78 0.28,1.51 1.38,2.18 1.77,2.75 2.15,3.09 3.38,4.77 5.56,7.74 26.42,36.01 45.52,76.76 62.84,118.75 13.27,32.17 44.97,116.37 47.75,151.7 -5.58,-10.29 -12.89,-17.52 -20.23,-32.25 -20.12,-40.39 -30.81,-83.2 -47.91,-124.91 -26.68,-65.1 -50.43,-100.25 -106.18,-127.59 5.02,-1.56 11.07,-1.39 12.7,-1.89 11.67,-3.57 69.97,-52.33 82.21,-61.31 30.94,-22.69 60.47,-43.88 93.36,-66.59 51.73,-35.71 146.16,-99.54 230.34,-96.21 81.83,3.25 201.25,25.03 281.79,40.76 65.83,12.87 128,27.68 190.08,51.64 19.49,7.52 38.19,18.45 53.7,24.28 -128.36,-47.57 -281.07,-74.61 -433.34,-89.97 -147.85,-14.92 -153,-15.02 -147.51,100.84 3.9,82.24 9.89,164.51 15.87,246.46 5.75,78.54 11.69,163.29 24.4,240.06 7.37,44.48 34.96,45.09 75.87,53.67 151.83,31.86 341.18,32.83 496.84,23.55 45.79,-2.73 78.22,-9.74 119.93,-15.19 4.65,46.86 20.71,72.88 -108.71,102.36 -70.05,15.95 -136.5,17.5 -210.29,14.3 -99.26,-4.31 -201.26,-12.86 -295.82,-40.71 -33.71,-9.93 -52.92,-20.59 -80.16,-31.71 -1.72,28.17 -5.22,78.26 12,94.11l0.32 -51.28c0.05,-0.32 -10.7,6.21 5,-13.84 0.62,1.03 1.24,1.51 1.43,3.32l7.84 66.21c54.29,15.57 114.53,36.56 177.74,34.78l-161.09 -41.91 -2.52 -51.54c45.58,5.22 94.91,20.83 139.15,30.34 27.69,5.95 46.77,2.85 58.07,24.1 7.28,13.67 15.67,46.5 30.11,54.23 81.84,20.06 261.82,15.99 334.63,-17.56l9.78 -59.8 77.37 -33.9c6.53,64.85 -24.62,58.05 -66.18,86.24 28.88,-1.53 48.33,-23.15 72.26,-32.72 -13.87,145.92 32.16,172.17 -276.97,188.56 -113.44,6.01 -228.18,3.64 -341.21,-7.6 -31.23,-3.1 -73.99,-12.27 -102.53,-12.56 -78.06,93.85 423.71,52.53 548.03,42.95 98.03,-7.56 189.51,-2.96 199.44,-107.95 6.1,-64.52 19.24,-239.33 -5.89,-288.73 -107.42,47.98 -465.69,23.31 -595.84,3.44 -72.55,-11.08 -77.9,-5.04 -87.22,-73.1 -6.58,-48.03 -11.88,-98.43 -16.89,-147.54 -9.86,-96.84 -21.1,-204.4 -20.58,-302.82 63.38,7.53 104.04,61.5 107.33,130.5l-31.76 -0.3c-8.82,-0.08 -16.44,3.01 -22.7,9.22 -6.25,6.22 -9.4,13.82 -9.38,22.64l0.37 131.91 22.52 0.37c28.39,0.46 52.99,-9.49 73.08,-29.56 20.09,-20.07 30.08,-44.66 29.65,-73.05 -0.71,-47.09 -4.81,-93.64 -19.6,-125.39 -14.81,-31.79 -34.17,-51.07 -57.89,-67.56 -11.3,-7.85 -24.31,-14.91 -39.62,-20.83l-37.11 -10.63c-9.61,-3.84 -5.44,-1.49 -10.79,-6.59 41.23,-32.86 134.77,-11.59 192.83,-2.73 115.87,17.69 257.68,40.88 363.61,86.46 33.63,14.47 40.21,23.98 55.06,57.19l23.19 63.24c9.46,20.98 -2.91,10.98 17.74,14.5 4.47,-7.71 4.53,-12.34 0.53,-28.14l-22.44 -80.84c44.22,13.61 66.97,65.97 68.2,124.92l-21.46 -0.1c-8.79,-0.04 -16.38,3.08 -22.6,9.29 -6.22,6.22 -9.35,13.8 -9.32,22.59l0.37 112.29 1.24 0.02c29.65,0.44 55.34,-10.34 75.79,-31.8 20.46,-21.47 29.98,-47.65 28.1,-77.24 -5.61,-88.28 -31.47,-175.71 -118.06,-197.53 -40.05,-10.09 -19.04,-6.19 -45.06,-24.19 -103.69,-71.76 -361.83,-128.32 -499.71,-144.2 -114.46,-13.17 -147.11,-10.71 -231.12,40.55 -58.79,35.88 -113.03,76.95 -169.86,115.47l-147.8 104.95c-27.88,21.16 -67.3,49.88 -102.1,68.35 -25,19.57 -124.88,59.35 -151.56,74.02z"/>
   <g>
    <path class="fil54" d="M17355.8 14396.85l0 0zm-401.09 -14.68l0 0zm0 0c17.17,11.5 22.91,37.02 27.86,56.52 1.77,6.96 5.85,15.41 6.38,21.75 -5.04,-0.43 -14.61,-3.79 -20.27,-5.41 -6.05,-1.74 -15.05,-5.46 -21.3,-5.6 1.72,7.39 10.21,20.08 14.48,25.87l23.13 28.23c5.99,6.78 24.76,21.46 13.28,29.81 -5.11,3.71 -6.6,4.36 -10.54,10.25 13.42,7.1 22.69,10.25 36.7,19.55 22.84,15.17 44.77,31.77 66.72,48.23l98.86 72.33c22.51,16.38 47.01,30.28 71.63,43.31l-10.31 14.15c-14.24,18.59 3.56,-2.9 79.62,35.16 34.44,17.23 68.23,36.6 106.29,45.34 9.9,2.27 19.21,2.85 29.12,5.12 9.92,2.27 15.1,6.1 25.5,7.51 36.62,4.96 76.71,-5.69 110.01,0.05 6.98,1.2 6.38,1.91 9.14,7.98 3.32,7.33 5.25,18.79 5.25,28.98 34.23,0 69.09,2.86 102.95,7.11l129.33 17.41c28.99,4 11.98,2.93 51.42,-18.4 8.55,-4.63 15.07,-8.07 24.47,-12.21 27.62,-12.17 139.37,-37.31 176.07,-46.49 56.61,-14.15 114.76,-28.42 168.41,-51.7 41.95,-18.21 82.91,-38.29 120.92,-63.73l44.17 -30.42c69.15,-51.59 93.74,-73.15 155.32,-139.37 2.14,-2.3 2.07,-2.61 3.81,-4.76 26.28,-32.54 53.23,-65.42 74.7,-101.38 18.55,-31.05 38.02,-62.25 52.29,-95.68l17.44 -37.58c33.45,-76.41 59.28,-164.75 67.18,-248.31 5.84,-61.83 0.32,-109.42 -14.82,-164.72 -2.57,-9.4 -5.86,-18.28 -8.56,-28.12l-9.53 -27.16c-3.24,-8.13 -4.86,-20.75 -12.23,-25.68 -0.25,11.44 -3.7,29.08 -3.67,45.24 0.09,37.86 3.93,112.66 -8.55,140.63 -12.22,27.36 -37.97,45.1 -60.62,62.89 -13.51,10.62 -28.74,21.68 -38.43,36.16 14.49,-1.21 29.56,-9.81 44.02,-11.01 0,37.62 -15.2,38.65 -22.1,72.06 -0.77,3.73 -2.02,7.07 -2.36,11.09 -11.77,-0.98 -32.45,-15.36 -45.24,-18.34 0.47,21.35 18.22,37.08 -23.41,68.3l-19.39 14.85c2.78,5.26 5.42,9.62 8.17,15.07 9.77,19.39 9.59,19.56 -5.2,30.7 -5.16,3.89 -9.06,6.37 -14.46,10 -31.52,21.21 -52.77,8.64 -69.62,14.75 -2.4,0.88 -5.68,3.59 -6.93,5.3 5.68,1.32 11.24,4.1 16.7,6.53 5.61,2.5 11.39,4.32 16.31,6.92 -6.73,10.05 -17.98,23.56 -26.58,32.12 -10.46,10.4 -20.1,20.51 -32.1,29.03 -9.7,6.89 -18.98,7.82 -28.14,12.22 -0.3,-13.69 -3.77,-29.27 -4.89,-42.8 -10.45,12.02 -9.6,35.63 -14.51,50.3 -1.77,5.29 -5.15,10.89 -6.28,15.73 -10,-5.29 -19.06,-11.99 -30.57,-14.67 -8.32,5.57 -17.95,22.02 -24.81,30.21 -4.19,4.99 -9.16,8.68 -14.55,12.36 -4.35,2.97 -12.94,8.81 -18.11,10.01 0,-17.41 1.22,-31.38 1.22,-47.69 -8.16,0.18 -19.27,8.09 -24.65,12.04 -8.09,5.93 -13.04,11.06 -19.68,18.22 -45.75,49.34 3.82,77.07 -13.52,113.65 -2.6,5.49 -3.19,7.09 -7.23,11.11l-20.15 17.78c-6.82,6.32 -5.36,2.06 -15.04,2.06 -0.39,-4.65 -1.18,-4.48 -3.85,-7.15 -2.68,-2.67 -2.51,-3.46 -7.16,-3.85 -1.81,6.77 -17.59,26.56 -23.77,30.03 -9.91,5.57 -36.41,-1.91 -48.37,-1.91 -9.32,13.91 -18.51,26.25 -32.52,35.97 -14.27,9.89 -29.35,16.2 -48.66,21.03 -14.76,3.69 -29.08,4.96 -44.42,6.94 -19.7,2.55 -62.98,4.04 -82.32,4.51 -41.39,1 -78.48,22.73 -119.81,6.16 -24.81,-9.95 -48.22,-21.38 -74.56,-28.16 -9.5,-2.45 -19.63,-3.82 -29.37,-6.09 -4.24,6.32 -7.79,13.44 -9.78,22.01 -15.7,-3.66 -55.44,-26.85 -70.55,-35.84 -27.74,-16.52 -52.79,-34.66 -77.05,-55.01l-27.6 -26.21c-13.33,-13.85 -24.94,-28.55 -32.35,-47.14 -2.74,-6.89 -4.17,-13 -6.95,-19.95 -2.78,-6.93 -5.61,-12.13 -9.28,-17.62l-25.68 0c0,21.77 -1.91,10.65 7.34,24.46 -34,0 -53.03,-18.08 -64.48,-46.81 -9.72,-24.41 -11.67,-64.47 -46.8,-64.47 0,6.93 -0.89,14.27 1.55,19.24 2.5,5.08 5.52,7.38 7.01,13.78 -16.85,-11.29 -11.15,-17.66 -48.1,-36.28 -25.38,-12.8 -50.8,-20.93 -67.36,-45.13 -2.68,-3.91 -8.21,-14.32 -9.27,-18.86 6.58,4.4 12.71,9.43 19.93,13.08 10.33,5.21 15.78,4.04 30.21,4.04 -1.58,-4.37 -19.32,-13.13 -23.23,-15.9 -30.4,-21.55 -56.01,-49.96 -76.8,-80.95l-14.52 -24.61c-25.72,-51.46 -52.85,-117.3 -64.1,-173.13 -3.92,-19.46 -8.57,-48.02 -8.45,-71.03 0.03,-6.33 0.52,-13.03 -0.33,-19.24 -1.66,-12.08 1.32,-80.47 3.11,-94.16 4.49,-34.21 8.83,-69.52 15.86,-102.75 4.47,-21.12 10.94,-41.79 17.58,-61.91 12.58,-38.06 31.45,-64.47 36.94,-81.71 4.38,-13.77 -4.48,-2.6 8.37,-28.28l40.35 -78.26c4.52,-9.04 8.63,-18.72 13.84,-26.51 5.43,-8.11 10.27,-14.94 16.27,-22.86 4.94,-6.53 11.87,-17.76 11.87,-28.49 -4.2,2.23 -8,4.39 -12.61,6.95 -4.62,2.57 -7.56,5.22 -13.07,6.5 0.92,-11.07 39.11,-75.23 48.99,-76.96 10.34,-1.81 30.01,1.15 41.5,1.15 0.24,-10.83 5.49,-22.42 4.87,-34.14 -0.21,-3.98 -1.6,-13.88 -2.09,-17.55 -0.83,-6.22 -0.33,-12.9 -0.33,-19.24l17.12 -8.55c5.64,-3.05 10.98,-6.73 16.24,-10.67 24.28,-18.17 38.53,-33.64 57.12,-48.04 8.43,-6.53 21.37,-18.06 33.02,-20.78 -6.94,13.13 -11,23.05 -11,39.13 43.98,-29.45 31.51,-70.47 78.76,-89.98 13.81,-5.7 27.21,-10.15 39.79,-17.69 52.44,-31.44 94.03,-57.56 154.13,-73.32 30.87,-8.09 62.51,-13.14 94.86,-17.63 64.81,-9 148.9,-4.7 213.83,4.89 25.55,3.77 49.72,7.7 75.25,9.12 5.61,0.31 6.75,1.17 13.49,1.19 6.75,0.02 8.15,1.1 13.45,1.22 -1.78,-6.66 -13.36,-10.28 -17.12,-15.9 54.75,0 185.97,71.35 239.92,103.7 49.32,29.57 59.08,36.69 102.3,68.89 11.03,8.22 21.1,17.13 32.13,25.34l47.81 37.8c27.77,22.72 124.01,100.9 146.45,112.78 -1.93,-8.3 -9.84,-22.6 -14.15,-29.87 -16.42,-27.68 -33.64,-53.81 -51.65,-80.41 -6.12,-9.04 -11.71,-17.05 -18.24,-25.79 -6.53,-8.75 -12.02,-16.9 -18.5,-25.52 -3.32,-4.42 -5.98,-7.97 -9.43,-12.57l-29.69 -37.57c-11.3,-14.07 -29.83,-32.39 -42.67,-45.38 -22.41,-22.66 -48.74,-40.94 -75.89,-57.39 -28.31,-17.15 -70.06,-22.02 -94.66,-38.64 -27.96,-18.88 -21.95,-15.63 -55.59,-32.44 -18.7,-9.35 -40.6,-19.44 -55.13,-34.14 -26.15,-26.46 -50.72,-37.02 -87.62,-44.45 -34.65,-6.98 -68.99,-6.43 -104.67,-6.63l-103.23 8.04c-17.36,2.41 -98.57,11.66 -120.53,11.55 -7.34,-0.04 -14.74,0.12 -22.06,0.04 -7.81,-0.1 -13.82,-2.35 -20.74,-2.5 0,-6.45 -1.97,-11.36 -2.45,-17.12 27.91,-18.68 86.86,-19.11 122.46,-23.05l23.06 -1.4c5.82,-0.15 6.54,-0.78 11.13,-1.1 6.66,-0.45 6.67,1.5 9.66,-2.57 -12.32,0 -27.58,-4.91 -39.24,-7.24 -12.45,-2.48 -25.84,-7.44 -39.03,-7.44l63.78 -5.92c14.47,-2.46 26.41,-5.53 37.74,-13.62 3.41,-2.43 7.32,-5.23 8.54,-9.8 -10.31,-0.86 -20.71,-3.61 -32.84,-2.27 -118.27,13.01 -256.27,22.31 -363.36,71.97l-11.82 6.52c-11.77,6.26 -22.57,13.72 -31.9,23.13 -5.26,5.31 -15.51,12.27 -16.19,20.48l30.08 -6.59c29.37,-7.3 56.35,-19.69 85,-28.73 10.03,-3.16 18.86,-5.49 29.69,-8.22 29.34,-7.38 75.49,-9 97.34,5.63 -3.17,4.75 -8.68,5.94 -14.27,8.97 -15.51,8.42 -31.35,15.12 -47.91,21.78 -21.96,8.84 -46.28,16.63 -69.73,24.44 -23.66,7.88 -46.25,15.59 -69.33,24.82 -11.23,4.49 -22.12,9.1 -32.3,14.17l-32.2 15.49c-20.78,11.63 -39.66,22.28 -59.29,34.86 -38.02,24.38 -73.66,51.18 -107.57,80.75 -2.37,2.06 -50.83,40.86 -55.3,36.41 -1.67,-3.47 -1.73,-11.85 -2.75,-16.82 -1.01,-4.94 -3.55,-9.48 -5.81,-13.75 -6.15,1.64 -13.36,10.99 -15.21,17.84 -2.35,8.68 2.65,19.84 4.65,26.96 2.68,9.52 1.99,19.03 -2.05,26.97 -1.64,3.24 -4.66,7.64 -6.77,10.34 -1.33,1.7 -2.58,3.31 -3.78,4.79 -2.47,3.05 -0.46,2.38 -4.97,3.59 -1.49,-5.61 -17.53,-20.99 -22.2,-26.71 -3.73,-4.58 -6.81,-9.12 -10.47,-13.99 -3.7,-4.94 -6.52,-9.88 -11.35,-13.11 0,19.28 9.46,39.88 3.22,55.8 -11.03,28.12 -55.05,42.18 -75.35,88.52 -2.71,6.19 -4.77,13.69 -8.81,19.31 -0.87,1.2 -1.53,1.9 -2.21,2.68 -8.06,-34.61 13.64,-37.6 17.29,-60.98 0.75,-4.82 -0.17,-3.56 -0.17,-9.95 -24.28,0.54 -27.68,38.83 -31.86,56.19 -1.5,6.2 -6.79,16.22 -7.27,22.07 -6.28,-4.6 -4.2,-29.33 -15.9,-37.9 -14.33,10.49 2.71,33.76 -31.94,59.76 -14.66,11 -46.93,18.68 -52.43,39.29 11.42,2.66 21.41,8.3 33.01,11 0,42.01 -9.36,37.64 -31.27,42.1 -3.77,0.77 -5.41,1.62 -9.08,1.92 3.24,12.16 18.79,22.89 17.11,45.16 -0.49,6.52 -3.15,12.34 -3.66,18.43 -10.48,-7.68 -3.58,-32.5 -26.9,-33.02l-8.42 25.83c-2.95,10.15 -4.62,16.22 -9.11,25.13 -13.04,25.85 -14.27,20.93 -14.27,55.43 7.42,3.56 19.49,5 26.91,8.56 -2.42,10.38 -9.81,18.97 -12.23,29.35 -12.35,0 -55.26,-14.59 -62.37,-19.56 -19.71,-13.77 11.01,-179.73 11.01,-222.56l-2.45 0c0,10.13 -3.35,18.61 -5.62,28.61 -5.42,23.81 -26.12,117.64 -35.98,135.21 -2.54,4.53 -29.97,33.14 -34.21,34.28 0,-14.23 -2.45,-26.15 -2.45,-39.14 -5.33,3.91 -17.69,43.36 -19.31,49.17 -16.79,60.26 -22.02,122.06 -18.59,185.61 0.29,5.37 -0.01,11.69 -0.03,17.15 -0.09,20.28 8.16,92.76 10.86,108.98 14.05,84.43 27.61,93.99 30.74,107.44 4.33,-3.17 4.32,-13.66 5.4,-19.06 1.02,-5.09 2.81,-16.8 4.38,-20.07 4.19,3.06 7.6,13.87 8.34,19.89 1.97,16.05 -13.86,25.5 -18.18,38.75 -1.67,5.11 5.99,13.69 9.14,17.87 18.72,24.84 38.89,21.19 63.06,37.22 10.57,7.01 13.81,43.63 15.9,56.24 5.47,32.9 20.79,120.73 20.79,152.85 8.68,-2.02 19.95,-11.54 28.13,-12.23 2.32,27.86 29.45,46.17 47.39,63.89 7.68,7.57 9.94,13.43 14.97,22.94 -16.42,-3.83 -23.22,-20.49 -38.38,-26.43 -6.32,-2.48 -10.68,-2.92 -19.09,-2.92 0,25.2 10.92,40.84 22.99,58.94l9.7 14.76c1.74,2.56 0.33,0.71 1.55,2.11 -0.36,-16.29 -10.64,-34.75 -11.01,-51.36z"/>
    <path class="fil54" d="M18858.54 13792.91l0.61 -1.64c-0.3,0.39 -0.49,0.87 -0.61,1.64zm-26.37 24.53l-0.96 -1.56 0.96 0.21 0 1.35z"/>
   </g>
  </g>
 </g>
</svg>
