<?xml version="1.0" encoding="UTF-8"?>
<!DOCTYPE svg PUBLIC "-//W3C//DTD SVG 1.1//EN" "http://www.w3.org/Graphics/SVG/1.1/DTD/svg11.dtd">
<!-- Creator: CorelDRAW 2019 (64-Bit) -->
<svg xmlns="http://www.w3.org/2000/svg" xml:space="preserve" width="2550px" height="3300px" version="1.1" style="shape-rendering:geometricPrecision; text-rendering:geometricPrecision; image-rendering:optimizeQuality; fill-rule:evenodd; clip-rule:evenodd"
viewBox="0 0 25500 33000"
 xmlns:xlink="http://www.w3.org/1999/xlink">
 <defs>
  <style type="text/css">
   <![CDATA[
    .fil2 {fill:#FEFEFE}
    .fil0 {fill:black}
    .fil1 {fill:#FEFEFE}
   ]]>
  </style>
 </defs>
 <g id="Capa_x0020_1">
  <metadata id="CorelCorpID_0Corel-Layer"/>
  <g id="_2229360833952">
   <path class="fil0" d="M6164.5 13206c53.2,217.5 27,131.3 173.3,275.8l1230.3 1399.3c2779.1,3796.8 -378.8,4484.1 -1228,3810.3 -359.2,-285.1 -459.9,-430.2 -749.2,-748.7 -399.4,-439.8 -923,-1194.6 -1239.6,-1805 -371.3,-715.9 -744.1,-1383 -521.9,-2381.1 170,-763.5 610.2,-1578.7 1331.7,-1712.5 701.8,-130.1 1600.3,857.4 1887.5,1128.9l-134.4 664.8c-261.7,-188.1 -385.8,-539.5 -749.7,-631.8zm700.4 -5524.1c1214.3,-175.5 1759.5,1279 2000.8,2337.4 127.1,557.2 257.3,1372.1 251.5,1963.4 -6.1,631.4 -558.6,959.7 -1150.1,1062.7 -473.5,82.4 -615.2,65 -881.1,-210.3 -1162.8,-1204.2 -2408.4,-4837.2 -221.1,-5153.2zm1382.7 -762.8c-521.4,-257.2 -1387,-2876.6 -1159.7,-3893.5 100.4,-449 317.3,-908.2 796.7,-903.3 384,3.9 1007.7,355.5 1134.6,575.6 127.5,221 -135.4,1107.1 -193,1397.1 -97.1,488.9 -438.4,2543.9 -578.6,2824.1zm11502.9 7025.3c27.5,-550.4 285,-1550.7 400.9,-2137.9 241.8,-1225.8 1654.1,-7997.7 1596.7,-8473.5 -92.5,-766.2 -641.6,-1018.2 -1372.1,-1158.3 -700.5,-134.3 -1411.5,-270.6 -2111.2,-407.6 -231.2,-45.3 -521.5,-154 -775.4,-135.7 -284.8,20.5 -25,25.8 -344.3,-85.8 -420.5,-147 -473.2,-104.3 -734.3,-10.4 -135.8,-258.3 -730.1,-295.9 -1033,-318.2 -219.3,-16.1 -261.7,-77 -524.2,-124.8 -173.4,-31.7 -452.7,-40.5 -530.5,-62.4 -667.3,-187.9 -1458.3,-321.3 -2234.9,-479.3 -787.1,-160.1 -1605.8,-454.3 -2258.9,6.5 -507.7,358.2 -541,1255.8 -709.5,2028.6 -302.1,-195 -1253.3,-1014 -1808.9,-366.5 -842.4,981.8 -150.8,2947.9 301.8,3996.1 383.4,888.2 675.4,656.9 561.7,1197.8 -39.4,187.8 -72,344.8 -102.9,532.4 -490.7,-308.7 -968.8,-636.5 -1731,-245.9 -557.4,285.6 -827.3,726.8 -789.6,1549.1 62.9,1370.4 575.5,2591.5 1188.6,3438.7 -2112,-2161 -3472.3,776.5 -3033.8,2286 240.5,828 816.8,1778.2 1250.2,2365.1 887.8,1202.1 1086.9,981 956.3,1599.8 -25.5,120.8 -186.1,580.2 -78.6,684.8 254.9,248.4 8179.1,1435.3 8539.6,1745.5 -152.1,141.5 -296.8,51.6 -537.9,1 -195.8,-41.2 -382.5,-78 -568,-114.1 -355,-69.2 -708.6,-137.2 -1075.2,-209.8 -729.8,-144.6 -1423,-278.6 -2160.4,-424.9 -719.3,-142.6 -3797.9,-823.3 -4289.1,-819.2 -76.2,396.5 -223.5,872.3 -128.6,1267.5 114.5,477.3 325.5,543.4 600.6,824.6 -127.8,911.1 -114.6,2044.5 -73,2990.2 42.8,970.8 279.1,2139.3 149.6,2747.2 -181.2,851 -377.5,1686.9 -565,2526.9 -82.7,370.7 -623.4,2258.4 -524.1,2475.9 182.3,-111.8 300.6,-959.9 354,-1196.4 94.9,-420.3 195,-829.2 295.4,-1256.8 193.7,-825.2 379.5,-1654.6 555.4,-2484.5 144.1,-680.2 54.2,-711.1 -23.8,-1363.4 -171.1,-1431.6 -195,-2922.9 -55,-4355.7l7160.9 1465.1c-54.8,369.5 -717.1,1817 -595.8,2051.6 121.5,-87.5 98.5,-107.6 155.4,-295.6 325.8,-1076.2 773.7,-2461.3 1263.3,-3433.2 266.8,-529.7 255.6,-656.9 809.8,-895.4 785.7,-338.3 1691.4,-656.3 2518.5,-939.3 791.7,-270.9 818.5,-74 817.8,-875.4 -0.4,-538.3 52,-1187.3 21.8,-1703.6 -799.3,-689 -1215.8,-896.1 -1888.5,-1737.1 -155.6,-194.6 -327.5,-444.2 -471.3,-714.1 -276,-518 -468.8,-1268.9 -350.7,-1947.7 141.4,-812 421.1,-1081 832.3,-1528.6 256.6,102.9 956.5,825.9 1225.4,1044.1l2132.2 1844.6c119.5,95.2 177.6,175.5 293.2,272.4l2354.2 2136.1c258.9,262.7 147.8,483.7 59.3,906.7 -311.8,1489.6 -709.7,3021.6 -1175.4,4449.2 -653.2,2002.6 -1145.9,1799.4 -2449.3,3228.4l-3569 3195.2c-192.1,169.1 -442.7,309.2 -525,559 -173.3,525.7 -314.4,1265 -452.8,1818.4 -51.2,204.9 -481.6,1552.7 -362.4,1760.7 58,-55.9 26,-11.6 69.4,-93.4 134.9,-254.4 682.3,-2684.9 752.2,-2965.8 204.5,-821.8 283.8,-655.1 777,-1130.9l3532 -3179.8c185.2,-160.5 286.9,-302.7 462.5,-465.1 752.2,-696.1 1337.7,-1145.8 1695.5,-2124.9 530.5,-1452.1 905.7,-2962.1 1253.7,-4478.2 136.3,-593.4 366.2,-1164.3 63.6,-1504.5 -826.3,-928.9 -2233.6,-1967.5 -2987.4,-2751.5z"/>
   <path class="fil1" d="M6164.5 13206c363.9,92.3 488,443.7 749.7,631.8l134.4 -664.8c-287.2,-271.5 -1185.7,-1259 -1887.5,-1128.9 -721.5,133.8 -1161.7,949 -1331.7,1712.5 -222.2,998.1 150.6,1665.2 521.9,2381.1 316.6,610.4 840.2,1365.2 1239.6,1805 289.3,318.5 390,463.6 749.2,748.7 849.2,673.8 4007.1,-13.5 1228,-3810.3l-1230.3 -1399.3c-146.3,-144.5 -120.1,-58.3 -173.3,-275.8z"/>
   <path class="fil1" d="M6864.9 7681.9c-2187.3,316 -941.7,3949 221.1,5153.2 265.9,275.3 407.6,292.7 881.1,210.3 591.5,-103 1144,-431.3 1150.1,-1062.7 5.8,-591.3 -124.4,-1406.2 -251.5,-1963.4 -241.3,-1058.4 -786.5,-2512.9 -2000.8,-2337.4z"/>
   <path class="fil1" d="M8247.6 6919.1c140.2,-280.2 481.5,-2335.2 578.6,-2824.1 57.6,-290 320.5,-1176.1 193,-1397.1 -126.9,-220.1 -750.6,-571.7 -1134.6,-575.6 -479.4,-4.9 -696.3,454.3 -796.7,903.3 -227.3,1016.9 638.3,3636.3 1159.7,3893.5z"/>
  </g>
  <g id="_2229360826240">
   <path class="fil2" d="M13546.3 5966.2c116.1,-8.9 445.8,-49.1 580.2,3.4 121.6,47.4 147.3,322.1 139.8,390.6 -127.7,37.1 -839.8,45.5 -972.7,45.9 171.2,61.9 819.8,32.7 979.9,157.2 44.1,34.3 44.6,33.1 62.3,78.1 11.9,30.4 32.7,63.4 47.6,86.5 36.7,57.5 93.7,108.7 173.8,141.3l-12.6 -32.7c-4.3,-8.1 -10,-14.8 -15.8,-24.5 -29.7,-49.8 -50.7,-100.8 -64.6,-163.5 -49,-221.9 0.6,-473.4 -80,-689.8 -10,-27 -14.5,-30.5 -21.6,-57.6 45.3,-29.1 354.6,-124 430.2,-95.2 83.8,78.8 -206.2,1079.5 -165.4,1176 67.1,-204.1 281.1,-1082.4 237.7,-1263.9 -81.3,-22.9 -503.3,132.4 -571.8,164.1 0.5,2 2.1,3.1 1.8,6 -0.2,2.9 1.5,4.7 1.9,5.9 2.4,6.7 3.8,10.4 6.3,17 30.4,79.2 44.9,163.5 55.6,249.2 8.2,65.6 24,235.8 11.3,302 -5,-21.7 -14.8,-38.6 -20.8,-69.3 -16.6,-84.1 -14.8,-167.9 -25.2,-253 -16.2,-132.7 -42.1,-209 -130.5,-287.1 10,-0.4 21,3 24.2,2.9 23.2,-0.7 154.5,-60.8 181.5,-71.1 68.1,-26.1 132.8,-50.1 204.5,-75.2 112.7,-39.5 317.8,-109.1 470.4,-60.7 148.4,47 356.3,146.9 496,216.2 114.2,56.6 220.7,114.9 322.5,190 31.9,23.6 60.7,53 86.2,71.5 -211.4,-151.7 -477.7,-277.9 -749,-382.5 -263.5,-101.5 -272.9,-104.3 -321,110.8 -34.1,152.7 -64.5,306.5 -94.6,459.7 -28.9,146.8 -60.6,305.1 -75.8,452.2 -8.8,85.2 41.4,100.2 112.1,136.5 262.3,134.6 608.8,231.4 898.8,292.5 85.3,18 148.2,21.4 227.4,32.4 -15,88.2 1.4,143.9 -250.6,133 -136.4,-5.9 -259,-36.4 -392.6,-79.4 -179.8,-57.7 -362.4,-124.5 -521.7,-223 -56.8,-35.2 -86.7,-64.3 -131,-98.4 -17.3,50.8 -48.9,140.8 -25.3,178.5l26.4 -93.8c0.2,-0.6 -22.8,6 16.1,-22.9 0.6,2.2 1.5,3.4 0.9,6.8l-18.8 125.3c91.6,55.8 191.5,124.5 308.3,153l-274.2 -157.7 21.2 -95.7c80.9,32.4 163.5,85.8 239.8,125.4 47.7,24.8 84.3,28.7 94.3,73.4 6.5,28.7 5.4,93 28,114.4 139.9,77.9 471.8,160.8 622.1,135.9l47.9 -104.7 158.9 -23.3c-20.6,122.1 -74.3,94 -164.6,124.8 53.7,11.7 100.2,-18.2 148.8,-23.7 -98.6,260.5 -27.5,331.7 -602.2,206.6 -211,-46 -420.1,-107.9 -621.6,-185.2 -55.7,-21.4 -129.4,-59.7 -181.6,-74.5 -190.2,132.8 750.2,308.9 982.9,353.8 183.4,35.3 348.8,89.7 419.7,-97.8 43.5,-115.2 155.4,-428.9 134.1,-532.1 -220.9,34 -865.2,-191 -1093.7,-292.8 -127.4,-56.7 -140.3,-48.3 -123.2,-177.7 12,-91.4 27.6,-186.4 43.1,-278.9 30.5,-182.4 63.9,-385.2 114.3,-565.3 112.4,45.6 159.8,164.9 131.2,293l-58.1 -16.5c-16.1,-4.6 -31.6,-2.7 -46.2,5.5 -14.6,8.3 -24.2,20.6 -28.6,36.8l-65.5 242 41.1 11.9c51.8,15.1 101.9,9.2 148.8,-17.5 46.9,-26.6 77.5,-66.7 91,-118.9 22.3,-86.7 38.2,-174.1 27,-239.7 -11.2,-65.7 -37,-110.8 -72.2,-152.9 -16.7,-20 -37.1,-39.5 -62.1,-58.1l-62.7 -38.1c-15.7,-11.8 -9.2,-5.4 -16.5,-17.5 92.1,-39.5 252.8,46.4 354.8,91.8 203.5,90.6 451.7,204.3 623,341 54.4,43.4 61.7,64.1 72.2,132.5l10.8 127.5c6.8,43.2 -10.9,18.7 25.2,35.5 12.1,-11.9 14.5,-20.4 15.1,-51.3l-0.5 -159.4c74.2,47.1 89.6,154.5 62.2,263.2l-39.2 -11c-16.1,-4.5 -31.6,-2.6 -46.1,5.7 -14.6,8.3 -24.1,20.6 -28.5,36.7l-55.6 206 2.2 0.6c54.2,15.7 106.6,8.9 154.9,-20.2 48.3,-29.1 78.9,-72.3 90.3,-127.5 34,-164.6 30.5,-337.8 -117.3,-421.3 -68.3,-38.5 -31.8,-20.8 -70.4,-66.9 -154,-183.6 -598.7,-416.8 -843.5,-515.1 -203.1,-81.6 -264.2,-93.5 -443.9,-41.7 -125.8,36.2 -245.8,84.3 -369.3,126.4l-323.5 118.1c-61.8,24.8 -148.4,57.7 -221.5,74 -55.6,23.4 -258.6,46.1 -314.9,59.6z"/>
   <g>
    <path class="fil2" d="M13551.5 7535.2l0 0zm-727.7 -228.2l0 0zm0 0c25.7,29.7 23.4,79.3 22.6,117.6 -0.2,13.6 3,31.1 0.8,43 -9,-3.3 -24.9,-14.3 -34.4,-20.1 -10.2,-6.2 -24.9,-17.5 -36.2,-20.9 -0.6,14.4 8.6,41.9 13.5,54.7l28.2 63.3c7.6,15.4 34.6,51.8 9.4,61.3 -11.2,4.2 -14.3,4.7 -24.5,13.5 21.1,19.8 36.5,30.2 57.5,54.3 34.2,39.2 66.1,80.7 98.1,121.8l144.9 182.2c33,41.4 70.9,79.1 109.5,115.4l-26 20.7c-35.4,27 8,-3.5 128.3,104.4 54.4,48.9 106.6,101.4 172,136.5 17,9.1 33.8,14.9 50.8,24 17,9.1 24.6,18.7 43,26.5 64.6,27.5 143.4,28.1 201.6,55.3 12.2,5.8 10.7,6.8 12.7,19.3 2.4,15.1 0.2,37 -4.9,55.7 62.7,17.2 125.2,39.9 185.1,64.7l228.3 96.9c51.1,21.8 20.5,11.3 103.5,-8 18,-4.1 31.6,-7.2 51,-10.1 56.7,-8.4 274.1,1.6 346,3.2 110.8,2.5 224.6,5.5 334.6,-10.2 86,-12.3 171.2,-28.6 253.6,-56.1l96.2 -33.6c152.7,-59.8 208.5,-87 354.6,-177.5 5.1,-3.1 5.1,-3.7 9.4,-6.8 64.5,-46.4 130.4,-93.1 187.8,-148.3 49.6,-47.6 100.9,-95 143.9,-149.1l50.8 -60.1c99.6,-123.3 191.3,-272.2 247.8,-421.4 41.7,-110.4 55.5,-200.3 55.5,-309.3 0,-18.5 -1.6,-36.5 -1.6,-55.8l-3.8 -54.6c-1.9,-16.5 1.5,-40.5 -9.5,-53.2 -6.2,20.8 -21.4,51.4 -29.5,81.1 -18.8,69.4 -49.3,208.4 -86.2,253.4 -36.2,44 -92.3,63.6 -142.7,84.9 -30.1,12.6 -63.6,25.3 -88.6,46.9 27.2,5.1 59.1,-3.1 86.2,1.9 -18.9,69 -47.3,63.2 -76.7,121 -3.2,6.5 -7.2,12 -9.9,19.2 -21,-7.7 -51.7,-44.5 -73.7,-56.4 -9.8,39.4 14.8,77.1 -77.2,113.5l-43 17.4c2.5,11.1 5.2,20.4 7.5,31.8 8.1,40.4 7.7,40.6 -25,53.6 -11.4,4.6 -19.8,7.2 -31.5,11.1 -68.4,23 -101,-10.7 -135,-7.9 -4.8,0.4 -12.2,3.7 -15.4,6.2 9.8,5.3 18.6,13.2 27.4,20.4 9,7.4 18.7,13.6 26.4,20.8 -17.4,15.1 -44.8,34.2 -64.8,45.6 -24.4,13.8 -47.2,27.5 -73.5,37.1 -21.2,7.7 -38.7,4.8 -57.7,8.2 6.4,-25.2 7.8,-55.5 12.6,-80.9 -25.2,16.8 -35.5,60.5 -51.9,84.9 -5.9,8.8 -14.9,17.4 -19.4,25.7 -15.7,-14.7 -28.9,-31.5 -48.6,-42.2 -18.1,6 -44,31.3 -60.7,42.9 -10.2,7 -21.1,11.3 -32.9,15.3 -9.4,3.3 -28.1,9.7 -38.2,9.3 8.8,-31.9 18,-56.9 26.2,-86.8 -15,-3.8 -39.4,5.2 -51.2,9.7 -17.8,6.8 -29.5,13.7 -45.2,23.5 -108.7,67.5 -31.7,143.2 -81.9,201.5 -7.5,8.8 -9.4,11.4 -18.8,16.8l-45.8 22.4c-15.7,8.2 -10.9,1.1 -28.6,-3.7 1.6,-8.8 0,-8.8 -3.5,-15.1 -3.6,-6.2 -2.9,-7.6 -11.2,-10.6 -6.7,11.5 -45.6,39.8 -58.6,43.1 -21,5.2 -65.8,-21.8 -87.7,-27.8 -24.1,20.8 -47.1,38.8 -77.7,49.6 -31.1,11 -61.9,15 -99.7,14.1 -28.9,-0.6 -55.8,-5.5 -84.9,-9.6 -37.4,-5.2 -117.5,-24.2 -153.2,-33 -76.3,-19 -155.2,2.2 -222.6,-48.9 -40.5,-30.6 -77.7,-63.4 -122.5,-89 -16.2,-9.3 -34.1,-16.9 -50.8,-25.9 -11,9.5 -21,20.7 -29,35.4 -26.9,-14.6 -88.1,-77 -111.3,-101.1 -42.5,-44.2 -79.4,-90 -113.6,-139.5l-37.4 -61.9c-17.5,-32 -31.4,-64.8 -35.7,-102.6 -1.5,-14 -1.1,-25.9 -2.7,-40 -1.6,-14.2 -4.2,-25.1 -8.1,-37l-47.1 -12.9c-10.9,39.9 -8.8,18.6 1.2,48.5 -62.3,-17 -88.1,-59.7 -94.7,-118.1 -5.6,-49.7 11,-124.1 -53.4,-141.7 -3.5,12.7 -8.8,25.7 -6.8,36 2,10.6 6.4,16.3 5.9,28.8 -25.2,-29.1 -11.6,-37.9 -69.9,-90.6 -40.1,-36.2 -82.6,-63.9 -100.9,-116.5 -2.9,-8.5 -7.8,-30.4 -7.5,-39.3 9.9,11.4 18.6,23.7 30,34 16.3,14.8 26.9,15.3 53.3,22.6 -0.7,-8.8 -28.8,-33.8 -34.6,-40.8 -44.9,-54.8 -77.6,-119.7 -100.1,-186.9l-14.3 -52.4c-21.3,-107.2 -37.9,-241.5 -30.5,-349.5 2.5,-37.6 8.4,-92.3 20.1,-134.4 3.3,-11.6 7.5,-23.6 9.1,-35.4 3,-23 42.8,-146.9 53,-171 25.4,-60.5 51,-123 80.6,-180.4 18.8,-36.5 41,-71.1 63.3,-104.6 42.1,-63.5 90,-102.4 108.7,-131.3 14.9,-23 -6.9,-7 29.5,-47.6l113.3 -123.2c12.8,-14.3 25.2,-29.9 38.7,-41.6 14,-12.2 26.3,-22.2 41.2,-33.7 12.4,-9.5 30.7,-26.6 36.1,-46.3 -8.8,2 -16.9,4 -26.6,6.4 -9.7,2.4 -16.5,5.8 -27.2,5.4 7.2,-19.9 109.4,-118.3 128.4,-116.5 19.9,1.9 54.4,17.2 75.5,22.9 5.9,-19.7 21.3,-38.3 26,-60.1 1.7,-7.4 4.1,-26.2 5,-33.2 1.6,-11.8 5.9,-23.8 9.1,-35.4l35.6 -7.1c11.9,-2.8 23.5,-6.8 35.2,-11.4 53.6,-21.1 87.5,-42.3 128.8,-59.4 18.7,-7.7 48.2,-22.4 70.9,-21.5 -19.3,20.6 -31.7,36.7 -39.8,66.2 95.4,-31.9 93.1,-113.3 189.5,-125.4 28.2,-3.5 55,-4.9 81.8,-12.4 111.9,-31.3 201.3,-58.3 319.3,-57 60.7,0.6 121.2,7.3 182.7,15.3 123.3,16 275.3,66.1 389.5,116.3 44.9,19.7 87.2,39 133.3,54.5 10.1,3.3 11.8,5.5 24.1,8.9 12.4,3.4 14.4,6.1 24.1,9 0,-13.1 -19.4,-25.6 -23.4,-37.7 100.3,27.4 305,224.1 387.6,310.4 75.6,79 89.9,96.9 153,177.6 16,20.6 30,42 46.1,62.6l68.7 93.3c39.5,55.6 176.6,247.2 211.8,280.2 0.6,-16.2 -6.7,-46.4 -11,-61.8 -16.2,-59 -34.6,-115.6 -54.3,-173.3 -6.7,-19.7 -12.9,-37.2 -20.5,-56.5 -7.5,-19.3 -13.5,-37 -21.1,-56 -3.8,-9.8 -6.9,-17.6 -10.9,-27.8l-35.6 -83.8c-13.6,-31.4 -38.4,-74.3 -55.4,-104.5 -29.7,-52.8 -68.8,-99.5 -110.3,-143.3 -43.3,-45.7 -117.3,-75.5 -154.1,-118.3 -41.7,-48.7 -32.4,-39.7 -85.6,-87.4 -29.6,-26.5 -64.6,-56 -83.9,-90.3 -34.6,-61.6 -74.4,-93.3 -138.3,-125.4 -60,-30.2 -123.2,-46.4 -188.5,-64.7l-193.2 -37.1c-33,-4.3 -186.5,-28.1 -226.7,-39.3 -13.4,-3.8 -27.1,-7.2 -40.5,-11 -14.2,-4.1 -24.1,-11.2 -36.7,-15 3.2,-11.8 2.1,-21.8 4.1,-32.6 60.5,-20.2 168.8,8.6 236,19.2l43 9c10.7,2.7 12.4,1.9 20.9,3.6 12.5,2.5 11.5,6.1 19,0.1 -22.6,-6.2 -48.1,-22.8 -68.3,-32.9 -21.5,-10.8 -43.6,-26.6 -67.8,-33.2l119.9 21.1c27.8,2.8 51.2,3.1 76,-6 7.5,-2.8 16,-5.9 20.6,-13.7 -18.5,-6.7 -36.2,-17 -59.1,-20.6 -223.3,-35.5 -480.9,-87.8 -702,-50.5l-25 6c-24.7,5.6 -48.2,13.8 -70,26.4 -12.4,7.1 -34.6,14.7 -40,29.4l58.4 3c57.5,1.4 113.2,-7.8 170.2,-10 20,-0.7 37.4,-0.6 58.6,-0.1 57.5,1.2 142.8,21.4 175.6,59.2 -8.2,7.1 -18.9,6.5 -30.7,9.2 -32.7,7.7 -65.1,12 -98.8,15.9 -44.6,5.2 -93.1,7.2 -140,9.8 -47.3,2.6 -92.6,5.3 -139.5,10.7 -22.9,2.6 -45.1,5.5 -66.3,9.7l-66.8 12.2c-44,10.9 -83.9,21 -126.2,34.2 -81.9,25.6 -160.7,56.8 -237.7,94 -5.4,2.6 -113.6,49.3 -119.6,39 -1.3,-7.3 2.8,-22.6 3.4,-32.3 0.6,-9.5 -1.8,-19.1 -3.8,-28.1 -12.1,0 -30,13.5 -36.8,25.1 -8.7,14.7 -5.1,37.7 -5,51.7 0.1,18.8 -5.9,35.9 -17.3,48.4 -4.6,5.1 -12.4,11.7 -17.6,15.6 -3.3,2.4 -6.4,4.8 -9.3,6.9 -6.1,4.3 -2.1,4.1 -10.9,4.1 0,-11.1 -21.6,-47.3 -27.3,-60.1 -4.6,-10.3 -7.9,-20.2 -12.2,-30.9 -4.3,-10.9 -7,-21.4 -14.2,-29.8 -9.7,35.4 -2.7,77.9 -22.1,103.9 -34.3,46 -122.1,49.7 -182.5,124.4 -8.1,10 -15.7,22.7 -25.9,31 -2.2,1.8 -3.7,2.7 -5.4,3.8 2.6,-67.5 43.9,-62.1 62.3,-103.1 3.8,-8.4 1.5,-6.6 4.7,-18.3 -44.8,-11.2 -70.2,57.3 -86.6,87 -5.8,10.6 -20.6,26.3 -24.4,36.8 -9.2,-11.6 7,-55.9 -10.1,-77.5 -31.5,12.1 -12,63.3 -88.6,93.6 -32.3,12.7 -95.3,10.6 -115.8,45.6 19.6,10.6 35.1,26 55,36.8 -21.1,77 -36,64.3 -78.4,61.4 -7.3,-0.4 -10.8,0.3 -17.6,-1 -0.2,23.9 22.9,51.4 8.7,91.3 -4.2,11.8 -12,21.1 -16,32 -15.4,-19.3 9.7,-61.4 -32.7,-74l-28.4 43.1c-10.5,17.1 -16.6,27.4 -29.3,41.5 -36.9,40.8 -36.7,31.2 -54,94.4 11.8,10.2 33.2,18.9 45,29.2 -9.6,17.8 -27.5,29.8 -37.1,47.6 -22.7,-6.2 -94,-54.4 -104.5,-67.1 -29.2,-35.2 110.4,-323.9 131.9,-402.4l-4.5 -1.2c-5.1,18.6 -15.5,32.4 -24.7,49.6 -21.9,40.9 -106.9,202.5 -133.8,229.7 -6.9,7.1 -71.6,45.7 -79.9,45.7 7.1,-26.1 8.6,-49.2 15.2,-73 -11.8,4.5 -54.2,70.6 -60.1,80.5 -61,102 -101.7,212.6 -127.3,330.8 -2.1,10 -5.9,21.4 -8.6,31.4 -10.4,37.1 -31.6,174.1 -34.8,205.2 -16.7,161.8 3.4,186.1 2.4,212.3 9.5,-3.6 14.8,-22.8 19.5,-32.2 4.4,-8.8 13.5,-29.4 18.1,-34.6 6.1,7.8 6.9,29.3 5.2,40.7 -4.4,30.4 -38.1,39.8 -52.7,61.9 -5.6,8.5 4.1,28.1 7.8,37.3 21.8,54.9 60.6,58.4 96.9,99.9 15.8,18.1 3.4,86.9 0.9,111 -6.5,63.1 -22.5,231.7 -38.6,290.6 16.9,0.7 42.3,-11.1 57.6,-8.3 -9.7,52.2 30.8,99.4 54.8,140.9 10.3,17.7 11.5,29.6 16,49.6 -28.2,-15.3 -32.3,-49.3 -57.1,-67.8 -10.4,-7.7 -18.1,-10.7 -33.5,-14.9 -12.7,46.2 -0.5,80.4 12.5,119.6l10.4 31.9c1.9,5.6 0.2,1.5 1.7,4.7 7.6,-30.1 -2,-69.1 5.7,-99.7z"/>
    <path class="fil2" d="M16608.8 7182.6l1.9 -2.6c-0.7,0.5 -1.3,1.3 -1.9,2.6zm-60.6 31.8l-1 -3.4 1.6 0.9 -0.6 2.5z"/>
   </g>
   <g>
    <path class="fil2" d="M12322.9 8230.1c90.3,-308.4 36.3,-601.7 -284.1,-665.5 -226.9,-45.2 -539.3,-88.5 -658.9,-386.4 72.3,21.4 454.3,247 545.9,123.7 88,-231.7 -263.8,-323.7 -391.8,-345.1 -190.4,-31.7 -335.6,-38.3 -530.6,-121.5 -200,-85.4 -373,-203.3 -538.8,-363.3 -54,-52.2 -383,-409.9 -416.4,-507 255.6,220.3 446.6,438.9 740.9,613.4 151.6,90 657.5,303.9 702,106.1 59.9,-261.9 -706.4,-474.5 -822,-520.1 -249,-98.3 -701.8,-378.5 -773.8,-665.1 179.6,122.3 324.1,288.4 528.1,414.2 419,258.2 648.5,156.3 1068.1,439.7 239.4,161.7 420.1,448.2 495.7,406.4 205.2,-224.2 -97.4,-583.8 -292.7,-677.1 -166.2,-79.4 -496.3,-76.5 -681.6,-101.7 -453.1,-61.7 -1006,-644.7 -1348.1,-1008.8 111.3,97.9 1020,697.2 1194.4,804.9 110.6,68.3 304.3,183.1 391.2,77.8 49.9,-240.4 -760.3,-523.7 -918.9,-590.5 -407.4,-171.7 -428.9,-236.8 -727.7,-548 -96.9,-100.9 -106.1,-114.6 -147.5,-235.3 401.8,397.9 635.8,564.6 1129.5,783.3 452,200.3 813.4,236.6 1162.9,504.6 518.4,397.3 1091.6,1546.1 642.2,2379l-56.3 73.4c-2.7,2.5 -7.5,6.7 -11.7,8.9z"/>
    <path class="fil2" d="M12495.5 5119c-22.9,2 7.2,4.8 -40,-1.1 -18.3,-2.2 -29,-5.6 -47.6,-9.6 -80.1,-17 -154.1,-23.2 -230.2,7.6 -132.2,53.6 -141.2,234.4 -115,333.9 80.2,305 525.1,559.8 618.9,1286.9 16.7,129 27.6,561.2 -33.4,751l-23.9 -301.8c-7,-50.4 -3.8,-86.8 -10.3,-140.9 -23,-192.6 -142.7,-521.9 -233.2,-705.7 -536.8,-1091 -1123.4,-868.5 -1938.3,-1275.9 -356.3,-178.2 -769,-505.8 -1012.2,-836.3 495.9,402.2 922.1,702.2 1550.2,815.3 138.4,25 243.5,2.8 373.9,-3 348.2,-15.6 621,-278.5 1141.1,79.6z"/>
    <path class="fil2" d="M10916.6 4630c-62.1,-160.7 -194.3,-160 -324.3,-201.5 81.2,-55.8 209.3,-13.5 291.9,12.4 212.5,66.4 408.2,238.7 627.7,316.4 110.6,39.1 201,39.1 301.4,60.9 -124.4,117.1 -471.2,156 -630.4,158.7 -243.8,4.1 -416.3,-49.8 -666.5,-154.9 -405.2,-170.1 -867.9,-505.1 -1201.9,-833.4l-98.1 -117.8c-23.1,-45.4 -12.5,-25.5 -18.3,-51.6 156.6,161.8 684.2,577 877.5,693 220.5,132.2 690.9,394.3 841,117.8z"/>
    <path class="fil2" d="M11871.2 6338.2c89.1,71 212.2,241 105.9,329 -64,27.9 -275.7,-272.3 -423.5,-390.1 -104.1,-83.1 -188.1,-91.5 -295.6,-133.9 17.5,-4.9 8.9,-3.8 34.9,-8.5 5.3,-1 30.5,-4.6 33.3,-4.8 157.7,-12.6 419.3,108 545,208.3z"/>
    <path class="fil2" d="M11391.1 6655.6c-144.5,70.1 -497.7,-74.3 -652.9,-204.5 22.2,-3.1 -7.9,-6.6 37,0l126.2 37c71.9,17.8 110,37.3 169.6,-7.6 -198.1,-154 -395.1,-113.9 -607.7,-280.7 117.7,22 327.1,96.3 455,135.3 218.2,66.7 288.6,161 472.8,320.5z"/>
    <path class="fil2" d="M11149.8 5789.1c-56.6,40.6 -85.9,21.9 -182.6,-31.2l-581.6 -358.6c143.1,1.4 689,236.1 764.2,389.8z"/>
   </g>
   <g>
    <path class="fil2" d="M15919.5 9216.6c79.7,-312.7 276.5,-538.5 585.7,-429.7 219.1,77 511,199.3 766.6,3.2 -73.4,-18.5 -518.7,-19 -534.6,-172.4 42.4,-245.1 393.3,-144.7 514.7,-97.7 180.7,70 309.5,138.5 520.5,166.4 216.3,28.6 426,15.1 651,-38.3 73.3,-17.4 540.4,-158.2 618.9,-225.1 -333.4,59.7 -610.2,150.9 -953.6,151.1 -176.9,0.1 -723.2,-73.7 -660.4,-267.5 82.2,-256.8 852.7,-48.5 975.8,-28.8 265.3,42.4 799.6,32 1008.4,-178.8 -217.7,13.8 -427.4,83.4 -667.9,87.7 -493.8,8.8 -639.9,-196.6 -1147.2,-166.4 -289.4,17.2 -592,172.3 -635.9,97.6 -62.6,-298.7 382.7,-454.6 599,-435.4 184.2,16.4 467.8,187.8 640.7,260.8 422.8,178.5 1198.3,-42.4 1680,-182 -146.1,27.7 -1237.3,80.6 -1443,84.5 -130.5,2.5 -356.4,2.5 -377.6,-132.9 79.9,-233.2 924.4,-63.5 1095.5,-40.1 439.6,60 491.5,14.7 908.6,-101.2 135.3,-37.6 150.3,-44.8 247.8,-127.9 -550.5,138.2 -837.8,162.6 -1376,99 -492.7,-58.1 -823.4,-211.6 -1262.3,-158.9 -650.9,78.1 -1733.4,777.4 -1771.3,1726.8l11 92.2c1.1,3.6 3.1,9.7 5.6,13.8z"/>
    <path class="fil2" d="M17361.7 6440.5c18.7,13.4 -8.7,0.4 35.1,19.5 17,7.4 27.9,10 46,16.1 77.9,26.3 145,58.7 194.9,124.3 86.7,113.9 2,274.6 -71.4,347.2 -225.3,222.5 -739.9,215.1 -1192.8,795.2 -80.3,103 -310.8,470.8 -355.2,666l175 -248.5c31.9,-40 47.7,-73.1 81,-116.6 118.4,-154.6 390.1,-377.8 562.2,-490.3 1021.7,-668 1414.4,-175.7 2326.5,-110.9 398.7,28.3 922.7,-43.6 1301.7,-204.8 -633.9,93.8 -1155.4,135 -1755.6,-88.5 -132.3,-49.3 -211.7,-122.1 -321.3,-193.9 -292.7,-191.5 -393.8,-558.2 -1026.1,-514.8z"/>
    <path class="fil2" d="M18975.2 6825.6c135.8,-107.1 249.6,-38.8 383.1,-8.2 -41.6,-89.7 -173.8,-118.7 -258.4,-138.6 -217.5,-51.3 -474.5,-2.5 -703.8,-47.7 -115.5,-22.8 -193.6,-69.1 -291.5,-101.5 47.5,164.7 327.1,375.7 463.2,459.5 208.4,128.2 385,169.9 654.8,207.1 436.9,60.3 1007.8,7.5 1464.2,-105.3l144.8 -51.6c43.3,-27.4 23.9,-15.7 42.3,-35.2 -218.1,59.7 -886,148.5 -1112.2,149.8 -258.1,1.5 -798.2,-12.7 -786.5,-328.3z"/>
    <path class="fil2" d="M17277.2 7813.1c-113.2,15.8 -306.5,99.7 -259.7,230 41,56.9 377.3,-94.2 565.2,-120.4 132.4,-18.5 209.3,17.2 323.7,35.6 -12.5,-13.2 -5.7,-7.9 -25.8,-25.3 -4,-3.5 -23.9,-19.5 -26.2,-21.1 -129.8,-91.6 -417.4,-121.1 -577.2,-98.8z"/>
    <path class="fil2" d="M17529.4 8332.8c88.9,134.5 467.8,190.4 668.4,157.3 -17.5,-14 10.2,-1.6 -31.9,-18.9l-127.9 -32.6c-71.2,-21.4 -114.1,-24.1 -142.6,-93.3 249.8,-31.7 399.5,103.6 668.4,68.4 -113,-41.3 -331.7,-84.2 -462.2,-115.9 -222.5,-54 -331.5,-8.6 -572.2,35z"/>
    <path class="fil2" d="M18181 7707.7c28.1,64 63,62.8 173.6,66.4l685.7 -12.3c-124.3,-71.9 -715.7,-148.4 -859.3,-54.1z"/>
   </g>
  </g>
 </g>
</svg>
