<?xml version="1.0" encoding="UTF-8"?>
<!DOCTYPE svg PUBLIC "-//W3C//DTD SVG 1.1//EN" "http://www.w3.org/Graphics/SVG/1.1/DTD/svg11.dtd">
<!-- Creator: CorelDRAW 2019 (64-Bit) -->
<svg xmlns="http://www.w3.org/2000/svg" xml:space="preserve" width="3176px" height="1091px" version="1.1" style="shape-rendering:geometricPrecision; text-rendering:geometricPrecision; image-rendering:optimizeQuality; fill-rule:evenodd; clip-rule:evenodd"
viewBox="0 0 31760 10913.4"
 xmlns:xlink="http://www.w3.org/1999/xlink">
 <defs>
  <style type="text/css">
   <![CDATA[
    .fil0 {fill:#3E4095}
   ]]>
  </style>
 </defs>
 <g id="Capa_x0020_1">
  <metadata id="CorelCorpID_0Corel-Layer"/>
  <g id="_2247076324416">
   <path class="fil0" d="M12575.7 3962.6c284.2,-101.9 1081,-428.1 1453.2,-389.1 336.4,35.4 588.9,704.8 617.1,881.1 -293.9,180.3 -2068.9,689.1 -2401.1,781.1 470.7,37.4 2072.6,-479.8 2558.1,-278.1 133.7,55.5 134.4,52.2 209.3,152.8 50.6,67.7 125.3,135.8 178.3,183.7 131,118.4 308.8,207.5 531.3,234.2l-53.8 -73.2c-16.4,-17.2 -35,-30.1 -56.2,-50.4 -108.6,-104.3 -196,-217.4 -273.6,-364.7 -274.5,-521.2 -322.8,-1184.2 -672.5,-1670.1 -43.6,-60.6 -57.2,-66.2 -93.5,-129.3 93.5,-103.7 801.9,-553 1010.5,-532.6 263.6,139.8 223.9,2840.6 392,3054 28,-556.3 -38.6,-2899.3 -271.4,-3323.3 -218.9,-1.6 -1167.8,675.7 -1317.3,801.9 2.5,4.8 7.2,6.2 8.6,13.7 1.4,7.4 6.8,10.7 8.8,13.5 10.5,15.2 16.6,23.5 27.4,38.1 130.1,177.5 224.2,378.3 309.5,585.1 65.4,158.5 221.6,573.4 235.3,747.5 -27.5,-50.8 -63.5,-86.4 -99.7,-159 -99.1,-198.9 -151.8,-409.8 -236,-615.4 -131.5,-320.7 -248.4,-493.9 -523.1,-628.6 24.7,-7.7 54.5,-6.8 62.6,-9.3 57.4,-17.6 344.7,-257.8 405,-302.1 152.4,-111.8 297.9,-216.2 460,-328 254.8,-176 720,-490.5 1134.8,-474.1 403.2,16 991.6,123.3 1388.3,200.9 324.4,63.3 630.7,136.3 936.6,254.4 96,37 188.1,90.9 264.5,119.6 -632.4,-234.4 -1384.8,-367.6 -2135,-443.3 -728.4,-73.5 -753.8,-74 -726.8,496.9 19.2,405.1 48.7,810.5 78.3,1214.2 28.3,387 57.5,804.5 120.2,1182.8 36.3,219.1 172.2,222.1 373.8,264.4 748,157 1680.9,161.7 2447.8,116 225.6,-13.4 385.4,-48 590.9,-74.8 22.9,230.9 102,359.1 -535.6,504.3 -345.1,78.6 -672.5,86.2 -1036,70.5 -489.1,-21.3 -991.7,-63.4 -1457.5,-200.6 -166.1,-48.9 -260.8,-101.4 -395,-156.2 -8.4,138.8 -25.7,385.5 59.1,463.6l1.6 -252.6c0.3,-1.6 -52.7,30.6 24.7,-68.2 3,5.1 6.1,7.4 7,16.4l38.6 326.2c267.5,76.7 564.3,180.1 875.8,171.3l-793.7 -206.4 -12.4 -254c224.5,25.7 467.6,102.6 685.5,149.5 136.4,29.3 230.5,14 286.1,118.7 35.9,67.4 77.2,229.1 148.4,267.2 403.2,98.8 1289.9,78.8 1648.7,-86.5l48.2 -294.6 381.1 -167.1c32.2,319.6 -121.3,286.1 -326,425 142.3,-7.6 238.1,-114.1 356,-161.3 -68.3,719 158.4,848.3 -1364.6,929 -558.9,29.7 -1124.2,18 -1681.1,-37.4 -153.9,-15.3 -364.5,-60.4 -505.1,-61.9 -384.7,462.4 2087.5,258.8 2700,211.6 483,-37.2 933.7,-14.6 982.6,-531.8 30.1,-317.9 94.8,-1179.2 -29,-1422.6 -529.2,236.4 -2294.4,114.9 -2935.6,17 -357.4,-54.6 -383.8,-24.9 -429.7,-360.2 -32.5,-236.6 -58.6,-485 -83.2,-726.9 -48.7,-477.1 -104,-1007 -101.4,-1491.9 312.2,37 512.5,303 528.8,642.9l-156.5 -1.5c-43.5,-0.4 -81,14.9 -111.9,45.5 -30.8,30.6 -46.3,68 -46.2,111.5l1.8 649.9 111 1.8c139.9,2.3 261.1,-46.7 360.1,-145.6 99,-98.9 148.1,-220 146,-359.9 -3.5,-232 -23.6,-461.4 -96.5,-617.8 -73,-156.6 -168.4,-251.6 -285.3,-332.9 -55.6,-38.7 -119.7,-73.4 -195.2,-102.6l-182.8 -52.3c-47.3,-19 -26.8,-7.4 -53.2,-32.5 203.2,-161.9 664,-57.1 950.1,-13.5 570.9,87.2 1269.6,201.4 1791.5,426 165.6,71.3 198.1,118.1 271.2,281.7l114.3 311.7c46.6,103.3 -14.3,54 87.4,71.4 22,-38 22.3,-60.8 2.6,-138.7l-110.5 -398.3c217.8,67.1 329.9,325.1 336,615.5l-105.8 -0.5c-43.3,-0.2 -80.7,15.2 -111.3,45.8 -30.7,30.6 -46.1,68 -45.9,111.3l1.8 553.2 6.1 0.1c146.1,2.2 272.7,-50.9 373.4,-156.6 100.8,-105.8 147.7,-234.8 138.4,-380.6 -27.6,-434.9 -155,-865.7 -581.6,-973.2 -197.4,-49.7 -93.8,-30.5 -222,-119.2 -510.9,-353.5 -1782.7,-632.2 -2462.1,-710.4 -563.9,-64.9 -724.7,-52.8 -1138.6,199.8 -289.7,176.7 -556.9,379.1 -836.9,568.9l-728.2 517c-137.4,104.3 -331.6,245.8 -503,336.8 -123.2,96.4 -615.3,292.4 -746.7,364.7z"/>
   <g>
    <path class="fil0" d="M13663.2 7882.5l0 0zm-1976.1 -72.3l0 0zm0 0c84.6,56.7 112.8,182.4 137.3,278.5 8.7,34.3 28.8,75.9 31.4,107.1 -24.9,-2 -72,-18.6 -99.9,-26.6 -29.8,-8.6 -74.2,-26.9 -105,-27.6 8.5,36.4 50.4,99 71.4,127.5l113.9 139c29.6,33.4 122,105.8 65.5,146.9 -25.2,18.3 -32.5,21.5 -51.9,50.5 66.1,35 111.8,50.5 180.8,96.3 112.5,74.8 220.5,156.6 328.7,237.6l487.1 356.4c110.9,80.7 231.6,149.2 352.9,213.4l-50.8 69.7c-70.2,91.6 17.5,-14.3 392.3,173.2 169.6,84.9 336.1,180.4 523.6,223.4 48.8,11.2 94.7,14.1 143.5,25.3 48.9,11.1 74.4,30 125.7,37 180.4,24.4 377.9,-28.1 542,0.2 34.4,5.9 31.4,9.4 45,39.3 16.4,36.1 25.9,92.6 25.9,142.8 168.6,0 340.3,14.1 507.2,35.1l637.2 85.7c142.8,19.7 59,14.4 253.3,-90.6 42.1,-22.8 74.2,-39.8 120.6,-60.2 136.1,-60 686.7,-183.8 867.4,-229 279,-69.8 565.5,-140 829.8,-254.8 206.7,-89.7 408.5,-188.6 595.7,-313.9l217.6 -149.9c340.8,-254.2 461.9,-360.4 765.3,-686.7 10.5,-11.3 10.2,-12.9 18.8,-23.4 129.4,-160.4 262.2,-322.4 368,-499.5 91.4,-153 187.3,-306.7 257.6,-471.4l86 -185.2c164.8,-376.4 292,-811.7 330.9,-1223.4 28.8,-304.6 1.6,-539.1 -72.9,-811.6 -12.7,-46.3 -29,-90 -42.3,-138.5l-46.9 -133.8c-15.9,-40.1 -23.9,-102.2 -60.2,-126.5 -1.3,56.3 -18.3,143.2 -18.1,222.9 0.4,186.5 19.4,555 -42.2,692.8 -60.1,134.8 -187,222.3 -298.6,309.9 -66.6,52.3 -141.6,106.8 -189.4,178.1 71.4,-5.9 145.7,-48.3 216.9,-54.2 0,185.4 -74.9,190.4 -108.9,355 -3.8,18.4 -9.9,34.9 -11.6,54.7 -58,-4.8 -159.8,-75.7 -222.9,-90.4 2.3,105.2 89.8,182.7 -115.3,336.5l-95.6 73.2c13.8,25.9 26.8,47.4 40.3,74.2 48.2,95.6 47.2,96.4 -25.6,151.3 -25.4,19.2 -44.7,31.4 -71.3,49.3 -155.3,104.4 -260,42.5 -343,72.6 -11.8,4.3 -28,17.7 -34.1,26.1 27.9,6.5 55.4,20.2 82.2,32.2 27.7,12.4 56.2,21.3 80.4,34.1 -33.1,49.5 -88.6,116.1 -130.9,158.2 -51.6,51.3 -99.1,101.1 -158.2,143.1 -47.8,33.9 -93.5,38.5 -138.6,60.2 -1.5,-67.5 -18.6,-144.2 -24.1,-210.9 -51.5,59.3 -47.3,175.5 -71.5,247.8 -8.8,26.1 -25.4,53.7 -31,77.6 -49.2,-26.1 -93.8,-59.1 -150.6,-72.3 -41,27.4 -88.4,108.4 -122.2,148.8 -20.6,24.6 -45.1,42.8 -71.7,60.9 -21.4,14.6 -63.8,43.4 -89.2,49.3 0,-85.8 6,-154.6 6,-234.9 -40.2,0.9 -94.9,39.8 -121.4,59.3 -39.9,29.2 -64.3,54.5 -97,89.8 -225.4,243 18.8,379.7 -66.6,559.9 -12.9,27 -15.7,34.9 -35.7,54.7l-99.2 87.6c-33.6,31.2 -26.4,10.2 -74.1,10.2 -1.9,-22.9 -5.8,-22.1 -19,-35.2 -13.2,-13.2 -12.3,-17.1 -35.3,-19 -8.9,33.4 -86.6,130.8 -117.1,147.9 -48.8,27.5 -179.4,-9.4 -238.3,-9.4 -45.9,68.6 -91.2,129.3 -160.2,177.2 -70.3,48.8 -144.6,79.9 -239.8,103.7 -72.7,18.2 -143.2,24.4 -218.8,34.2 -97.1,12.5 -310.3,19.9 -405.6,22.2 -203.9,4.9 -386.7,112 -590.3,30.3 -122.2,-49 -237.6,-105.3 -367.3,-138.7 -46.8,-12.1 -96.8,-18.9 -144.7,-30 -20.9,31.1 -38.4,66.2 -48.2,108.4 -77.3,-18 -273.2,-132.3 -347.6,-176.6 -136.7,-81.4 -260.1,-170.8 -379.6,-271l-136 -129.1c-65.7,-68.3 -122.9,-140.7 -159.4,-232.3 -13.5,-33.9 -20.5,-64 -34.2,-98.2 -13.8,-34.2 -27.7,-59.9 -45.8,-86.9l-126.5 0c0,107.2 -9.4,52.5 36.2,120.5 -167.5,0 -261.3,-89 -317.7,-230.6 -47.9,-120.2 -57.5,-317.6 -230.6,-317.6 0,34.1 -4.4,70.3 7.7,94.7 12.3,25.1 27.1,36.4 34.5,67.9 -83,-55.6 -54.9,-86.9 -237,-178.7 -125,-63 -250.3,-103.1 -331.9,-222.4 -13.2,-19.2 -40.4,-70.5 -45.6,-92.9 32.4,21.7 62.6,46.5 98.2,64.5 50.9,25.7 77.7,19.9 148.8,19.9 -7.8,-21.5 -95.2,-64.7 -114.5,-78.4 -149.7,-106.1 -275.9,-246.1 -378.4,-398.8l-71.5 -121.2c-126.7,-253.6 -260.4,-578 -315.8,-853 -19.3,-95.9 -42.2,-236.6 -41.6,-350 0.1,-31.2 2.6,-64.2 -1.6,-94.8 -8.2,-59.5 6.4,-396.5 15.3,-463.9 22.1,-168.5 43.5,-342.5 78.1,-506.3 22.1,-104 53.9,-205.8 86.7,-304.9 61.9,-187.6 154.9,-317.7 181.9,-402.6 21.6,-67.9 -22,-12.8 41.3,-139.4l198.8 -385.6c22.2,-44.5 42.5,-92.2 68.2,-130.6 26.7,-39.9 50.5,-73.5 80.1,-112.6 24.4,-32.2 58.5,-87.5 58.5,-140.3 -20.7,10.9 -39.4,21.6 -62.1,34.2 -22.8,12.6 -37.3,25.7 -64.4,32 4.5,-54.5 192.7,-370.6 241.4,-379.2 50.9,-8.9 147.8,5.7 204.4,5.7 1.2,-53.3 27.1,-110.5 24,-168.2 -1,-19.6 -7.9,-68.4 -10.3,-86.5 -4.1,-30.6 -1.6,-63.5 -1.6,-94.7l84.3 -42.2c27.8,-15 54.1,-33.1 80,-52.5 119.7,-89.6 189.9,-165.8 281.4,-236.7 41.6,-32.2 105.3,-89 162.8,-102.4 -34.3,64.7 -54.3,113.5 -54.3,192.8 216.7,-145.1 155.3,-347.2 388.1,-443.4 68,-28 134,-50 196,-87.1 258.4,-154.9 463.3,-283.6 759.4,-361.2 152.1,-39.9 308,-64.8 467.4,-86.9 319.3,-44.4 733.6,-23.2 1053.5,24.1 125.9,18.5 245,37.9 370.7,44.9 27.7,1.6 33.3,5.8 66.5,5.9 33.3,0.1 40.2,5.4 66.3,6 -8.8,-32.8 -65.9,-50.7 -84.4,-78.3 269.8,0 916.3,351.5 1182.1,510.9 243,145.7 291,180.8 504,339.4 54.4,40.5 104,84.4 158.3,124.9l235.5 186.2c136.9,111.9 611,497.1 721.6,555.6 -9.5,-40.9 -48.5,-111.3 -69.7,-147.1 -80.9,-136.4 -165.7,-265.2 -254.5,-396.2 -30.1,-44.6 -57.7,-84 -89.8,-127.1 -32.2,-43.1 -59.3,-83.2 -91.2,-125.7 -16.4,-21.8 -29.5,-39.3 -46.5,-62l-146.3 -185c-55.6,-69.4 -146.9,-159.6 -210.2,-223.6 -110.4,-111.7 -240.1,-201.8 -373.9,-282.8 -139.4,-84.5 -345.2,-108.5 -466.3,-190.3 -137.8,-93.1 -108.2,-77.1 -274,-159.9 -92.1,-46 -200,-95.8 -271.5,-168.2 -128.9,-130.4 -250,-182.4 -431.7,-219 -170.7,-34.4 -340,-31.7 -515.8,-32.7l-508.6 39.7c-85.5,11.9 -485.6,57.4 -593.8,56.8 -36.1,-0.1 -72.6,0.7 -108.7,0.2 -38.5,-0.4 -68.1,-11.5 -102.2,-12.2 0,-31.8 -9.7,-56 -12,-84.4 137.5,-92.1 427.9,-94.2 603.3,-113.6l113.6 -6.9c28.7,-0.7 32.3,-3.8 54.9,-5.4 32.8,-2.2 32.8,7.4 47.5,-12.7 -60.6,0 -135.8,-24.2 -193.3,-35.6 -61.3,-12.3 -127.3,-36.7 -192.2,-36.7l314.2 -29.1c71.3,-12.2 130.1,-27.3 185.9,-67.2 16.8,-11.9 36.1,-25.7 42.1,-48.3 -50.8,-4.2 -102.1,-17.7 -161.8,-11.1 -582.7,64.1 -1262.6,109.9 -1790.2,354.6l-58.3 32.1c-58,30.8 -111.2,67.6 -157.1,113.9 -26,26.2 -76.5,60.5 -79.8,101l148.2 -32.5c144.7,-36 277.6,-97 418.8,-141.5 49.4,-15.6 92.9,-27.1 146.3,-40.6 144.5,-36.3 371.9,-44.3 479.6,27.8 -15.7,23.4 -42.8,29.2 -70.4,44.2 -76.4,41.4 -154.4,74.4 -236,107.3 -108.2,43.5 -228,81.9 -343.5,120.4 -116.7,38.8 -227.9,76.8 -341.6,122.3 -55.4,22.1 -109,44.8 -159.2,69.8l-158.6 76.3c-102.4,57.3 -195.4,109.8 -292.2,171.8 -187.3,120.1 -362.9,252.1 -530,397.8 -11.6,10.2 -250.3,201.3 -272.4,179.4 -8.2,-17.1 -8.5,-58.4 -13.5,-82.9 -5,-24.3 -17.6,-46.7 -28.7,-67.7 -30.3,8.1 -65.8,54.1 -74.9,87.9 -11.6,42.8 13,97.7 22.9,132.8 13.2,46.9 9.8,93.8 -10.1,132.9 -8.1,15.9 -23,37.6 -33.4,50.9 -6.5,8.4 -12.7,16.3 -18.6,23.6 -12.2,15.1 -2.2,11.8 -24.4,17.7 -7.4,-27.6 -86.4,-103.4 -109.4,-131.6 -18.4,-22.6 -33.6,-44.9 -51.6,-68.9 -18.3,-24.4 -32.2,-48.7 -55.9,-64.6 0,95 46.6,196.5 15.8,274.9 -54.3,138.6 -271.2,207.8 -371.2,436.1 -13.4,30.5 -23.5,67.5 -43.4,95.2 -4.3,5.9 -7.6,9.3 -10.9,13.2 -39.7,-170.5 67.2,-185.3 85.2,-300.5 3.7,-23.7 -0.9,-17.5 -0.9,-49 -119.6,2.7 -136.3,191.3 -156.9,276.9 -7.4,30.5 -33.5,79.9 -35.9,108.7 -30.9,-22.6 -20.7,-144.5 -78.3,-186.7 -70.6,51.7 13.4,166.3 -157.4,294.4 -72.2,54.2 -231.2,92.1 -258.3,193.6 56.3,13.1 105.5,40.9 162.7,54.2 0,207 -46.2,185.4 -154.1,207.4 -18.6,3.8 -26.7,8 -44.7,9.5 16,59.9 92.5,112.7 84.3,222.4 -2.4,32.2 -15.6,60.9 -18.1,90.9 -51.6,-37.9 -17.6,-160.1 -132.5,-162.7l-41.5 127.2c-14.5,50 -22.7,80 -44.9,123.8 -64.2,127.4 -70.3,103.2 -70.3,273.1 36.6,17.6 96,24.7 132.6,42.2 -11.9,51.1 -48.3,93.5 -60.3,144.6 -60.8,0 -272.2,-71.9 -307.2,-96.4 -97.2,-67.8 54.2,-885.4 54.2,-1096.5l-12 0c0,49.9 -16.6,91.7 -27.8,141 -26.6,117.3 -128.6,579.6 -177.2,666.2 -12.6,22.2 -147.7,163.2 -168.6,168.8 0,-70 -12,-128.8 -12,-192.8 -26.3,19.3 -87.2,213.6 -95.2,242.3 -82.7,296.9 -108.5,601.3 -91.6,914.4 1.5,26.5 0,57.6 -0.1,84.6 -0.4,99.8 40.2,457 53.5,536.9 69.2,416 136,463.1 151.4,529.3 21.4,-15.6 21.3,-67.3 26.7,-93.9 5,-25.1 13.8,-82.8 21.5,-98.9 20.7,15.1 37.5,68.4 41.1,98 9.7,79.1 -68.2,125.6 -89.6,190.9 -8.2,25.2 29.6,67.5 45.1,88.1 92.2,122.3 191.6,104.4 310.7,183.3 52.1,34.6 68,215 78.3,277.1 26.9,162.1 102.5,594.9 102.5,753.1 42.7,-9.9 98.2,-56.9 138.5,-60.2 11.4,137.2 145.1,227.4 233.5,314.7 37.9,37.4 49,66.2 73.8,113 -80.9,-18.8 -114.4,-100.9 -189.1,-130.2 -31.2,-12.2 -52.7,-14.4 -94.1,-14.4 0,124.2 53.8,201.3 113.3,290.4l47.8 72.7c8.5,12.7 1.6,3.6 7.6,10.5 -1.8,-80.3 -52.4,-171.3 -54.2,-253.1z"/>
    <path class="fil0" d="M21067 4907l3 -8.1c-1.4,1.9 -2.4,4.3 -3,8.1zm-129.9 120.9l-4.7 -7.7 4.7 1 0 6.7z"/>
   </g>
   <g>
    <path class="fil0" d="M11066.8 10461.8c14.7,-833.2 -321.4,-1529.8 -1166.3,-1469.8 -598.4,42.5 -1409.1,147.9 -1912.2,-514.9 195.4,4.1 1305.3,306.5 1449.7,-64.6 61.6,-639.6 -881.2,-628.9 -1216,-594.6 -497.8,51.1 -865.6,134 -1410.2,59.4 -558.5,-76.4 -1071.9,-252.8 -1596.2,-539.5 -170.7,-93.3 -1238.4,-762.6 -1388.3,-982.6 790.1,375.9 1417.3,791.8 2272.8,1026.7 440.8,121 1852.3,309.6 1828.2,-215.7 -29.7,-695.7 -2091.6,-702.6 -2411.7,-737.5 -690.1,-75.3 -2014.2,-465.8 -2390.8,-1133.2 533.1,182.9 1008.3,499.2 1604.5,673.9 1224.4,358.8 1728.6,-53.2 2971.9,368.1 709.5,240.4 1357.7,833.1 1518,677 359.7,-701.3 -643.4,-1393.4 -1195.6,-1493 -470.1,-84.7 -1293.5,148.7 -1774.2,212.5 -1175.4,156.2 -2957,-923.1 -4061.9,-1599.3 345.3,168.7 3028.1,1044.9 3538,1194.9 323.2,95 886.3,249.3 1031.4,-73.6 -39.8,-635.3 -2259.9,-788.7 -2702.1,-847.2 -1136.5,-150.4 -1234.9,-298.5 -2195.1,-871.9 -311.4,-185.9 -343.9,-214 -530,-487.5 1277.2,719.9 1976.6,976.4 3361,1185.3 1267.3,191.2 2196,34.6 3253.5,465.2 1568.5,638.7 3788.7,3118.8 3235.3,5509.2l-90.5 222.2c-5,8.2 -14.2,22.1 -23.2,30.5z"/>
    <path class="fil0" d="M9367.8 2563.7c-55.9,20.7 21.2,6.9 -100.8,24.6 -47.4,6.9 -76.5,5.8 -125.8,8.7 -211.9,12.3 -401.2,47.4 -570.2,176.6 -293.9,224.6 -192.7,682.7 -59.1,913.6 409.5,707.8 1696.7,1040.4 2429.2,2794.2 130,311.2 453.3,1384.6 430.9,1901l-266.7 -738.2c-52,-121.5 -68.8,-214.6 -122.1,-345.6 -189.5,-465.9 -714.4,-1207.1 -1066.5,-1604.8 -2089.7,-2360.7 -3404.2,-1402.4 -5721,-1863.2 -1012.8,-201.5 -2269.3,-738.2 -3103.8,-1398.1 1515.5,666.1 2786.7,1124.4 4434.9,977.2 363.2,-32.4 610.7,-159.7 932.9,-263.7 860,-277.5 1362.2,-1121.8 2908.1,-582.3z"/>
    <path class="fil0" d="M5084.4 2422.3c-265.3,-359.4 -595.4,-267.2 -948.8,-281.8 164.9,-195.2 514.1,-177.1 738.4,-169.1 576.9,20.7 1184.1,317.5 1786.2,361.3 303.4,22.1 529.5,-39.9 795.7,-54 -230.9,378 -1071.5,712.7 -1467.8,828.5 -606.9,177.3 -1075.3,160.6 -1772.9,69.2 -1129.6,-147.8 -2516.2,-668.6 -3576.4,-1260.9l-325.8 -227.3c-89,-97.9 -48.7,-55.4 -81.2,-116.6 502.6,297.4 2106.2,974.3 2669,1131.9 641.9,179.7 1997.6,512.8 2183.6,-281.2z"/>
    <path class="fil0" d="M8641.6 6039.9c271.4,116.7 695.6,457.5 490.1,750.2 -141,113.6 -875.9,-492 -1326.1,-685.5 -317.4,-136.4 -533.2,-99.8 -831,-132.1 40.3,-24.3 19.8,-15.7 81.5,-45.4 12.4,-6 73,-32.3 79.9,-34.8 385.8,-139.5 1122.6,-16.9 1505.6,147.6z"/>
    <path class="fil0" d="M7658.4 7162.5c-313.3,274.3 -1295.6,155.1 -1772.8,-64.3 53.3,-22.9 -24.3,-11 92.6,-25.3l340.9 6.2c191.9,-4.9 300.6,17.7 419,-135.1 -600.9,-249.5 -1066.1,-14.5 -1712.1,-285.8 309.6,-25.7 883.9,16.7 1230.6,26.7 591.4,17.1 832,204.8 1401.8,477.6z"/>
    <path class="fil0" d="M6461.5 5161c-113.7,140.2 -199.8,113.5 -477.9,47.1l-1700.2 -498.6c358.9,-94.4 1884.7,118.7 2178.1,451.5z"/>
   </g>
   <g>
    <path class="fil0" d="M20736.3 10465.2c-14.8,-836.5 322.5,-1535.9 1170.4,-1475.7 600.6,42.7 1414.2,148.6 1919.1,-516.8 -196,4 -1309.9,307.7 -1454.9,-64.9 -61.8,-642.2 884.4,-631.5 1220.4,-597 499.6,51.3 868.7,134.5 1415.3,59.7 560.4,-76.8 1075.7,-253.9 1601.9,-541.7 171.3,-93.7 1242.9,-765.7 1393.3,-986.6 -792.9,377.4 -1422.4,795 -2281,1030.8 -442.3,121.5 -1859,310.8 -1834.8,-216.5 29.9,-698.6 2099.2,-705.5 2420.5,-740.5 692.5,-75.6 2021.4,-467.7 2399.3,-1137.8 -535,183.7 -1011.9,501.3 -1610.3,676.7 -1228.7,360.2 -1734.7,-53.4 -2982.6,369.6 -712,241.3 -1362.5,836.4 -1523.4,679.6 -361,-704 645.7,-1399 1199.9,-1498.9 471.8,-85.1 1298.1,149.3 1780.6,213.4 1179.6,156.7 2967.6,-926.8 4076.5,-1605.8 -346.5,169.4 -3039,1049.1 -3550.7,1199.7 -324.4,95.4 -889.5,250.3 -1035.1,-73.8 39.9,-638 2267.9,-791.9 2711.8,-850.7 1140.6,-151 1239.3,-299.7 2203,-875.4 312.4,-186.6 345.1,-214.8 531.9,-489.4 -1281.8,722.7 -1983.7,980.3 -3373.1,1190 -1271.9,192 -2203.9,34.8 -3265.3,467.1 -1574.1,641.2 -3802.2,3131.3 -3246.9,5531.3l90.9 223c5,8.3 14.2,22.2 23.3,30.6z"/>
    <path class="fil0" d="M22441.4 2535.5c56.1,20.8 -21.3,6.9 101.1,24.7 47.6,7 76.8,5.9 126.3,8.7 212.7,12.4 402.6,47.6 572.3,177.3 294.9,225.5 193.3,685.5 59.2,917.3 -410.9,710.7 -1702.7,1044.6 -2437.9,2805.5 -130.5,312.4 -454.9,1390 -432.4,1908.5l267.6 -741.2c52.2,-121.9 69.1,-215.4 122.6,-346.9 190.2,-467.7 717,-1212 1070.2,-1611.2 2097.3,-2370.2 3416.6,-1408.1 5741.7,-1870.7 1016.4,-202.3 2277.4,-741.1 3115,-1403.7 -1521,668.7 -2796.8,1128.9 -4450.9,981.1 -364.5,-32.5 -612.9,-160.4 -936.3,-264.7 -863.1,-278.7 -1367.1,-1126.3 -2918.5,-584.7z"/>
    <path class="fil0" d="M26740.2 2393.5c266.2,-360.8 597.5,-268.2 952.2,-282.9 -165.5,-195.9 -516,-177.8 -741.1,-169.7 -579,20.7 -1188.3,318.7 -1792.6,362.7 -304.5,22.2 -531.3,-40.1 -798.5,-54.2 231.7,379.5 1075.3,715.6 1473,831.8 609.1,178 1079.2,161.2 1779.3,69.5 1133.7,-148.5 2525.3,-671.3 3589.3,-1266l326.9 -228.2c89.3,-98.3 48.9,-55.6 81.5,-117 -504.3,298.6 -2113.8,978.2 -2678.6,1136.3 -644.2,180.5 -2004.8,514.9 -2191.4,-282.3z"/>
    <path class="fil0" d="M23170.2 6025.7c-272.4,117.1 -698.1,459.2 -491.9,753.1 141.5,114.1 879.1,-494 1330.9,-688.2 318.6,-136.9 535.2,-100.2 834,-132.7 -40.5,-24.3 -19.8,-15.7 -81.8,-45.5 -12.5,-6 -73.2,-32.4 -80.2,-34.9 -387.2,-140.1 -1126.6,-17 -1511,148.2z"/>
    <path class="fil0" d="M24156.9 7152.7c314.4,275.5 1300.3,155.7 1779.2,-64.5 -53.5,-23 24.4,-11 -92.9,-25.4l-342.1 6.2c-192.6,-4.9 -301.7,17.8 -420.5,-135.7 603,-250.5 1069.9,-14.5 1718.2,-286.9 -310.7,-25.8 -887,16.8 -1235,26.9 -593.5,17.2 -835,205.5 -1406.9,479.4z"/>
    <path class="fil0" d="M25358.1 5143.3c114.2,140.7 200.5,113.8 479.6,47.2l1706.4 -500.6c-360.2,-94.7 -1891.5,119.2 -2186,453.4z"/>
   </g>
  </g>
 </g>
</svg>
