<?xml version="1.0" encoding="UTF-8"?>
<!DOCTYPE svg PUBLIC "-//W3C//DTD SVG 1.1//EN" "http://www.w3.org/Graphics/SVG/1.1/DTD/svg11.dtd">
<!-- Creator: CorelDRAW 2019 (64-Bit) -->
<svg xmlns="http://www.w3.org/2000/svg" xml:space="preserve" width="3300px" height="2550px" version="1.1" style="shape-rendering:geometricPrecision; text-rendering:geometricPrecision; image-rendering:optimizeQuality; fill-rule:evenodd; clip-rule:evenodd"
viewBox="0 0 33000 25500"
 xmlns:xlink="http://www.w3.org/1999/xlink"
 data-name="Layer 1">
 <defs>
  <style type="text/css">
   <![CDATA[
    .str0 {stroke:#2F2E41;stroke-width:62.5;stroke-miterlimit:22.9256}
    .fil7 {fill:none}
    .fil11 {fill:#FEFEFE}
    .fil2 {fill:blue}
    .fil1 {fill:#2F2E41}
    .fil5 {fill:#3F3D56}
    .fil3 {fill:#A8A8A8}
    .fil0 {fill:#F2F2F2}
    .fil10 {fill:white}
    .fil6 {fill:black;fill-opacity:0.101961}
    .fil4 {fill:black;fill-opacity:0.200000}
    .fil8 {fill:blue;fill-opacity:0.400000}
    .fil9 {fill:blue;fill-opacity:0.800000}
   ]]>
  </style>
 </defs>
 <g id="Capa_x0020_1">
  <metadata id="CorelCorpID_0Corel-Layer"/>
  <g id="_2229360848160">
   <circle class="fil0" cx="8899.4" cy="6458.1" r="6089.2"/>
   <g>
    <path class="fil1" d="M534.3 1830.9c0,2215.5 1389.8,4008.3 3107.5,4008.3l-3107.5 -4008.3zm0 0l0 0 0 0z"/>
   </g>
   <g>
    <path class="fil2" d="M3641.8 5839.2c0,-2240.4 1551,-4053.3 3467.8,-4053.3l-3467.8 4053.3zm0 0l0 0 0 0z"/>
   </g>
   <g>
    <path class="fil2" d="M1660.2 2031.7c0,2104.5 886.3,3807.5 1981.6,3807.5l-1981.6 -3807.5zm0 0l0 0 0 0z"/>
   </g>
   <g>
    <path class="fil1" d="M3641.8 5839.2c0,-2862.8 1792.8,-5179.3 4008.3,-5179.3l-4008.3 5179.3zm0 0l0 0 0 0z"/>
   </g>
   <path class="fil3" d="M2988.1 5867.4c0,0 440.7,-13.5 573.5,-108.1 132.8,-94.6 677.9,-207.5 710.8,-55.9 33,151.7 662.3,754.4 164.8,758.4 -497.6,4.1 -1156.1,-77.5 -1288.7,-158.2 -132.5,-80.7 -160.4,-436.2 -160.4,-436.2z"/>
   <path class="fil4" d="M4446 6409.1c-497.5,4 -1156,-77.6 -1288.6,-158.3 -100.9,-61.5 -141.2,-282.1 -154.6,-383.9 -9.4,0.3 -14.7,0.5 -14.7,0.5 0,0 27.9,355.5 160.4,436.2 132.6,80.7 791.1,162.3 1288.7,158.2 143.6,-1.1 193.2,-52.2 190.5,-127.9 -20,45.7 -74.7,74.3 -181.7,75.2z"/>
   <ellipse class="fil5" cx="6212.1" cy="12504.5" rx="5346" ry="727.3"/>
   <path class="fil6" d="M10700.4 12504.4c0,-337.2 -2009.5,-610.5 -4488.3,-610.5 -2478.8,0 -4488.3,273.3 -4488.3,610.5 0,337.3 2009.5,610.7 4488.3,610.7 2478.8,0 4488.3,-273.4 4488.3,-610.7z"/>
   <ellipse class="fil5" cx="24451.3" cy="19251.2" rx="8090.4" ry="1100.6"/>
   <ellipse class="fil5" cx="9414" cy="18822.4" rx="4860" ry="661.2"/>
   <path class="fil7 str0" d="M13759.3 18264.9c2573,657.6 7518.7,-857.6 8061.9,-2572.9"/>
   <path class="fil7 str0" d="M9385.4 7773.1c0,0 3716.4,-1029.1 3945.1,2287.1 228.7,3316.2 -3058.9,4259.6 -486,4917.1"/>
   <path class="fil7 str0" d="M5794.8 15728.7c0,0 1117,-309.3 1185.7,687.4 68.8,996.7 -919.4,1280.2 -146,1477.9"/>
   <path class="fil1" d="M22795.9 16470.7l-225.2 1437.9c0,0 -1108.7,589 -329.2,606.3 779.6,17.3 4452.1,0 4452.1,0 0,0 710.3,0 -415.7,-623.6l-225.2 -1507.2 -3256.8 86.6z"/>
   <path class="fil6" d="M22084.7 18499.3c177.1,-157.5 486,-321.7 486,-321.7l225.2 -1437.8 3256.8 3.1 225.2 1417.4c262.6,145.4 425.2,256.9 520.4,342.4 144.6,-33 302.7,-155.6 -520.4,-611.4l-225.2 -1507.2 -3256.8 86.6 -225.2 1437.9c0,0 -931.6,495 -486,590.7z"/>
   <path class="fil1" d="M17586.4 6449.2l13641.1 0c284.9,0 515.9,231 515.9,515.9l0 9189c0,284.8 -231,515.8 -515.9,515.8l-13641.1 0.1c-284.9,-0.1 -515.9,-231.1 -515.9,-515.9l0 -9189c0,-284.9 231,-515.9 515.9,-515.9z"/>
   <rect class="fil5" x="17564.2" y="6994.9" width="13685.5" height="7656.9"/>
   <circle class="fil0" cx="24407" cy="6752.3" r="86.6"/>
   <path class="fil1" d="M31743.4 15258.1l0 896c0,0 0,0 0,0 0,284.9 -231,515.8 -515.8,515.8 0,0 -0.1,0 -0.1,0l-13641.1 0.1c0,-0.1 -0.1,-0.1 -0.1,-0.1 -284.8,0 -515.8,-230.9 -515.8,-515.8 0,0 0,0 0,0l0 -896 14672.9 0z"/>
   <polygon class="fil1" points="28235.4,19450.4 28235.4,19623.6 18915.4,19623.6 18915.4,19485 18928.3,19450.4 19158,18826.7 28044.9,18826.7 "/>
   <path class="fil1" d="M31822.1 19280.8c-17,72.6 -81.1,149.1 -225.9,221.5 -519.8,259.9 -1576.5,-69.3 -1576.5,-69.3 0,0 -814.2,-138.5 -814.2,-502.3 22.8,-15.6 46.8,-29.9 71.4,-42.5 218.5,-115.5 943,-400.8 2227.5,12.1 94.6,29.7 179.2,85.1 244.2,160 52,60.9 92.8,138.2 73.5,220.5z"/>
   <path class="fil6" d="M31822.1 19280.8c-636.2,243.7 -1203.2,261.9 -1785,-142.3 -293.5,-203.7 -560.1,-254.1 -760.2,-250.3 218.5,-115.6 943,-400.8 2227.5,12.1 94.6,29.7 179.2,85.1 244.2,160 52,60.9 92.8,138.2 73.5,220.5z"/>
   <ellipse class="fil0" cx="31024.5" cy="19069.3" rx="225.2" ry="69.3"/>
   <circle class="fil0" cx="24407" cy="15968.4" r="329.1"/>
   <polygon class="fil6" points="28235.4,19450.4 28235.4,19623.6 18915.4,19623.6 18915.4,19485 18928.3,19450.4 "/>
   <rect class="fil1" x="3639.2" y="4914.3" width="5946.3" height="6918.3"/>
   <rect class="fil5" x="3038.8" y="4228.2" width="7147" height="2458.6"/>
   <rect class="fil5" x="3038.8" y="7144.2" width="7147" height="2458.6"/>
   <rect class="fil5" x="3038.8" y="10060.2" width="7147" height="2458.6"/>
   <polygon class="fil8" points="8299,5114.4 8756.4,5114.4 8756.4,4657 8299,4657 "/>
   <polygon class="fil9" points="8956.6,5114.4 9414,5114.4 9414,4657 8956.6,4657 "/>
   <rect class="fil2" x="9614.1" y="4657" width="457.4" height="457.4"/>
   <polygon class="fil8" points="8299,8001.8 8756.4,8001.8 8756.4,7544.4 8299,7544.4 "/>
   <polygon class="fil9" points="8956.6,8001.8 9414,8001.8 9414,7544.4 8956.6,7544.4 "/>
   <rect class="fil2" x="9614.1" y="7544.4" width="457.4" height="457.4"/>
   <polygon class="fil8" points="8299,10889.2 8756.4,10889.2 8756.4,10431.8 8299,10431.8 "/>
   <polygon class="fil9" points="8956.6,10889.2 9414,10889.2 9414,10431.8 8956.6,10431.8 "/>
   <rect class="fil2" x="9614.1" y="10431.8" width="457.4" height="457.4"/>
   <circle class="fil1" cx="9585.5" cy="15749.2" r="2258.5"/>
   <rect class="fil1" x="8556.3" y="17521.6" width="686.1" height="1229.3"/>
   <rect class="fil1" x="9928.5" y="17521.6" width="686.1" height="1229.3"/>
   <ellipse class="fil1" cx="9128.1" cy="18765.2" rx="571.8" ry="214.4"/>
   <ellipse class="fil1" cx="10500.3" cy="18736.6" rx="571.8" ry="214.4"/>
   <circle class="fil10" cx="9642.7" cy="15177.4" r="771.9"/>
   <circle class="fil5" cx="9642.7" cy="15177.4" r="257.3"/>
   <path class="fil2" d="M7394.7 13648.9c-182.3,-816.7 400.6,-1641.9 1302,-1843.2 901.5,-201.3 1780.1,297.6 1962.4,1114.3 182.4,816.7 -415,1117.9 -1316.5,1319.2 -901.4,201.2 -1765.5,226.4 -1947.9,-590.3z"/>
   <ellipse class="fil1" transform="matrix(0.841021 -0.359961 0.359961 0.841021 11564.2 14972.8)" rx="1234.4" ry="387.5"/>
   <ellipse class="fil1" transform="matrix(0.841021 -0.359961 0.359961 0.841021 7333.19 16488)" rx="1234.4" ry="387.5"/>
   <path class="fil10" d="M10900.5 16406.7c0,221.1 -569.1,657.5 -1200.6,657.5 -631.6,0 -1229.3,-407.9 -1229.3,-628.9 0,-221 597.7,-171.5 1229.3,-171.5 631.5,0 1200.6,-78.1 1200.6,142.9z"/>
  </g>
  <g>
   <path class="fil11" d="M22902.5 10338.7c122.5,-43.7 465.9,-183.6 626.3,-166.8 144.9,15.1 253.7,302.2 265.9,377.9 -126.6,77.3 -891.6,295.5 -1034.7,335 202.8,16 893.1,-205.8 1102.4,-119.3 57.6,23.8 57.8,22.4 90.1,65.5 21.8,29.1 54,58.3 76.9,78.8 56.4,50.8 133,89 228.9,100.5l-23.1 -31.4c-7.1,-7.4 -15.2,-12.9 -24.3,-21.6 -46.8,-44.8 -84.4,-93.3 -117.9,-156.4 -118.3,-223.6 -139.1,-508 -289.8,-716.4 -18.8,-25.9 -24.6,-28.4 -40.2,-55.4 40.2,-44.5 345.5,-237.2 435.4,-228.5 113.6,60 96.5,1218.4 168.9,1309.9 12.1,-238.6 -16.6,-1243.5 -116.9,-1425.4 -94.4,-0.7 -503.3,289.8 -567.7,344 1.1,2 3.1,2.6 3.7,5.9 0.6,3.1 2.9,4.5 3.8,5.7 4.5,6.6 7.2,10.1 11.8,16.4 56.1,76.1 96.6,162.2 133.4,250.9 28.2,68 95.5,246 101.4,320.6 -11.9,-21.7 -27.4,-37 -43,-68.2 -42.7,-85.3 -65.4,-175.7 -101.7,-263.9 -56.6,-137.6 -107.1,-211.8 -225.4,-269.6 10.6,-3.3 23.5,-3 26.9,-4 24.8,-7.5 148.6,-110.6 174.6,-129.6 65.7,-47.9 128.4,-92.7 198.2,-140.7 109.8,-75.4 310.3,-210.3 489,-203.3 173.8,6.9 427.3,52.9 598.3,86.2 139.8,27.1 271.8,58.4 403.6,109.1 41.3,15.9 81,39 114,51.3 -272.5,-100.5 -596.8,-157.7 -920.1,-190.1 -313.9,-31.6 -324.8,-31.8 -313.1,213 8.2,173.8 21,347.7 33.7,520.9 12.2,165.9 24.8,345 51.8,507.2 15.6,94 74.2,95.3 161,113.5 322.4,67.3 724.4,69.3 1054.9,49.7 97.2,-5.7 166.1,-20.6 254.6,-32.1 9.9,99 44,154 -230.8,216.3 -148.7,33.7 -289.8,37 -446.4,30.2 -210.8,-9.1 -427.4,-27.1 -628.1,-86 -71.6,-21 -112.4,-43.5 -170.2,-67 -3.7,59.5 -11.1,165.4 25.5,198.9l0.7 -108.4c0.1,-0.7 -22.8,13.1 10.6,-29.2 1.3,2.1 2.6,3.2 3,7l16.7 139.9c115.2,32.9 243.1,77.3 377.3,73.5l-342 -88.6 -5.3 -108.9c96.7,11.1 201.5,44 295.4,64.1 58.8,12.6 99.3,6 123.3,51 15.4,28.8 33.2,98.2 63.9,114.5 173.8,42.4 555.9,33.8 710.5,-37l20.7 -126.4 164.3 -71.7c13.8,137.1 -52.3,122.7 -140.5,182.3 61.3,-3.3 102.6,-48.9 153.4,-69.2 -29.5,308.4 68.3,363.9 -588.1,398.5 -240.8,12.7 -484.4,7.7 -724.4,-16 -66.3,-6.6 -157.1,-26 -217.6,-26.6 -165.8,198.3 899.5,111 1163.5,90.8 208.1,-16 402.3,-6.3 423.4,-228.2 13,-136.3 40.9,-505.7 -12.5,-610.1 -228,101.4 -988.7,49.3 -1265,7.3 -154.1,-23.4 -165.4,-10.7 -185.2,-154.5 -14,-101.5 -25.2,-208 -35.9,-311.8 -20.9,-204.6 -44.8,-431.9 -43.7,-639.9 134.6,15.9 220.9,130 227.9,275.8l-67.4 -0.7c-18.7,-0.1 -34.9,6.4 -48.2,19.5 -13.3,13.2 -20,29.2 -19.9,47.9l0.8 278.7 47.8 0.8c60.2,1 112.5,-20.1 155.1,-62.5 42.7,-42.4 63.9,-94.3 63,-154.3 -1.5,-99.5 -10.2,-197.9 -41.6,-265 -31.5,-67.2 -72.6,-107.9 -123,-142.8 -23.9,-16.6 -51.6,-31.5 -84.1,-44l-78.7 -22.4c-20.5,-8.1 -11.6,-3.2 -23,-14 87.6,-69.4 286.2,-24.5 409.4,-5.7 246,37.4 547.1,86.4 772,182.7 71.4,30.5 85.4,50.6 116.9,120.8l49.2 133.7c20.1,44.3 -6.1,23.2 37.7,30.6 9.5,-16.3 9.6,-26.1 1.2,-59.5l-47.7 -170.8c93.9,28.8 142.2,139.4 144.8,264l-45.6 -0.2c-18.6,-0.1 -34.7,6.5 -47.9,19.6 -13.2,13.2 -19.9,29.2 -19.8,47.7l0.8 237.3 2.6 0.1c62.9,0.9 117.5,-21.9 160.9,-67.2 43.4,-45.4 63.7,-100.7 59.6,-163.3 -11.9,-186.5 -66.7,-371.3 -250.6,-417.4 -85,-21.3 -40.4,-13 -95.7,-51.1 -220.1,-151.6 -768.2,-271.1 -1060.9,-304.7 -243,-27.8 -312.3,-22.6 -490.7,85.7 -124.8,75.8 -240,162.6 -360.6,244l-313.8 221.8c-59.2,44.7 -142.9,105.4 -216.8,144.4 -53.1,41.4 -265.1,125.4 -321.8,156.4z"/>
   <g>
    <path class="fil11" d="M23371.2 12020l0 0zm-851.6 -31l0 0zm0 0c36.5,24.3 48.7,78.2 59.2,119.4 3.7,14.7 12.4,32.6 13.5,46 -10.7,-0.9 -31,-8 -43,-11.4 -12.9,-3.7 -32,-11.6 -45.2,-11.9 3.6,15.7 21.6,42.5 30.7,54.7l49.1 59.7c12.7,14.3 52.6,45.3 28.2,62.9 -10.8,7.9 -14,9.3 -22.4,21.7 28.5,15 48.2,21.7 77.9,41.3 48.5,32.1 95.1,67.2 141.7,101.9l209.9 152.9c47.8,34.6 99.8,64 152.1,91.5l-21.9 29.9c-30.3,39.3 7.5,-6.1 169,74.3 73.1,36.4 144.9,77.3 225.7,95.8 21,4.8 40.8,6 61.8,10.8 21.1,4.8 32.1,12.9 54.2,15.9 77.7,10.5 162.8,-12 233.5,0.1 14.8,2.5 13.6,4 19.4,16.9 7.1,15.5 11.2,39.7 11.2,61.2 72.6,0 146.6,6 218.5,15l274.6 36.8c61.6,8.5 25.5,6.2 109.2,-38.9 18.1,-9.7 32,-17 51.9,-25.8 58.7,-25.7 296,-78.8 373.9,-98.2 120.2,-29.9 243.6,-60 357.5,-109.2 89.1,-38.5 176,-81 256.7,-134.7l93.8 -64.3c146.8,-109 199,-154.6 329.8,-294.5 4.5,-4.9 4.4,-5.5 8.1,-10.1 55.8,-68.7 113,-138.2 158.6,-214.2 39.3,-65.6 80.7,-131.5 111,-202.2l37 -79.4c71,-161.5 125.9,-348.2 142.6,-524.7 12.4,-130.7 0.7,-231.2 -31.4,-348.1 -5.5,-19.9 -12.5,-38.6 -18.2,-59.4l-20.2 -57.4c-6.9,-17.2 -10.4,-43.9 -26,-54.3 -0.5,24.2 -7.9,61.5 -7.8,95.6 0.2,80 8.4,238.1 -18.2,297.2 -25.9,57.8 -80.6,95.3 -128.6,132.9 -28.7,22.4 -61.1,45.8 -81.6,76.4 30.7,-2.6 62.7,-20.7 93.4,-23.3 0,79.5 -32.3,81.7 -46.9,152.3 -1.6,7.9 -4.3,14.9 -5,23.5 -25,-2.1 -68.9,-32.5 -96.1,-38.8 1.1,45.1 38.7,78.3 -49.7,144.3l-41.1 31.4c5.9,11.1 11.5,20.3 17.3,31.8 20.8,41 20.4,41.4 -11,64.9 -11,8.2 -19.3,13.5 -30.7,21.2 -66.9,44.7 -112.1,18.2 -147.8,31.1 -5.1,1.9 -12.1,7.6 -14.7,11.2 12,2.8 23.8,8.7 35.4,13.8 11.9,5.3 24.2,9.1 34.6,14.6 -14.3,21.3 -38.1,49.8 -56.4,67.9 -22.2,22 -42.7,43.4 -68.1,61.4 -20.6,14.5 -40.3,16.5 -59.8,25.8 -0.6,-29 -8,-61.9 -10.4,-90.5 -22.2,25.4 -20.4,75.3 -30.8,106.3 -3.7,11.2 -10.9,23 -13.3,33.3 -21.2,-11.2 -40.5,-25.4 -64.9,-31 -17.7,11.7 -38.1,46.5 -52.7,63.8 -8.9,10.6 -19.4,18.4 -30.9,26.1 -9.2,6.3 -27.5,18.6 -38.4,21.2 0,-36.8 2.6,-66.3 2.6,-100.8 -17.4,0.4 -40.9,17.1 -52.4,25.4 -17.1,12.6 -27.7,23.4 -41.8,38.6 -97.1,104.2 8.2,162.8 -28.7,240.1 -5.5,11.6 -6.7,15 -15.3,23.5l-42.8 37.6c-14.5,13.3 -11.4,4.3 -31.9,4.3 -0.8,-9.8 -2.5,-9.5 -8.2,-15.1 -5.7,-5.6 -5.3,-7.3 -15.2,-8.1 -3.8,14.3 -37.4,56.1 -50.5,63.4 -21,11.8 -77.3,-4 -102.7,-4 -19.7,29.4 -39.3,55.4 -69,76 -30.3,20.9 -62.3,34.2 -103.3,44.4 -31.4,7.8 -61.8,10.5 -94.3,14.7 -41.9,5.4 -133.7,8.5 -174.8,9.5 -87.9,2.1 -166.6,48.1 -254.4,13 -52.6,-21 -102.3,-45.1 -158.3,-59.5 -20.1,-5.1 -41.6,-8 -62.3,-12.8 -9,13.3 -16.6,28.4 -20.8,46.5 -33.3,-7.7 -117.7,-56.8 -149.8,-75.8 -58.9,-34.9 -112.1,-73.2 -163.6,-116.2l-58.6 -55.4c-28.3,-29.3 -52.9,-60.3 -68.6,-99.6 -5.9,-14.6 -8.9,-27.5 -14.8,-42.1 -5.9,-14.7 -11.9,-25.7 -19.7,-37.3l-54.5 0c0,46 -4.1,22.5 15.6,51.7 -72.2,0 -112.6,-38.2 -136.9,-98.9 -20.7,-51.6 -24.8,-136.2 -99.4,-136.2 0,14.6 -1.9,30.1 3.3,40.6 5.3,10.7 11.7,15.6 14.9,29.1 -35.8,-23.8 -23.7,-37.3 -102.1,-76.6 -53.9,-27.1 -107.9,-44.3 -143.1,-95.4 -5.6,-8.3 -17.4,-30.3 -19.6,-39.9 13.9,9.3 26.9,20 42.3,27.7 21.9,11 33.5,8.5 64.1,8.5 -3.3,-9.2 -41,-27.7 -49.3,-33.6 -64.5,-45.5 -118.9,-105.6 -163.1,-171l-30.8 -52c-54.6,-108.8 -112.2,-247.9 -136.1,-365.9 -8.3,-41.1 -18.2,-101.5 -17.9,-150.1 0,-13.4 1.1,-27.5 -0.7,-40.7 -3.5,-25.5 2.8,-170 6.6,-198.9 9.5,-72.3 18.7,-146.9 33.7,-217.2 9.5,-44.6 23.2,-88.3 37.3,-130.8 26.7,-80.4 66.8,-136.2 78.4,-172.7 9.3,-29 -9.5,-5.4 17.8,-59.7l85.6 -165.4c9.6,-19.1 18.4,-39.5 29.4,-56 11.6,-17.2 21.8,-31.6 34.6,-48.3 10.5,-13.8 25.2,-37.5 25.2,-60.2 -8.9,4.7 -17,9.3 -26.8,14.7 -9.8,5.4 -16,11 -27.7,13.7 1.9,-23.4 83,-159 104,-162.6 21.9,-3.9 63.7,2.4 88.1,2.4 0.5,-22.9 11.6,-47.4 10.3,-72.1 -0.4,-8.4 -3.4,-29.4 -4.4,-37.1 -1.8,-13.2 -0.7,-27.3 -0.7,-40.7l36.3 -18c12,-6.5 23.3,-14.3 34.5,-22.6 51.6,-38.4 81.8,-71.1 121.3,-101.5 17.9,-13.8 45.3,-38.2 70.1,-43.9 -14.8,27.7 -23.4,48.7 -23.4,82.7 93.4,-62.3 66.9,-149 167.3,-190.2 29.3,-12 57.7,-21.4 84.4,-37.4 111.4,-66.4 199.6,-121.6 327.3,-154.9 65.5,-17.1 132.7,-27.8 201.4,-37.3 137.6,-19 316.1,-9.9 453.9,10.4 54.3,7.9 105.6,16.3 159.8,19.3 11.9,0.6 14.3,2.4 28.6,2.5 14.4,0 17.4,2.3 28.6,2.5 -3.8,-14 -28.4,-21.7 -36.4,-33.5 116.3,0 394.9,150.7 509.4,219.1 104.7,62.5 125.5,77.5 217.2,145.6 23.4,17.3 44.8,36.1 68.2,53.5l101.5 79.9c59,48 263.3,213.2 311,238.3 -4.1,-17.5 -20.9,-47.8 -30.1,-63.1 -34.8,-58.5 -71.4,-113.7 -109.6,-169.9 -13,-19.1 -24.9,-36.1 -38.7,-54.5 -13.9,-18.5 -25.6,-35.7 -39.3,-54 -7.1,-9.3 -12.7,-16.8 -20.1,-26.5l-63 -79.4c-24,-29.7 -63.3,-68.4 -90.6,-95.9 -47.5,-47.9 -103.4,-86.5 -161.1,-121.3 -60.1,-36.2 -148.7,-46.5 -201,-81.6 -59.3,-39.9 -46.6,-33.1 -118,-68.6 -39.7,-19.7 -86.2,-41.1 -117,-72.1 -55.6,-56 -107.7,-78.3 -186.1,-94 -73.5,-14.7 -146.5,-13.6 -222.2,-14l-219.2 17c-36.8,5.1 -209.3,24.7 -255.9,24.4 -15.5,-0.1 -31.3,0.3 -46.8,0.1 -16.6,-0.2 -29.3,-4.9 -44,-5.3 0,-13.6 -4.2,-24 -5.2,-36.1 59.2,-39.5 184.4,-40.4 260,-48.8l48.9 -2.9c12.4,-0.3 13.9,-1.7 23.7,-2.3 14.1,-1 14.1,3.1 20.4,-5.5 -26.1,0 -58.5,-10.4 -83.2,-15.3 -26.5,-5.2 -54.9,-15.7 -82.9,-15.7l135.4 -12.5c30.7,-5.2 56.1,-11.7 80.1,-28.8 7.2,-5.1 15.6,-11 18.1,-20.7 -21.8,-1.8 -43.9,-7.6 -69.7,-4.8 -251.1,27.5 -544.1,47.1 -771.4,152.1l-25.1 13.8c-25,13.2 -47.9,29 -67.7,48.8 -11.2,11.3 -33,26 -34.4,43.3l63.8 -13.9c62.4,-15.4 119.7,-41.6 180.5,-60.7 21.3,-6.7 40,-11.6 63,-17.4 62.3,-15.6 160.3,-19 206.7,11.9 -6.7,10 -18.4,12.6 -30.3,19 -32.9,17.8 -66.5,31.9 -101.7,46 -46.6,18.7 -98.3,35.1 -148,51.6 -50.3,16.7 -98.2,33 -147.2,52.5 -23.9,9.5 -47,19.2 -68.6,29.9l-68.4 32.8c-44.1,24.5 -84.2,47 -125.9,73.6 -80.7,51.6 -156.4,108.2 -228.4,170.7 -5,4.3 -107.9,86.3 -117.4,76.9 -3.5,-7.3 -3.6,-25 -5.8,-35.5 -2.1,-10.5 -7.5,-20.1 -12.3,-29.1 -13.1,3.5 -28.4,23.2 -32.3,37.7 -5,18.4 5.6,41.9 9.8,57 5.7,20.1 4.3,40.2 -4.3,57 -3.5,6.8 -9.9,16.1 -14.4,21.8 -2.8,3.6 -5.5,7 -8,10.1 -5.3,6.5 -1,5.1 -10.6,7.6 -3.1,-11.8 -37.2,-44.3 -47.1,-56.4 -7.9,-9.7 -14.4,-19.3 -22.2,-29.6 -7.9,-10.4 -13.9,-20.8 -24.1,-27.7 0,40.8 20.1,84.3 6.8,117.9 -23.4,59.5 -116.9,89.2 -160,187.1 -5.7,13.1 -10.1,28.9 -18.7,40.8 -1.8,2.5 -3.2,4 -4.7,5.7 -17.1,-73.2 29,-79.5 36.7,-128.9 1.6,-10.2 -0.3,-7.5 -0.3,-21 -51.6,1.1 -58.8,82 -67.7,118.7 -3.1,13.1 -14.4,34.3 -15.4,46.7 -13.3,-9.8 -8.9,-62 -33.7,-80.2 -30.5,22.2 5.7,71.4 -67.9,126.4 -31.1,23.2 -99.6,39.4 -111.3,83 24.3,5.6 45.5,17.5 70.1,23.2 0,88.8 -19.9,79.6 -66.4,89 -8,1.6 -11.5,3.4 -19.3,4 6.9,25.7 39.9,48.4 36.4,95.5 -1.1,13.7 -6.7,26.1 -7.8,38.9 -22.3,-16.2 -7.6,-68.7 -57.1,-69.8l-17.9 54.6c-6.3,21.5 -9.8,34.3 -19.3,53.1 -27.7,54.7 -30.3,44.3 -30.3,117.1 15.7,7.6 41.4,10.6 57.1,18.1 -5.1,22 -20.8,40.1 -26,62.1 -26.2,0 -117.3,-30.9 -132.4,-41.4 -41.8,-29.1 23.4,-379.8 23.4,-470.3l-5.2 0c0,21.4 -7.1,39.3 -11.9,60.5 -11.5,50.3 -55.5,248.6 -76.4,285.7 -5.4,9.6 -63.7,70 -72.7,72.4 0,-30 -5.2,-55.2 -5.2,-82.7 -11.3,8.3 -37.5,91.7 -40.9,103.9 -35.7,127.4 -46.8,258 -39.5,392.3 0.6,11.3 0,24.7 -0.1,36.2 -0.2,42.9 17.3,196 23.1,230.3 29.8,178.4 58.6,198.6 65.2,227 9.2,-6.7 9.2,-28.8 11.5,-40.2 2.2,-10.8 6,-35.6 9.3,-42.5 8.9,6.5 16.1,29.4 17.7,42.1 4.2,33.9 -29.4,53.8 -38.6,81.9 -3.5,10.8 12.7,28.9 19.4,37.7 39.7,52.5 82.6,44.8 133.9,78.7 22.4,14.8 29.3,92.2 33.8,118.8 11.6,69.5 44.1,255.1 44.1,323 18.4,-4.3 42.3,-24.4 59.7,-25.8 4.9,58.8 62.5,97.5 100.6,135 16.3,16 21.1,28.4 31.8,48.5 -34.8,-8.1 -49.3,-43.3 -81.5,-55.9 -13.4,-5.2 -22.6,-6.2 -40.5,-6.2 0,53.3 23.2,86.3 48.8,124.6l20.6 31.2c3.7,5.4 0.7,1.5 3.3,4.4 -0.8,-34.4 -22.6,-73.4 -23.4,-108.5z"/>
    <path class="fil11" d="M26561.7 10743.8l1.3 -3.5c-0.7,0.9 -1.1,1.9 -1.3,3.5zm-56 51.8l-2.1 -3.3 2.1 0.5 0 2.8z"/>
   </g>
   <g>
    <path class="fil11" d="M22252.3 13126.3c6.4,-357.4 -138.5,-656.2 -502.5,-630.4 -257.9,18.2 -607.3,63.4 -824.1,-220.9 84.2,1.8 562.5,131.5 624.8,-27.7 26.5,-274.3 -379.8,-269.7 -524,-255 -214.6,21.9 -373.1,57.4 -607.8,25.5 -240.6,-32.8 -461.9,-108.5 -687.8,-231.4 -73.6,-40 -533.7,-327.1 -598.3,-421.5 340.5,161.3 610.8,339.7 979.5,440.4 189.9,51.9 798.2,132.8 787.8,-92.5 -12.8,-298.4 -901.4,-301.4 -1039.3,-316.4 -297.4,-32.2 -868,-199.7 -1030.2,-486 229.7,78.5 434.4,214.1 691.4,289.1 527.6,153.8 744.9,-22.8 1280.6,157.9 305.8,103.1 585.1,357.3 654.2,290.3 155,-300.8 -277.3,-597.6 -515.2,-640.3 -202.6,-36.4 -557.4,63.7 -764.6,91.1 -506.5,67 -1274.2,-395.9 -1750.4,-685.9 148.8,72.3 1304.9,448.1 1524.7,512.4 139.3,40.8 381.9,107 444.4,-31.5 -17.1,-272.5 -973.8,-338.3 -1164.4,-363.4 -489.7,-64.5 -532.1,-128 -945.9,-373.9 -134.2,-79.8 -148.2,-91.8 -228.4,-209.1 550.4,308.7 851.8,418.8 1448.3,508.3 546.2,82.1 946.4,14.9 1402.1,199.6 675.9,273.9 1632.6,1337.6 1394.1,2362.9l-39 95.3c-2.1,3.5 -6.1,9.5 -10,13.1z"/>
    <path class="fil11" d="M21520.2 9738.7c-24.1,8.9 9.1,3 -43.4,10.6 -20.5,3 -33,2.5 -54.2,3.7 -91.4,5.3 -172.9,20.3 -245.8,75.8 -126.6,96.3 -83,292.8 -25.4,391.8 176.4,303.6 731.1,446.3 1046.8,1198.5 56,133.4 195.3,593.8 185.6,815.3l-114.9 -316.6c-22.4,-52.1 -29.7,-92 -52.6,-148.2 -81.7,-199.9 -307.9,-517.8 -459.6,-688.3 -900.5,-1012.5 -1466.9,-601.6 -2465.3,-799.2 -436.4,-86.4 -977.9,-316.6 -1337.5,-599.6 653.1,285.7 1200.8,482.3 1911.1,419.1 156.5,-13.9 263.2,-68.5 402,-113.1 370.6,-119 587,-481.1 1253.2,-249.8z"/>
    <path class="fil11" d="M19674.4 9678.1c-114.4,-154.2 -256.6,-114.6 -408.9,-120.9 71.1,-83.7 221.6,-75.9 318.2,-72.5 248.6,8.9 510.3,136.2 769.7,155 130.8,9.5 228.2,-17.2 342.9,-23.2 -99.5,162.1 -461.7,305.7 -632.5,355.4 -261.5,76 -463.4,68.8 -764,29.7 -486.8,-63.5 -1084.3,-286.8 -1541.1,-540.9l-140.4 -97.5c-38.4,-42 -21,-23.7 -35,-50 216.5,127.6 907.6,417.9 1150.1,485.5 276.6,77.1 860.8,220 941,-120.6z"/>
    <path class="fil11" d="M21207.2 11229.7c117,50 299.8,196.2 211.2,321.8 -60.7,48.7 -377.4,-211.1 -571.4,-294 -136.8,-58.5 -229.8,-42.9 -358.1,-56.7 17.4,-10.4 8.5,-6.8 35.1,-19.5 5.4,-2.6 31.5,-13.8 34.4,-14.9 166.3,-59.8 483.8,-7.3 648.8,63.3z"/>
    <path class="fil11" d="M20783.6 11711.2c-135,117.6 -558.3,66.5 -764,-27.6 23,-9.8 -10.4,-4.7 39.9,-10.8l146.9 2.6c82.7,-2.1 129.6,7.6 180.6,-57.9 -259,-107.1 -459.4,-6.2 -737.8,-122.6 133.4,-11 380.9,7.2 530.3,11.5 254.8,7.3 358.5,87.8 604.1,204.8z"/>
    <path class="fil11" d="M20267.8 10852.8c-49,60.1 -86.1,48.6 -205.9,20.1l-732.7 -213.8c154.6,-40.5 812.2,50.9 938.6,193.7z"/>
   </g>
   <g>
    <path class="fil11" d="M26419.1 13127.7c-6.3,-358.7 139,-658.7 504.4,-632.9 258.8,18.3 609.4,63.7 827,-221.7 -84.5,1.8 -564.5,132 -627,-27.8 -26.6,-275.5 381.2,-270.8 525.9,-256 215.3,21.9 374.4,57.6 609.9,25.5 241.5,-32.9 463.6,-108.9 690.3,-232.3 73.9,-40.2 535.6,-328.4 600.4,-423.2 -341.7,161.9 -612.9,341 -982.9,442.2 -190.6,52.1 -801.1,133.3 -790.7,-92.9 12.9,-299.6 904.6,-302.6 1043.1,-317.6 298.4,-32.4 871,-200.6 1033.9,-488 -230.5,78.8 -436,215 -693.9,290.2 -529.5,154.5 -747.5,-22.9 -1285.3,158.6 -306.8,103.5 -587.1,358.7 -656.5,291.5 -155.5,-302 278.3,-600.1 517.1,-642.9 203.3,-36.5 559.4,64 767.3,91.5 508.3,67.2 1278.8,-397.5 1756.7,-688.7 -149.3,72.6 -1309.6,449.9 -1530.1,514.5 -139.8,40.9 -383.3,107.4 -446.1,-31.7 17.2,-273.6 977.4,-339.6 1168.6,-364.8 491.5,-64.8 534.1,-128.5 949.3,-375.5 134.7,-80 148.8,-92.1 229.2,-209.9 -552.3,310 -854.8,420.5 -1453.5,510.4 -548.1,82.4 -949.7,14.9 -1407.1,200.4 -678.3,275 -1638.5,1343 -1399.1,2372.4l39.1 95.6c2.2,3.5 6.1,9.5 10,13.1z"/>
    <path class="fil11" d="M27153.9 9726.6c24.2,9 -9.2,3 43.6,10.7 20.5,2.9 33.1,2.5 54.4,3.7 91.7,5.3 173.5,20.4 246.6,76 127.1,96.7 83.3,294 25.6,393.4 -177.1,304.9 -733.8,448.1 -1050.6,1203.3 -56.2,134 -196,596.2 -186.3,818.6l115.3 -317.9c22.5,-52.3 29.8,-92.4 52.8,-148.8 82,-200.6 309,-519.8 461.2,-691.1 903.8,-1016.5 1472.3,-603.9 2474.2,-802.3 438,-86.8 981.4,-317.8 1342.3,-602 -655.4,286.8 -1205.1,484.2 -1918,420.8 -157,-14 -264.1,-68.8 -403.4,-113.6 -371.9,-119.5 -589.1,-483 -1257.7,-250.8z"/>
    <path class="fil11" d="M29006.4 9665.8c114.7,-154.8 257.5,-115.1 410.3,-121.4 -71.3,-84 -222.3,-76.2 -319.4,-72.8 -249.4,8.9 -512,136.7 -772.4,155.6 -131.2,9.5 -229,-17.2 -344.1,-23.3 99.8,162.8 463.4,307 634.7,356.8 262.5,76.4 465.1,69.2 766.8,29.8 488.5,-63.7 1088.2,-287.9 1546.7,-543l140.9 -97.9c38.5,-42.1 21,-23.8 35.1,-50.1 -217.4,128 -910.9,419.5 -1154.3,487.4 -277.6,77.3 -863.9,220.8 -944.3,-121.1z"/>
    <path class="fil11" d="M27468 11223.6c-117.4,50.2 -300.9,197 -212,323 61,49 378.8,-211.8 573.5,-295.1 137.3,-58.8 230.6,-43 359.4,-57 -17.4,-10.4 -8.5,-6.7 -35.2,-19.5 -5.4,-2.6 -31.6,-13.9 -34.6,-15 -166.8,-60 -485.5,-7.3 -651.1,63.6z"/>
    <path class="fil11" d="M27893.2 11707c135.5,118.1 560.3,66.8 766.7,-27.7 -23.1,-9.8 10.5,-4.7 -40.1,-10.9l-147.4 2.7c-83,-2.1 -130,7.6 -181.2,-58.2 259.9,-107.4 461.1,-6.2 740.4,-123.1 -133.9,-11 -382.2,7.2 -532.2,11.6 -255.7,7.3 -359.8,88.1 -606.2,205.6z"/>
    <path class="fil11" d="M28410.8 10845.1c49.2,60.4 86.4,48.9 206.7,20.3l735.3 -214.7c-155.2,-40.6 -815.1,51.1 -942,194.4z"/>
   </g>
  </g>
 </g>
</svg>
