<?xml version="1.0" encoding="UTF-8"?>
<!DOCTYPE svg PUBLIC "-//W3C//DTD SVG 1.1//EN" "http://www.w3.org/Graphics/SVG/1.1/DTD/svg11.dtd">
<!-- Creator: CorelDRAW 2019 (64-Bit) -->
<svg xmlns="http://www.w3.org/2000/svg" xml:space="preserve" width="2550px" height="3300px" version="1.1" style="shape-rendering:geometricPrecision; text-rendering:geometricPrecision; image-rendering:optimizeQuality; fill-rule:evenodd; clip-rule:evenodd"
viewBox="0 0 25500 33000"
 xmlns:xlink="http://www.w3.org/1999/xlink"
 data-name="Layer 1">
 <defs>
  <style type="text/css">
   <![CDATA[
    .str0 {stroke:black;stroke-width:20.8;stroke-miterlimit:22.9256}
    .fil16 {fill:#FEFEFE}
    .fil3 {fill:#3A3768}
    .fil2 {fill:#444053}
    .fil8 {fill:#5F5570}
    .fil1 {fill:#6C63FF}
    .fil7 {fill:#8E6F7F}
    .fil14 {fill:#A8A8A8}
    .fil10 {fill:#BC8487}
    .fil4 {fill:#E6E8EC}
    .fil9 {fill:#EAEAF2}
    .fil11 {fill:#FFC4D0}
    .fil13 {fill:#FFD037}
    .fil12 {fill:black;fill-opacity:0.011765}
    .fil5 {fill:black;fill-opacity:0.101961}
    .fil0 {fill:#6C63FF;fill-opacity:0.101961}
    .fil15 {fill:black;fill-opacity:0.200000}
    .fil6 {fill:url(#id0)}
   ]]>
  </style>
  <linearGradient id="id0" gradientUnits="userSpaceOnUse" x1="10270.8" y1="21262.9" x2="15180.7" y2="21262.9">
   <stop offset="0" style="stop-opacity:0.25098; stop-color:gray"/>
   <stop offset="0.541176" style="stop-opacity:0.121569; stop-color:gray"/>
   <stop offset="1" style="stop-opacity:0.101961; stop-color:gray"/>
  </linearGradient>
 </defs>
 <g id="Capa_x0020_1">
  <metadata id="CorelCorpID_0Corel-Layer"/>
  <g id="_2247905970656">
   <path class="fil0" d="M14885 8963.5c-1601,-55.7 -3125.9,-572.4 -4581.9,-1137.9 -1456.1,-565.5 -2898.3,-1192.2 -4461,-1491.7 -1005.1,-192.7 -2154.6,-219.9 -2964.3,318.8 -779.5,519.5 -1031.3,1413.8 -1166.6,2244.5 -101.9,624.9 -161.8,1282.6 117.2,1867.4 194,406.2 537.8,747.6 775.8,1136.7 828,1353.7 242.7,3023 -654.3,4344.7 -420.5,620.2 -909.1,1212.2 -1233.9,1871.7 -324.8,659.5 -475,1416.2 -190.7,2089.6 281.5,667.9 952.6,1168.6 1679.7,1521.1 1476.5,716.1 3215.8,921 4913.1,1037 3755.9,257 7531.6,145.7 11297.4,34.4 1393.8,-41.4 2793.4,-83.2 4164.4,-298.6 761.4,-119.7 1547.3,-309.5 2100.2,-768.1 701.6,-582.1 875.5,-1567.6 405.2,-2297.7 -788.6,-1224.2 -2968.5,-1528.3 -3520.4,-2842.1 -303.3,-723.3 8.2,-1528.8 449.2,-2199.6 946,-1438.8 2531.4,-2701.2 2614.8,-4345.7 57.4,-1129.5 -704.8,-2260.8 -1883.3,-2795.4 -1235.1,-560 -2948.2,-489.8 -3859.1,437.6 -938.8,954.9 -2587.8,1322.3 -4001.5,1273.3z"/>
   <path class="fil0" d="M19855 25527.6c0,-561.8 -3366.6,-1017.2 -7519.5,-1017.2 -4152.9,0 -7519.5,455.4 -7519.5,1017.2 0,561.8 3366.6,1017.2 7519.5,1017.2 4152.9,0 7519.5,-455.4 7519.5,-1017.2z"/>
   <path class="fil1" d="M8613 22499.2c0,0 519.5,-83.1 831.2,284 0,0 -228.6,180.1 -720.4,-69.3l-110.8 -214.7z"/>
   <path class="fil1" d="M8557.6 22491c0,0 -331.5,410.2 -169,862.1 0,0 270.2,-108.1 299.6,-658.7l-130.6 -203.4z"/>
   <path class="fil1" d="M8260.7 21820.4c0,0 207.8,-381 1039,152.4 0,0 -110.8,256.3 -477.9,235.5 -367.1,-20.8 -465.3,-187 -561.1,-387.9z"/>
   <path class="fil1" d="M8206.1 21792.9c0,0 -431.2,-49.4 -473,937.6 0,0 273.3,56.9 467.5,-255.6 194.2,-312.4 113.8,-487 5.5,-682z"/>
   <path class="fil1" d="M7954.7 21005.8c0,0 242.5,-672.1 1122.4,-194.2 0,0 -200.9,616.7 -1032.3,422.8l-90.1 -228.6z"/>
   <path class="fil1" d="M7684.6 20001.2c0,0 457.2,-678.8 1267.8,-49.5 0,0 -284,637.3 -1198.5,290.9l-69.3 -241.4z"/>
   <path class="fil1" d="M7587.6 19045.3c0,0 533.4,-623.4 1335.9,0 0,0 -505.9,547.2 -1335.9,159.3l0 -159.3z"/>
   <path class="fil1" d="M7504.5 18117.2c0,0 540.3,-651.4 1309.4,-34.7 0,0 -609.8,574.9 -1309.4,187.1l0 -152.4z"/>
   <path class="fil1" d="M7553 17292.7c0,0 569,-838.2 1288.6,-270.2 0,0 -609.8,720.6 -1288.6,429.5l0 -159.3z"/>
   <path class="fil1" d="M7684.6 16329.9c0,0 602.6,-831.2 1302.4,-194 0,0 -713.6,720.4 -1302.4,346.4l0 -152.4z"/>
   <path class="fil1" d="M7885.7 15469.3c0,0 713.2,-781 1335.8,-470.1 0,0 -743.6,829.5 -1367,677.1l31.2 -207z"/>
   <path class="fil1" d="M8134.8 14653.7c0,0 824.5,-956.2 1302.5,-637.5 0,0 -606.6,742.1 -1360.6,817.5l58.1 -180z"/>
   <path class="fil1" d="M8494.8 13707.2c0,0 720.8,-781.2 1247.2,-587.3 0,0 -616.4,810.7 -1344,831.4l96.8 -244.1z"/>
   <path class="fil1" d="M8820.8 12822.1c0,0 796.6,-748.1 1142.9,-616.5 0,0 -574.9,831.2 -1177.5,782.7l34.6 -166.2z"/>
   <path class="fil1" d="M9139.4 12004.7c0,0 685.7,-893.5 1059.8,-824.2 0,0 -415.6,796.5 -1059.8,915.3l0 -91.1z"/>
   <path class="fil1" d="M9485 10903.4c0,0 606.3,-685.2 933.6,-683.5 0,0 -478.4,915.3 -958.3,906.9l24.7 -223.4z"/>
   <path class="fil1" d="M9690.1 10169l585.3 -1426.9c0,0 29.4,1289.8 -660,1691.5l74.7 -264.6z"/>
   <path class="fil1" d="M9927.6 8595.4c0,0 96.9,-1191.4 34.6,-1288.3 0,0 418.8,989.5 -38.6,1814.7l4 -526.4z"/>
   <path class="fil1" d="M7932.2 20989.7c0,0 -607.3,-376.3 -1000.1,544.2 0,0 540.2,358.7 1071.4,-309.4l-71.3 -234.8z"/>
   <path class="fil1" d="M7665.3 19962.8c0,0 -744.6,-339.6 -1106,621.4 0,0 575.4,395.8 1173.8,-378.4l-67.8 -243z"/>
   <path class="fil1" d="M7553 19102.5c0,0 -533.4,-623.4 -1335.8,0 0,0 505.6,547.2 1335.8,159.3l0 -159.3z"/>
   <path class="fil1" d="M7486.4 18117.2c0,0 -540.5,-651.4 -1309.3,-34.7 0,0 609.5,574.9 1309.3,187.1l0 -152.4z"/>
   <path class="fil1" d="M7553 17316.4c0,0 -379,-938.8 -1202.8,-535.1 0,0 445.3,832.7 1169.4,691l33.4 -155.9z"/>
   <path class="fil1" d="M7732.3 16325.2c0,0 -376.5,-955.1 -1212.1,-512.3 0,0 511.6,875.4 1175,660l37.1 -147.7z"/>
   <path class="fil1" d="M7965.9 15474.2c0,0 -148.5,-1047.4 -839.9,-1141.1 0,0 146.7,1104.2 747.6,1329.6l92.3 -188.5z"/>
   <path class="fil1" d="M8152.6 14655.4c0,0 -58.1,-1261.6 -630.8,-1305.4 0,0 19.3,957.3 566.3,1484.2l64.5 -178.8z"/>
   <path class="fil1" d="M8554.4 13671.1c0,0 -171,-1048.9 -717.4,-1177.3 0,0 67.8,1016 663.2,1434.8l54.2 -257.5z"/>
   <path class="fil1" d="M8885.6 12829.7c0,0 -5.9,-1092.9 -339.9,-1253.4 0,0 -207,989.5 243.2,1393l96.7 -139.6z"/>
   <path class="fil1" d="M9164.9 11991.9c0,0 -47,-1125.6 -392.6,-1284.2 0,0 -118.5,890.6 340.6,1357.7l52 -73.5z"/>
   <path class="fil1" d="M9533.5 10992.5c0,0 -2.2,-915.3 -249.1,-1130 0,0 -245.4,1002.8 120.2,1314l128.9 -184z"/>
   <path class="fil1" d="M9660.9 10123.9l-240 -1523.6c0,0 -326.5,1248.5 251.4,1798.5l-11.4 -274.9z"/>
   <path class="fil1" d="M9707.9 8609.7c0,0 -616.7,-1023.8 -603.9,-1137.9 0,0 65.3,1073.6 841.1,1608l-237.2 -470.1z"/>
   <path class="fil1" d="M9780.1 8307.4c0,0 -581.8,-1454.8 -845,-1572.5 0,0 831.2,422.5 893.5,1531l-48.5 41.5z"/>
   <path class="fil2" d="M9457.1 11134.7l-39.9 -12.1c491.1,-1601.3 613.8,-2622.2 345.1,-2878l28.7 -30.2c284.5,269.9 169.2,1279 -333.9,2920.3z"/>
   <path class="fil2" d="M8104.9 14883l-58.7 -20.8c52,-146.7 108.2,-295.6 167,-442.6 512.6,-1277.4 949,-2465.6 1228.7,-3377.9l51.3 -24.7c-280.3,914 -708.8,2147.9 -1222.1,3426.9 -58.6,145.4 -114.5,293.8 -166.2,439.1z"/>
   <path class="fil2" d="M9344 23697.7c-7.9,-8.9 -804,-904.9 -1358.6,-2435.1 -324.6,-894.6 -507.3,-1838.9 -537,-2789.9 -38.1,-1190.6 211.8,-2520 639.7,-3727.5l46.5 54.5c-960.5,2710.2 -578.8,5032.9 -72.7,6431.8 549.2,1516.1 1335.8,2402.7 1343.8,2411.4l-61.7 54.8z"/>
   <path class="fil3" d="M16333.1 13377.2l105.9 0c31.3,0 56.6,25.3 56.6,56.6l0 1693.1c0,31.3 -25.3,56.6 -56.6,56.6l-105.9 0c-31.3,0 -56.6,-25.3 -56.6,-56.6l0 -1693.1c0,-31.3 25.3,-56.6 56.6,-56.6z"/>
   <path class="fil3" d="M9049.6 11961.9l9.7 0c31.3,0 56.6,25.4 56.6,56.7l0 481.4c0,31.3 -25.3,56.6 -56.6,56.6l-9.7 0c-31.3,0 -56.6,-25.3 -56.6,-56.6l0 -481.4c0,-31.3 25.3,-56.7 56.6,-56.7z"/>
   <path class="fil3" d="M9045.2 13050.9l25.2 0c31.3,0 56.7,25.4 56.7,56.6l-0.1 921.8c0.1,31.3 -25.3,56.6 -56.6,56.6l-25.2 0c-31.3,0 -56.7,-25.3 -56.7,-56.6l0 -921.8c0,-31.2 25.4,-56.6 56.7,-56.6z"/>
   <path class="fil3" d="M9047.4 14448.1l18.5 0c31.3,0 56.7,25.3 56.7,56.6l0 930.7c0,31.2 -25.4,56.6 -56.6,56.6l-18.6 0c-31.3,0 -56.6,-25.4 -56.6,-56.6l-0.1 -930.7c0.1,-31.3 25.4,-56.6 56.7,-56.6z"/>
   <path class="fil3" d="M10027 9996.8l5403.2 0c532.6,0 964.5,431.9 964.5,964.5l0 12972.7c0,532.6 -431.9,964.5 -964.5,964.5l-5403.2 0c-532.6,0 -964.5,-431.9 -964.5,-964.5l0 -12972.7c0,-532.6 431.9,-964.5 964.5,-964.5z"/>
   <path class="fil1" d="M15360.4 10383.9l-841 0 0 101.2c0,0 0,0 0,0 0,264.7 -214.7,479.4 -479.5,479.4 0,0 -0.1,0 -0.2,0l-2674.9 0c-0.1,0 -0.2,0 -0.2,0 -264.8,0 -479.4,-214.7 -479.4,-479.4 0,0 0,0 0,0l-0.1 -101.2 -787.3 0c-321.6,0 -582.4,260.8 -582.4,582.4l0 12961.7c0,321.6 260.8,582.3 582.4,582.3l5262.6 0.1c321.6,-0.1 582.4,-260.8 582.4,-582.4l0 -12960.8c0,-0.2 0,-0.7 0,-0.9 0,-321.6 -260.8,-582.4 -582.4,-582.4 0,0 0,0 0,0z"/>
   <path class="fil4" d="M12117.1 10441.8l832.4 0c52.9,0 95.7,42.9 95.7,95.7l0 16.4c0,52.8 -42.8,95.7 -95.7,95.7l-832.4 0c-52.9,0 -95.7,-42.9 -95.7,-95.7l0 -16.4c0,-52.8 42.8,-95.7 95.7,-95.7z"/>
   <circle class="fil4" cx="13318.1" cy="10545.7" r="118"/>
   <path class="fil1" d="M18933.3 9343.2c0,0 -2082.9,-125.7 -1837.5,1333.9 0,0 -49.5,258 185,375 0,0 3.7,-108.1 213.8,-71.2 52.6,8.7 106.3,13.1 159.8,13.1 22.1,0 44.4,-0.8 66.5,-2.3 101.9,-6.7 199.2,-46.4 276.6,-113l0 0c0,0 585.5,-242 813.1,-1198.8 0,0 168.5,-208.8 161.8,-262.5l-351.5 150.2c0,0 120.2,253.5 24.7,464.3 0,0 -11.4,-455.2 -78.9,-445.3 -13.6,2 -182.6,87.8 -182.6,87.8 0,0 206.6,441.6 50.7,762.7 0,0 59.2,-544.2 -115.2,-730.7l-247.4 144.4c0,0 241.4,456.2 77.7,828.5 0,0 42,-571 -129.9,-793.3l-224.1 174.9c0,0 226.8,449.4 88.5,758.2 0,0 -18,-664.5 -137,-714.7 0,0 -196.2,173.2 -226.1,243.9 0,0 155.3,326.5 58.9,498.7 0,0 -59.2,-442.8 -107.7,-445.3 0,0 -195.4,293.4 -215.7,494.8 0,0 8.4,-299.1 168.5,-522.5 0,0 -189,32.4 -299.3,154.9 0,0 30.4,-207.3 347.5,-225.6 0,0 161.6,-222.7 204.6,-236 0,0 -315.2,-26.5 -506.4,58.4 0,0 168.3,-195.7 564.3,-106.7l221.4 -180.8c0,0 -415.1,-56.6 -591.2,6 0,0 202.6,-173.2 650.8,-47.1l241 -143.9c0,0 -354,-76.2 -564.8,-49.5 0,0 222.6,-120 635.5,10.1l173.2 -77.4c0,0 -259.3,-50.9 -335.2,-59.1 -76,-8.2 -79.9,-29 -79.9,-29 48.7,-8 98.4,-12.2 147.9,-12.2 116.2,0 231.6,22.6 339.2,66.4 107.6,43.8 365.6,-136.3 359.4,-159.3z"/>
   <path class="fil1" d="M16796.7 8694.1c0,0 -940,-56.7 -830.2,602.9 0,0 -22,116.5 83.6,169.4 0,0 1.8,-49.5 96.8,-32.4 23.7,4 47.8,6 71.8,6 10.1,0 20.3,-0.4 30.3,-1 46.1,-3.1 90.1,-21.2 124.9,-51.5l0 0c0,0 264.7,-109.4 367.6,-541.8 0,0 76,-94.2 73,-118.5l-158.8 67.8c0,0 54.2,114.6 11.6,209.8 0,0 -5.2,-205.6 -35.6,-200.9 -6.2,0 -82.6,39.9 -82.6,39.9 0,0 93.5,199.6 23,344.6 0,0 26.7,-245.9 -52.2,-330.3l-111.8 66.3c0,0 109.1,206.1 35.1,374.3 0,0 19.1,-258 -58.6,-358.5l-101.2 79.2c0,0 102.4,203.1 40.1,342.6 0,0 -8.4,-300.3 -62.1,-323.1 0,0 -88.6,78.2 -102.2,110.4 0,0 70.3,148.4 26.7,225.3 0,0 -26.7,-200.1 -49.4,-201.1 0,0 -88.4,132.6 -97.5,222.7 4.4,-84 30.7,-165.4 76.2,-236.1 -51,9.7 -98,34 -135.3,70 -37.3,36.1 13.8,-93.7 157.1,-101.9 0,0 74.2,-100.7 92.5,-106.8 0,0 -142.5,-11.9 -228.8,26.4 0,0 75.9,-88.3 254.8,-48.2l98.9 -81.6c0,0 -187.8,-24.8 -267.2,2.7 0,0 91.6,-78.2 294.2,-21.3l108.8 -65c0,0 -160,-34.4 -255.3,-22.1 0,0 100.7,-54.1 287.2,4.5l78 -34.9c0,0 -117.3,-23 -151.7,-26.7 -34.4,-3.7 -36.1,-13.1 -36.1,-13.1 21.9,-3.6 44.2,-5.5 66.5,-5.5 52.7,0 105,10.3 153.7,30.2 48.7,20 167.2,-62.3 164.2,-72.7z"/>
   <polygon class="fil5" points="10169,22668.6 15288.5,22668.6 15288.5,11802.9 10169,11802.9 "/>
   <path class="fil6" d="M15131.6 25702c0,0 -120.7,-281 -174.6,-410.7 -30.5,-74.2 -81.9,-86.5 -121.3,-84.8l2.3 -24.7 9.6 -117.1 2 -24.7c93.3,-19.5 173.2,-34.9 173.2,-34.9l-58.2 -3001.2c0,0 -24.7,-31.6 -84.6,-222.6 -29.7,-95.2 -173.1,-212.2 -307.2,-305.5 -21,-14.6 -41.6,-28.5 -61.9,-41.8 48.9,-40.9 100.3,-78.8 153.6,-113.3 76.2,-44.3 101.5,-296.9 101.5,-296.9l-12.6 24.8c12.6,-24.8 0,-669.7 0,-669.7l-44.6 -669.4c0,0 -31.6,-795.8 -279,-1004.3 -247.4,-208.6 -559.8,-281.5 -559.8,-281.5l-173.2 -44.6 0 0 -319.1 -81.9c-8.9,-14.5 -17.5,-29.9 -24.7,-46 -3.2,-6.1 -6.2,-12.6 -9.2,-19 197.8,-140 315.4,-367.4 315.4,-609.8 0,0 0,0 0,0 0,-0.3 0,-0.7 0,-1 0,-39.7 -3.2,-79.5 -9.6,-118.7 0,-7.4 -2.7,-15.1 -4.2,-22.5 26.1,-17.9 51,-38 74.2,-59.7 37.7,-30 68.7,-68 90.5,-111l0 0c3.4,-8.4 6.3,-17.2 8.4,-26 0,-2.5 0,-4.9 1.5,-7.7 1.5,-2.7 2.3,-13.1 3,-19.8 0,-2.4 0,-4.9 0,-7.4 0,-7.2 0,-14.6 0,-21.7 0,-1.8 0,-3.5 0,-5.5 0,-8.1 -1.2,-16.3 -2.5,-24.7 0.1,-0.3 0.1,-0.5 0.1,-0.8 0,-0.2 0,-0.5 -0.1,-0.7l0 0c-4.5,-28.7 -12,-57 -22.2,-84.1 -24.8,-63.8 -56.9,-123.7 -68.6,-191.7 -14.3,-80.4 2.3,-168.3 -36.1,-240.5 -32.2,-55.3 -87.5,-93.3 -150.6,-103.6 -17.9,-2.8 -36.1,-4.2 -54.1,-4.2 -45.2,0 -90.1,8.7 -132,25.4 -28.8,13.7 -59.9,22.1 -91.7,24.8 -23.2,-1.4 -45.9,-6.9 -67.1,-16.4 -73.4,-28.8 -143.2,-66.3 -207.7,-111.5 -46.5,-36.6 -96.4,-69.3 -148.5,-97 -28.7,-15 -60.6,-22.8 -92.9,-22.8 -26.9,0 -53.5,5.4 -78.3,15.9 -91.5,46.5 -108.8,176.1 -193.9,233.3 -58.7,39.5 -135.1,35.6 -205.8,38.1 -70.8,2.4 -151,20 -185.8,81.3 -24.8,42.6 -18.8,93.3 -14.1,143l1.5 16.8c0,6 0,12.2 1.5,18.1 0.5,9.2 0.8,18.5 0.8,27.8 0,54.3 -9.8,108.4 -28.8,159.2 -34.1,90.6 -98.9,179.9 -96.7,272.1l0 0c0.2,14.7 2.1,29.4 5.7,43.6 1.9,7.1 4.2,14.1 6.9,21l0 0c13.5,30.5 29,60.5 45.8,89.3l2.2 3.9c1.7,3.5 3.5,7 5,10.4 1.4,3.5 4.4,9.4 6.1,14.1 1.8,4.7 2,4.7 2.8,6.9 0.7,2.3 3.2,9.2 4.4,13.9 3.5,12.1 5.3,24.6 5.3,37.2 0,2 0,3.9 -0.1,5.9 -2.9,18.6 -4.5,37.7 -4.7,56.6 0.1,19.6 14,36.4 33.1,40.3 10.2,-0.2 20.2,-3.3 28.7,-8.9 22.2,-12.6 43.3,-27.2 63.1,-43.3 0,8 0,15.9 1.5,24.8 17.1,176.9 97,342.2 224.9,465.8 0,7.6 0,15.6 -1.8,24.7 -1.7,9.2 -1.2,17.8 -1.7,27l0 0 -277.1 87.1c0,0 1.5,4.9 4.5,13.3l-29.2 11.7 0 0c-143.7,58.1 -303.8,130.3 -393.3,195.9 -39.6,28.7 -75.7,52.2 -108.1,71.7 -117.7,71.9 -207.9,181.3 -256.3,310.4l-3.7 9.4c-24.8,56.7 -146,442.1 -146,442.1 0,0 -88.8,214.7 -101.7,353.7 0,0 -145.9,460.9 -107.8,764.2 0,0 -114.3,435.9 -69.8,505.1 0,0 -45.5,187.5 154.4,376.3 -14.6,8.9 -30.4,18.5 -47,29.2 -154.9,97.5 -378.3,255.5 -416.3,377.5 -59.2,189.7 -84.6,222.6 -84.6,222.6l-59.9 2996.5c0,0 79.9,15.4 173.1,34.7l2 24.7 9.7 116.8 2.2 24.7c-39.3,-1.7 -90.8,11.9 -121.2,85.1 -54.2,129.4 -173.2,410.2 -173.2,410.2 0,0 -266.4,247.3 -104.9,476.9 7.2,10.5 15.5,20.1 24.8,28.7 116,105.4 363.4,37.8 539.3,-30.9 89.3,-38.1 166.5,-100.4 222.6,-179.7 14.3,-18.7 35.9,-30.6 59.4,-32.8 40.3,-6.5 78.4,-23.1 110.5,-48.3 38.3,-27.9 60.9,-72.5 60.9,-119.8 0,-1.3 0,-2.6 0,-3.9 -0.1,-0.6 -0.1,-1.2 -0.1,-1.8 0,-0.6 0,-1.3 0.1,-1.9l-15.6 -352c0,0 -19,-245.9 -79.7,-230l-15.5 3.7 -4.2 -24.8 0 0 -8.2 -47.7 -4.2 -24.7 33.6 0c0,0 8.4,-278.1 110.1,-496.8 101.7,-218.6 168.5,-1985.2 168.5,-1985.2 0,0 1258.4,20.6 1300.4,-97.4l0 0c24.8,0 51.7,0 77.5,-1.8 42.3,118 1229.9,123.7 1229.9,123.7 0,0 67.5,1768.5 169,1987.4 21.4,46.9 39.2,95.5 53.2,145l0 0c31.7,114.4 51.1,232.7 57,351.4l33.7 0 -4.5 24.8 -8.1 47.5 -4.2 24.7 -16.1 -3.7c-60.1,-15.6 -79.2,230.3 -79.2,230.3l-16.1 354.2c0,2.6 -0.1,5.1 -0.1,7.7 0,45.9 22,89.1 59.1,116.1 32.7,25.7 71.5,42.7 112.5,49.5 23.6,1.9 45.2,13.8 59.4,32.6 56.2,79.3 133.4,141.4 222.7,179.6 189.9,74.3 463.1,146.7 564.5,2.5 162.7,-230 -103.7,-476.4 -103.7,-476.4zm-3198.6 -4411.7l0 0 3 0 -3 0zm1987.7 -1011.3c0,0 31.9,120 88.8,183 56.9,63.1 28.7,455 28.7,455 -22.3,1.4 -44.6,5 -66.3,10.6 -43.8,-260.5 -84.1,-549.7 -51.2,-648.6z"/>
   <polygon class="fil7" points="11184.5,25216.9 10687,25266.4 10673.1,25099.9 10663.5,24985.3 10649.9,24817.9 11119.9,24842.6 11157.3,25057.6 11165.2,25104.3 11165.4,25104.3 "/>
   <polygon class="fil7" points="14807.3,24842.8 14793.7,25010.1 14784.3,25124.6 14770.2,25291.1 14272.5,25241.6 14292.3,25129.1 14299.9,25082.6 14337.3,24867.6 "/>
   <path class="fil8" d="M14280.2 22433.6l-1479.4 69.6c-67.3,3.2 -134.5,3.2 -201.8,0l-1413.3 -69.3 0 -1119.6 3094.5 0 0 1119.3z"/>
   <path class="fil5" d="M14280.2 22433.6l-1479.4 69.6c-67.3,3.2 -134.5,3.2 -201.8,0l-1413.3 -69.3 0 -1119.6 3094.5 0 0 1119.3z"/>
   <path class="fil9" d="M12385.7 18297.7c0,0 -492.7,165.6 -678.3,301.6 -38.6,28.2 -74.2,51.5 -105.3,70.5 -114.6,70.6 -202.3,177.7 -249.1,303.8 -1.3,3.4 -2.5,6.4 -3.8,9.1 -24.7,55.7 -142.2,432.9 -142.2,432.9 0,0 -86.6,210.3 -98.9,346.4 -12.4,136 705,500.9 705,500.9 0,0 -346.4,754.5 -191.7,946.2 154.6,191.7 2411.9,284.5 2362.4,0 -49.5,-284.5 -136,-754.5 -92.8,-884.4l766.9 -556.6c0,0 -30.9,-779.2 -272.1,-983.3 -241.2,-204.1 -544.2,-278.3 -544.2,-278.3l-480.2 -123.7c0,0 -169.2,420.6 -354.7,476.2 -185.6,55.7 -592,-201.3 -621,-561.3z"/>
   <path class="fil5" d="M13077.9 19006c0,0 -209.3,174.6 -319.1,0 0,0 -99,295.4 0,394.3l-3.7 20.1 -17.6 88 -229.1 1904.8 188.5 325.3 343.1 -430.4 -27.7 -1781.1 -12.3 -102.2 -3 -24.7 58.6 0c0,0 155.6,-268.9 22.3,-394.1z"/>
   <path class="fil5" d="M13127.4 19006c0,0 -209.3,174.6 -319.1,0 0,0 -99,295.4 0,394.3l-3.8 20.1 -17.5 88 -229.1 1904.8 188.5 325.3 343.1 -430.4 -27.7 -1781.1 -12.3 -102.2 -3 -24.7 58.6 0c0,0 155.6,-268.9 22.3,-394.1z"/>
   <polygon class="fil10" points="13064.8,21283.6 12721.7,21713.3 12532.7,21389.7 12762,19483.9 12779.6,19395.9 12783.5,19375.6 12814.4,19295.4 13021.7,19375.6 13024.7,19400.3 13037.1,19502.5 "/>
   <path class="fil5" d="M11157.3 25057.3c-106.7,-0.6 -213.5,-11.7 -318,-32.4 -51.7,-12.8 -116.5,-27.2 -175.6,-39.8l-13.9 -167.5 470.1 24.8 37.4 214.9z"/>
   <path class="fil8" d="M12725.4 22505.4c-41.1,115.5 -1267.6,95.2 -1267.6,95.2 0,0 -65.8,1731.6 -164.7,1946.1 -99,214.5 -107.4,486.4 -107.4,486.4 0,0 -214.2,0 -346.3,-32.9 -132.1,-32.9 -346.4,-74.3 -346.4,-74.3l57.9 -2937.6c0,0 24.8,-30.9 82.4,-216.7 37.1,-119.4 254.8,-274.3 405.5,-371 84.1,-53 146.9,-87.6 146.9,-87.6l731.7 29.7 451.8 18.3c0,0 397.5,1028.9 356.2,1144.4z"/>
   <path class="fil5" d="M11184.7 25216.6l-497.7 49.5 -14.1 -166.5c18.6,0.5 37,4.5 54.2,11.9 90.8,65.3 350.3,13.3 438.1,-7.5l0 0.1 19.5 112.5z"/>
   <path class="fil10" d="M11278.7 25697.8c0,1.1 0.1,2.4 0.1,3.6 0,46.4 -22.2,90 -59.7,117.3 -31.3,24.6 -68.4,40.9 -107.6,47.3 -22.9,1.9 -43.9,13.7 -57.6,32.1 -55,77.6 -130.4,138.5 -217.7,175.9 -171.5,67.3 -412.7,133.4 -525.7,30.2 -9.3,-8.3 -17.6,-17.7 -24.7,-28 -157.6,-225.6 102.1,-467 102.1,-467 0,0 117.3,-275.1 170,-401.7 17.2,-49.8 64.1,-83.3 116.9,-83.3 18.3,0 36.5,4.1 53,12 99,71.3 399,3 457.7,-12.1 58.6,-15.1 77.4,225.4 77.4,225.4l15.8 344.6c0,0.6 -0.1,1.2 -0.1,1.8 0,0.6 0.1,1.2 0.1,1.9l0 0z"/>
   <path class="fil5" d="M14807.6 24842.6l-13.9 167.2c-59.1,12.6 -123.7,27 -175.9,39.8 -104.3,20.8 -211,32.1 -317.6,32.7l37.4 -214.9 470 -24.8z"/>
   <path class="fil8" d="M14964.6 24950.7c0,0 -214.2,41.3 -346.3,74.2 -132.1,32.9 -346.3,32.9 -346.3,32.9 0,0 -8.2,-272.1 -107.1,-486.3 -99,-214.3 -165,-1946.1 -165,-1946.1 0,0 -1157.3,-6.7 -1198.6,-122.2 -41.3,-115.6 504.4,-1113.2 504.4,-1113.2l332.7 -17.4 633.6 -33.6c0,0 123.7,67.3 253.3,158.1 129.6,90.8 270.4,206 299.3,299.3 57.7,185.8 82.4,216.7 82.4,216.7l57.6 2937.6z"/>
   <path class="fil5" d="M14784.3 25124.4l-13.9 166.4 -497.9 -49.4 19.8 -112.6c87.8,21 346.3,72.7 437.8,7.4 17.2,-7.3 35.6,-11.4 54.2,-11.9l0 0.1z"/>
   <path class="fil10" d="M14730.1 25161c16.6,-8 34.9,-12.1 53.3,-12.1 52.7,0 99.7,33.4 116.9,83.3 52.5,126.6 170,402 170,402 0,0 259.7,241.2 102.1,466.8 -98.9,141.5 -365.1,70.5 -550.1,-2.3 -87.5,-37.2 -162.9,-98.2 -217.7,-175.8 -13.8,-18.5 -34.9,-30.3 -57.9,-32.2 -40.2,-7 -78,-24 -109.8,-49.4 -36.1,-26.7 -57.4,-68.9 -57.4,-113.8 0,-2.3 0.1,-4.7 0.2,-7l15.6 -346.3c0,0 18.5,-240.7 77.2,-225.6 58.6,15.1 358.7,83.6 457.6,12.4z"/>
   <path class="fil11" d="M13451.4 18506.5l-499.4 529.4 -13.9 14.9 -18 -10.7c-104.4,-61.8 -626.6,-377 -581.9,-471.7 24.8,-53.9 39.4,-166.3 47,-263 0,-11.6 1.5,-23 2.5,-34.1 5,-76.5 6.2,-135.8 6.2,-135.8 0,0 940,-160.8 902.9,0 -15.1,65 7.5,138.3 39.4,202.3 9.4,18.6 19.8,36.1 29.9,52.7 24.9,41 53.7,80.1 85.4,116l-0.1 0z"/>
   <path class="fil5" d="M13336.2 18337.8c-126.1,92.8 -278.7,143 -435.2,143 -191.9,0 -376.2,-75.3 -513.2,-209.5 4.9,-76.5 6.1,-135.8 6.1,-135.8 0,0 940.1,-160.8 903,0 -14.4,65.5 7.4,138.3 39.3,202.3z"/>
   <path class="fil11" d="M13634.7 17722.1c0,3.3 0.1,7 0.1,10.5 0,405.2 -328.7,733.9 -733.9,733.9 -382.4,0 -700.8,-293.6 -731.6,-674.6 -2,-23.1 -3,-46.4 -3,-69.8 0,-4.4 -0.1,-9 -0.1,-13.5 0,-405.3 328.7,-734 734,-734 405.2,0 733.9,328.7 733.9,734 0,4.5 -0.1,9.1 -0.1,13.5l0.7 0z"/>
   <path class="fil5" d="M13625.6 17604.9c-31.3,25.4 -70.5,39.4 -110.9,39.4 -9.1,0 -18.2,-0.7 -27.1,-2.1 -113.3,-24.7 -152.2,-197.9 -267.9,-209.8 -115.8,-11.9 -192.8,148.4 -310,145.2 -49.5,-1.2 -94,-33.6 -139.5,-56.1 -79.7,-39.4 -210.8,-63.4 -296.9,-33.7 -129.4,44.3 -173.1,164 -255.8,259.3 -14,16.1 -29.6,31.2 -46.2,44.7 -2,-23 -3,-46.3 -3,-69.7 0,-2.2 0,-4.5 0,-6.7 0,-405.3 328.6,-733.9 733.9,-733.9 362.7,0 671,264.9 725.6,623.4l-2.2 0z"/>
   <path class="fil7" d="M12770.2 17497c45.5,22.3 89,54.9 139.5,56.2 117,2.9 193.4,-158.1 309.7,-145.5 116.3,12.6 154.6,184.3 268.4,209.8 76.4,17.3 148.4,-39.9 205.6,-93 36.8,-29.4 67.1,-66.6 88.3,-108.7 24.7,-61.3 11.9,-132.1 -11.2,-194.4 -23,-62.3 -55.4,-122.2 -66.8,-187.8 -13.8,-78.6 2.3,-164.7 -35.1,-235.5 -31.2,-54.1 -85.2,-91.3 -146.9,-101.4 -17.6,-2.7 -35.3,-4.1 -53.1,-4.1 -43.9,0 -87.5,8.4 -128.2,24.6 -28.1,13.6 -58.3,22.1 -89.3,24.8 -22.7,-1.4 -44.9,-6.9 -65.6,-16.1 -71.3,-28.1 -139.6,-64.9 -202.4,-109.1 -45.1,-35.9 -93.4,-67.9 -144.2,-95 -27.8,-14.6 -58.9,-22.3 -90.4,-22.3 -26.2,0 -52.2,5.4 -76.3,15.7 -89.1,45.5 -106.1,173.1 -189,228.3 -57.1,38.6 -131.6,34.6 -200.4,37.3 -68.7,2.8 -148.4,19.3 -181,79.4 -29.2,51.7 -14.6,115.3 -10.9,174.4 0.5,8.8 0.8,17.8 0.8,26.6 0,53.4 -9.7,106.5 -28.3,156.5 -38.3,102.4 -116.3,203.3 -88.6,309.2 18.1,69.5 80.4,127.2 76.7,197.9 -2.8,18.2 -4.5,36.7 -4.6,55.1 0.1,19.2 13.6,35.7 32.3,39.7 10,-0.2 19.6,-3.3 27.7,-9 41.2,-22.9 78.1,-52.9 109.1,-88.3 83.6,-95.4 126.9,-214.9 256.3,-259.2 87.3,-28.9 218.2,-5.7 297.9,33.9z"/>
   <path class="fil11" d="M13621.4 21815.2l-133.6 36.4 -308.5 84.8c-71.3,53.2 -151.8,93.2 -237.2,117.9 -188.8,47.8 -310.7,-56.1 -412.2,-216.9 -40.8,-64.3 -20.3,-115.8 33.2,-156.1 128.6,-97.2 446.7,-128.9 544.2,-116 11,0.9 22.1,1.4 33.1,1.4 53,0 105.6,-10.4 154.7,-30.6 42,-15.3 82.9,-34.6 121.4,-57.3l204.9 336.4z"/>
   <path class="fil5" d="M13621.4 21815.2l-133.6 36.4c-38.4,-115.6 -101.4,-260.5 -191.7,-316.2 42,-15.3 82.9,-34.7 121.4,-57.4l203.9 337.2z"/>
   <path class="fil5" d="M14524.8 21497.1c-55.4,44.7 -102.4,85.6 -102.4,85.6 0,0 -643.2,201.6 -766.9,455.1 0,0 -98.9,-494.7 -309.2,-500.9 0,0 226.3,-88.8 291.7,-164.7l634 -33.2c0,0 123.7,67.3 252.8,158.1z"/>
   <path class="fil9" d="M14515.2 19557.9l142.2 210.3 43.3 655.5c0,0 12.4,630.8 0,655.6l12.4 -24.8c0,0 -24.8,247.4 -99,290.7 -74.2,43.3 -241.2,188 -241.2,188 0,0 -643.2,201.6 -766.8,455.2 0,0 -99,-494.8 -309.3,-501 0,0 315.4,-123.7 309.3,-204.1 0,0 241.1,-216.4 259.7,-272.1 18.5,-55.6 139,-61.8 139,-61.8 0,0 28,-383.4 -27.7,-445.3 -55.6,-61.8 -86.6,-179.3 -86.6,-179.3l624.7 -766.9z"/>
   <path class="fil5" d="M12942.1 22053.7c-188.8,47.7 -310.7,-56.2 -412.1,-217 -40.9,-64.3 -20.3,-115.8 33.1,-156.1l19.3 7.7c0,0 340.1,147.4 359.7,365.4z"/>
   <path class="fil11" d="M12863.9 22251.3c-222.6,309.2 -637,-120.7 -667.9,-207.3 -11.1,-31.4 -53.4,-59.4 -102.2,-81.9 -61.8,-26.9 -126.2,-48.3 -191.7,-63.5l368.1 -299.9 70.5 28.2 217 86.9c0,0 528.9,228.3 306.2,537.5z"/>
   <path class="fil5" d="M12340.7 21627c-202.8,96.4 -246.1,235.2 -247.4,335.1 -61.8,-26.9 -126.2,-48.3 -191.7,-63.5l368.1 -299.9 71 28.3z"/>
   <path class="fil5" d="M12016.7 22161.5c0,0 -593.8,-470 -878.2,-674.1 -35.5,-25.3 -68.8,-54 -98.9,-85.5 84.1,-53 146.9,-87.6 146.9,-87.6l731.7 29.7c19.6,33.9 31.2,56.9 31.2,56.9l395.8 259.7c-477,154.6 -328.5,500.9 -328.5,500.9z"/>
   <path class="fil9" d="M11225 19693.9l-117.5 68.1c0,0 -142.2,451.4 -105.1,748.3 0,0 -111.3,426.7 -68,494.7 0,0 -55.7,228.9 228.8,432.9 284.5,204.1 878.2,674.1 878.2,674.1 0,0 -148.4,-346.3 327.8,-500.9l-395.8 -259.7c0,0 -132.9,-263.7 -259.8,-321.6 0,0 -98.9,-99 -37.1,-167 61.8,-68 111.3,-142.2 111.3,-210.3 0,-68 24.8,-389.6 24.8,-389.6l74.2 -346.3 -661.8 -222.7z"/>
   <path class="fil5" d="M13024.7 19400.1l-241.2 0c-1.4,-1.4 -2.8,-2.9 -3.9,-4.5l3.9 -20.3 31 -80.2 207.2 80.2 3 24.8z"/>
   <path class="fil10" d="M13102.6 18981.3c0,0 -209.2,174.6 -319.1,0 0,0 -98.9,295.3 0,394.3l296.9 0c0,0 155.6,-269.2 22.2,-394.3z"/>
   <path class="fil5" d="M13385.6 18407.6l311.7 80.4c0,0 -295.3,766.9 -360.4,766.9l-374 -179.4 422.7 -667.9z"/>
   <path class="fil5" d="M13451.4 18506.5l-499.4 529.4 -13.9 14.9 -18 -10.7 436.6 -665.9 10.6 17.6c24.5,40.5 52.9,79.2 84.1,114.7z"/>
   <path class="fil9" d="M13360.9 18382.8l311.7 80.5c0,0 -295.4,766.8 -360.4,766.8l-374.1 -179.3 422.8 -668z"/>
   <path class="fil5" d="M12361 18322.5l-270.1 85.1c0,0 265.9,804 340.1,847.3l482.4 -179.4 -552.4 -753z"/>
   <path class="fil5" d="M12952 19035.9l-13.9 14.9c0,0 -649.3,-377.3 -599.9,-482.4 24.8,-53.9 39.4,-166.3 47,-263l0 -15.1 566.8 745.6z"/>
   <path class="fil9" d="M12385.7 18297.7l-270.1 85.1c0,0 265.9,804 340.1,847.3l482.4 -179.3 -552.4 -753.1z"/>
   <path class="fil5" d="M11742.3 19611.1c0,0 162.8,28.9 159.8,197.9 -3,168.9 67,-218.5 67,-218.5l-226.8 20.6z"/>
   <path class="fil5" d="M11779.4 20130.6c0,0 -45.3,255.5 0,486.6 45.3,231 41.3,309.2 76.5,321.5 35.1,12.4 -76.5,-808.1 -76.5,-808.1z"/>
   <path class="fil5" d="M13857.4 20105.8c-44.8,5.7 -78.3,43.7 -78.3,88.8 0,9.1 1.4,18.1 4.1,26.7 20.7,103.5 74.2,-115.5 74.2,-115.5z"/>
   <path class="fil5" d="M11029.1 20971.6c0,0 530.1,-45.2 618.5,49.5 88.3,94.8 -618.5,-49.5 -618.5,-49.5z"/>
   <path class="fil5" d="M14104.8 21007.5c0,0 387.6,-47.7 478.4,18.3m-478.4 -18.3l0 0 0 0z"/>
   <path class="fil5" d="M14261.6 21070.6c0,0 230.8,8.2 284.5,37.1m-284.5 -37.1l0 0 0 0z"/>
   <path class="fil5" d="M14306.9 21153.5c0,0 210.2,-8.2 239.2,24.7m-239.2 -24.7l0 0 0 0z"/>
   <path class="fil5" d="M11341.6 22316.1c0,0 180.1,93.8 161.7,189.5 -18.3,95.8 -161.7,-189.5 -161.7,-189.5z"/>
   <path class="fil5" d="M11185.7 22361.7c0,0 274.8,356.4 237.5,473.9 -37.4,117.5 -237.5,-473.9 -237.5,-473.9z"/>
   <path class="fil5" d="M14131.7 22420.8c0,0 -136,112 -132.3,204.6m132.3 -204.6l0 0 0 0z"/>
   <path class="fil5" d="M10990 24629.1c0,0 0,105.1 194.7,259.8m-194.7 -259.8l0 0 0 0z"/>
   <path class="fil5" d="M14426.4 24381.7c0,0 -20.8,218.7 -210.3,332m210.3 -332l0 0 0 0z"/>
   <g>
    <path class="fil5" d="M12090.9 16959.4c0,-17 -3,-34.6 -4.5,-51.9 -1.1,13.8 -1.7,27.7 -1.7,41.5 0,24 1.8,48.1 5.2,71.8 1,-12.6 1.6,-25.4 1.6,-38.1 0,-7.7 -0.3,-15.6 -0.6,-23.3l0 0z"/>
    <path class="fil12" d="M12051.5 17650.6c3.8,-71.7 -58.6,-129.4 -76.6,-197.9 -1,-3.3 -1.6,-6.7 -2,-10.1 -2.5,12.4 -3.8,25.1 -3.8,37.8 0,15.6 1.9,31.3 5.8,46.5 14.6,56.7 58.6,105.2 72.5,160.1 1.2,-12.9 3.6,-24.5 4.1,-36.4z"/>
    <path class="fil5" d="M13781.7 17341.6c-21.3,42.1 -51.5,79.2 -88.3,108.6 -57.7,53.2 -129.2,110.4 -205.6,93 -113.6,-24.7 -152.6,-197.9 -268.4,-209.7 -115.8,-11.9 -192.7,148.4 -309.7,145.2 -49.5,-1.3 -94,-33.7 -139.6,-56.2 -79.6,-39.3 -210.5,-63.3 -296.8,-33.6 -129.4,44.3 -173.2,164 -256.3,259.2 -31,35.4 -67.8,65.4 -108.8,88.6 -8.3,5.5 -18,8.5 -28,8.6 -12.6,-1.7 -23.3,-10.2 -27.7,-22.2l0 1.7c-2.8,18.3 -4.5,36.9 -4.7,55.4 0.3,19.1 13.8,35.4 32.4,39.4 10,-0.2 19.7,-3.2 28,-8.7 41,-23.1 77.8,-53.2 108.8,-88.6 83.6,-95.2 126.9,-214.9 256.3,-259.2 87.3,-29.7 218.2,-5.7 296.9,33.6 45.5,22.5 89,54.9 139.5,56.2 117,2.9 193.4,-158.1 309.7,-145.2 116.3,12.8 154.9,184 268.4,209.8 76.4,17.3 148.4,-39.9 205.6,-93.1 36.8,-29.4 67,-66.5 88.3,-108.6 9.2,-23.9 14,-49.4 14,-75.1 0,-12.4 -1.2,-24.9 -3.4,-37.2 -2.1,13.1 -5.7,25.9 -10.6,38.1l0 0z"/>
   </g>
   <path class="fil5" d="M10388.2 25609.5c0,0 202.1,-62.4 285.9,55.9m-285.9 -55.9l0 0 0 0z"/>
   <path class="fil5" d="M15070.3 25634.2c0,0 -334.7,-19.5 -321.6,71m321.6 -71l0 0 0 0z"/>
   <path class="fil0" d="M22418.8 25338.3c0,-62.1 -298.2,-112.5 -666.2,-112.5 -367.9,0 -666.1,50.4 -666.1,112.5 0,62.2 298.2,112.6 666.1,112.6 368,0 666.2,-50.4 666.2,-112.6z"/>
   <path class="fil0" d="M3294.6 26262c0,-62.1 -298.2,-112.5 -666.1,-112.5 -368,0 -666.2,50.4 -666.2,112.5 0,62.2 298.2,112.6 666.2,112.6 367.9,0 666.1,-50.4 666.1,-112.6z"/>
   <path class="fil0" d="M5871.6 26865.9c0,-62.2 -298.3,-112.6 -666.2,-112.6 -367.9,0 -666.2,50.4 -666.2,112.6 0,62.1 298.3,112.5 666.2,112.5 367.9,0 666.2,-50.4 666.2,-112.5z"/>
   <ellipse class="fil1" cx="20294.4" cy="26544.5" rx="994.7" ry="168.2"/>
   <path class="fil1" d="M20705.8 26269.5c45.3,-37.1 78.4,-87.1 94.7,-143.3 12.4,-56.6 -11.9,-123.7 -66.3,-145.7 -60.9,-23.2 -125.9,19.1 -175.2,61.6 -49.2,42.6 -105.8,91.3 -170.4,82.1 54.3,-49.1 85.4,-119 85.4,-192.2 0,-16.9 -1.7,-33.9 -5,-50.5 -2.9,-18.2 -10.7,-35.3 -22.5,-49.4 -33.6,-36.1 -95,-20.8 -135.3,7.9 -128.7,90.3 -164.5,265.2 -165.3,422.3 -13.1,-56.7 -2,-115.8 -2.4,-173.2 -0.5,-57.4 -16.1,-123.7 -65.4,-154.1 -28.5,-15.3 -60.4,-23.4 -92.8,-23.4 -2,0 -4.1,0.1 -6.1,0.1 -57.9,-2.2 -122.2,3.8 -161.8,46 -49.5,52.5 -36.1,140.6 6.5,198 42.5,57.4 107.6,94.2 167.4,134 47.9,28.5 88.8,67.6 119.5,114.1 3.7,6.5 6.7,13.4 8.9,20.5l361.4 0c81.3,-41.2 157.2,-93.5 224.7,-154.9l0 0.1z"/>
   <path class="fil1" d="M5239.8 24099.7c0,0 136,177.9 -62.6,445.3 -198.7,267.4 -362.4,494.8 -296.9,662.2 0,0 299.9,-498.4 544.3,-505.4 244.4,-6.9 83.6,-302.3 -184.8,-602.1z"/>
   <path class="fil5" d="M5239.8 24099.7c11.8,17.2 21.2,36.1 27.7,55.9 238,279.5 364.9,540.5 136,546.9 -213,6.2 -468.5,387.2 -529.8,483.4 1.9,7.5 4.4,14.6 7.1,22 0,0 299.9,-498.4 544.3,-505.3 244.4,-7 83.1,-303.1 -185.3,-602.9z"/>
   <path class="fil13" d="M5492.3 24326.3c0,62.6 -6.9,113.3 -15.5,113.3 -8.7,0 -15.6,-50.7 -15.6,-113.3 0,-62.6 8.6,-33.1 17.3,-33.1 8.6,0 13.8,-29.5 13.8,33.1z"/>
   <path class="fil13" d="M5579.2 24401c-54.9,29.9 -102.9,48 -106.9,40.3 -3.9,-7.6 36.9,-38 91.8,-68 54.9,-29.9 33.4,-8.1 37.3,0 4,8.2 32.7,-2.2 -22.2,27.7z"/>
   <path class="fil1" d="M4522.1 24099.7c0,0 -136,177.9 62.6,445.3 198.7,267.4 362.4,494.8 296.9,662.2 0,0 -299.6,-498.4 -544.3,-505.4 -244.6,-6.9 -84.1,-302.3 184.8,-602.1z"/>
   <path class="fil5" d="M4522.1 24099.7c-11.8,17.2 -21.3,36.1 -27.9,55.9 -238,279.6 -364.6,540.5 -136.1,547 213.3,6.1 468.8,387.1 530.2,483.3 -2,7.5 -4.6,14.9 -7.5,22 -2.9,7.2 -299.5,-498.4 -544.2,-505.3 -244.6,-7 -83.4,-303.1 185.5,-602.9z"/>
   <path class="fil13" d="M4269.3 24326.3c0,62.6 7.2,113.3 15.8,113.3 8.7,0 15.6,-50.7 15.6,-113.3 0,-62.6 -8.6,-33.1 -17.3,-33.1 -8.6,0 -14.1,-29.5 -14.1,33.1z"/>
   <path class="fil13" d="M4182.7 24401c54.9,29.9 102.7,48 106.9,40.3 4.2,-7.6 -37.1,-38 -92,-68 -55,-29.9 -33.2,-8.1 -37.4,0 -4.2,8.2 -32.4,-2.2 22.5,27.7z"/>
   <path class="fil14" d="M4312.6 25184.7c0,0 380,-11.9 494.8,-93.3 114.7,-81.3 584.5,-179.1 612.7,-48.2 28.2,130.9 571.2,650.4 142.3,653.8 -429,3.5 -997,-66.8 -1111.3,-136.3 -114.3,-69.5 -138.5,-376 -138.5,-376z"/>
   <path class="fil15" d="M5569.8 25651.5c-429,3.5 -997,-66.8 -1111.2,-136.3 -86.9,-53.2 -121.8,-243.4 -133.4,-331l-12.6 0c0,0 24.7,306.3 138.3,376 113.5,69.8 682.2,139.8 1111.2,136.3 123.7,0 166.5,-45 164.3,-110.3 -17.4,40.1 -64.6,64.6 -156.6,65.3z"/>
  </g>
  <path class="fil16 str0" d="M11599 13554.1c100.7,-36.1 383.2,-151.7 515.1,-137.9 119.2,12.5 208.7,249.8 218.7,312.3 -104.2,63.9 -733.3,244.2 -851,276.8 166.8,13.3 734.6,-170 906.7,-98.5 47.4,19.7 47.6,18.5 74.1,54.1 18,24 44.4,48.2 63.2,65.1 46.5,42 109.5,73.6 188.3,83l-19 -25.9c-5.9,-6.1 -12.4,-10.7 -19.9,-17.9 -38.5,-36.9 -69.5,-77 -97,-129.2 -97.3,-184.8 -114.4,-419.7 -238.4,-591.9 -15.4,-21.5 -20.3,-23.5 -33.1,-45.9 33.1,-36.7 284.2,-196 358.1,-188.8 93.4,49.6 79.4,1006.9 139,1082.5 9.9,-197.2 -13.7,-1027.6 -96.2,-1177.9 -77.6,-0.6 -413.9,239.5 -466.9,284.2 0.9,1.7 2.5,2.2 3,4.9 0.5,2.6 2.5,3.8 3.2,4.8 3.7,5.4 5.8,8.3 9.6,13.5 46.2,62.9 79.5,134 109.8,207.3 23.2,56.2 78.5,203.3 83.4,265 -9.8,-18 -22.5,-30.6 -35.4,-56.4 -35.1,-70.5 -53.8,-145.2 -83.6,-218.1 -46.6,-113.7 -88.1,-175 -185.4,-222.8 8.7,-2.7 19.3,-2.4 22.1,-3.3 20.4,-6.2 122.2,-91.4 143.6,-107 54,-39.7 105.6,-76.7 163,-116.3 90.4,-62.4 255.3,-173.9 402.2,-168 142.9,5.6 351.5,43.7 492.1,71.1 115,22.5 223.6,48.4 332,90.2 34,13.2 66.6,32.2 93.7,42.4 -224.1,-83.1 -490.8,-130.3 -756.7,-157.1 -258.2,-26 -267.2,-26.2 -257.6,176.1 6.8,143.6 17.3,287.3 27.7,430.4 10.1,137.1 20.4,285.1 42.7,419.2 12.8,77.6 61,78.7 132.4,93.7 265.2,55.6 595.8,57.3 867.6,41.1 80,-4.7 136.6,-17 209.5,-26.5 8.1,81.8 36.1,127.3 -189.9,178.7 -122.3,27.9 -238.3,30.6 -367.2,25 -173.3,-7.5 -351.4,-22.4 -516.6,-71.1 -58.8,-17.3 -92.4,-35.9 -139.9,-55.3 -3,49.2 -9.2,136.6 20.9,164.3l0.6 -89.6c0.1,-0.5 -18.7,10.9 8.7,-24.1 1.1,1.8 2.2,2.6 2.5,5.8l13.7 115.6c94.8,27.2 200,63.8 310.4,60.7l-281.3 -73.2 -4.4 -90c79.6,9.2 165.7,36.4 243,53 48.3,10.4 81.6,5 101.4,42.1 12.7,23.9 27.3,81.2 52.5,94.7 143,35 457.3,27.9 584.4,-30.7l17.1 -104.4 135.1 -59.2c11.4,113.3 -43,101.4 -115.6,150.6 50.4,-2.7 84.4,-40.4 126.2,-57.1 -24.2,254.8 56.2,300.6 -483.7,329.2 -198.1,10.5 -398.4,6.4 -595.8,-13.2 -54.5,-5.4 -129.2,-21.4 -179,-21.9 -136.4,163.8 739.9,91.7 956.9,74.9 171.2,-13.1 331,-5.1 348.3,-188.5 10.7,-112.6 33.6,-417.9 -10.3,-504.2 -187.5,83.8 -813.2,40.8 -1040.4,6.1 -126.7,-19.4 -136.1,-8.8 -152.4,-127.7 -11.4,-83.9 -20.7,-171.9 -29.4,-257.6 -17.3,-169.1 -36.9,-357 -36,-528.8 110.7,13.1 181.7,107.4 187.4,227.8l-55.4 -0.5c-15.4,-0.1 -28.7,5.3 -39.7,16.1 -10.9,10.9 -16.4,24.2 -16.3,39.6l0.6 230.3 39.3 0.7c49.6,0.8 92.6,-16.6 127.7,-51.7 35,-35 52.5,-77.9 51.7,-127.5 -1.2,-82.3 -8.4,-163.6 -34.2,-219 -25.9,-55.5 -59.7,-89.2 -101.1,-118 -19.7,-13.7 -42.4,-26 -69.2,-36.3l-64.8 -18.6c-16.8,-6.7 -9.5,-2.6 -18.8,-11.5 72,-57.4 235.3,-20.3 336.7,-4.8 202.3,30.9 450,71.4 635,151 58.7,25.3 70.2,41.9 96.1,99.9l40.5 110.4c16.5,36.6 -5.1,19.2 31,25.3 7.8,-13.5 7.9,-21.5 0.9,-49.1l-39.2 -141.2c77.2,23.8 117,115.2 119.1,218.2l-37.5 -0.2c-15.3,-0.1 -28.6,5.4 -39.4,16.2 -10.9,10.9 -16.4,24.1 -16.3,39.5l0.6 196 2.2 0.1c51.8,0.7 96.6,-18.1 132.4,-55.6 35.7,-37.5 52.3,-83.2 49,-134.8 -9.8,-154.2 -54.9,-306.9 -206.1,-345 -70,-17.6 -33.3,-10.8 -78.7,-42.2 -181.1,-125.3 -631.9,-224.1 -872.6,-251.8 -199.9,-23 -256.9,-18.7 -403.6,70.8 -102.7,62.6 -197.4,134.4 -296.7,201.6l-258 183.3c-48.7,37 -117.6,87.1 -178.3,119.3 -43.7,34.2 -218.1,103.7 -264.7,129.3z"/>
  <g id="_2247905966016">
   <path class="fil16 str0" d="M11984.5 14943.5l0 0zm-700.4 -25.7l0 0zm0 0c30,20.1 40,64.7 48.6,98.7 3.1,12.2 10.2,27 11.2,38 -8.8,-0.7 -25.6,-6.6 -35.4,-9.4 -10.6,-3.1 -26.3,-9.6 -37.2,-9.8 3,12.9 17.8,35.1 25.2,45.2l40.4 49.3c10.5,11.8 43.3,37.4 23.2,52 -8.9,6.5 -11.5,7.6 -18.4,17.9 23.5,12.4 39.7,17.9 64.1,34.2 39.9,26.5 78.2,55.4 116.5,84.2l172.7 126.3c39.3,28.6 82.1,52.9 125,75.6l-18 24.7c-24.8,32.5 6.3,-5 139.1,61.4 60.1,30.1 119.1,63.9 185.6,79.2 17.3,4 33.5,5 50.8,8.9 17.4,4 26.4,10.7 44.6,13.2 63.9,8.6 133.9,-10 192.1,0 12.2,2.1 11.1,3.4 15.9,14 5.8,12.8 9.2,32.8 9.2,50.6 59.8,0 120.6,5 179.8,12.4l225.8 30.4c50.6,7 20.9,5.1 89.8,-32.1 14.9,-8.1 26.3,-14.1 42.7,-21.4 48.3,-21.2 243.4,-65.1 307.5,-81.1 98.9,-24.8 200.4,-49.7 294.1,-90.3 73.2,-31.8 144.8,-66.9 211.1,-111.3l77.2 -53.1c120.7,-90.1 163.7,-127.8 271.2,-243.4 3.7,-4 3.6,-4.6 6.6,-8.3 45.9,-56.8 93,-114.3 130.5,-177 32.4,-54.3 66.4,-108.7 91.3,-167.1l30.5 -65.7c58.4,-133.4 103.5,-287.7 117.3,-433.6 10.2,-107.9 0.5,-191 -25.9,-287.6 -4.5,-16.4 -10.2,-31.9 -15,-49.1l-16.6 -47.4c-5.7,-14.2 -8.5,-36.3 -21.4,-44.9 -0.4,20 -6.4,50.8 -6.4,79 0.2,66.1 6.9,196.7 -14.9,245.6 -21.3,47.8 -66.3,78.8 -105.8,109.8 -23.6,18.6 -50.2,37.9 -67.2,63.1 25.3,-2.1 51.7,-17.1 76.9,-19.2 0,65.7 -26.5,67.5 -38.6,125.9 -1.3,6.5 -3.5,12.3 -4.1,19.3 -20.6,-1.7 -56.7,-26.8 -79,-32 0.8,37.3 31.8,64.8 -40.9,119.3l-33.8 25.9c4.8,9.2 9.4,16.8 14.2,26.3 17.1,33.9 16.8,34.2 -9.1,53.6 -9,6.8 -15.8,11.2 -25.2,17.5 -55,37 -92.2,15.1 -121.6,25.8 -4.2,1.5 -9.9,6.2 -12.1,9.2 9.9,2.3 19.7,7.2 29.2,11.4 9.8,4.4 19.9,7.5 28.5,12.1 -11.8,17.6 -31.4,41.1 -46.4,56.1 -18.3,18.1 -35.1,35.8 -56.1,50.7 -16.9,12 -33.2,13.6 -49.1,21.3 -0.6,-23.9 -6.6,-51.1 -8.6,-74.7 -18.2,21 -16.8,62.2 -25.3,87.8 -3.1,9.3 -9,19 -11,27.5 -17.5,-9.3 -33.3,-21 -53.4,-25.6 -14.5,9.7 -31.3,38.4 -43.3,52.7 -7.3,8.7 -16,15.2 -25.4,21.6 -7.6,5.2 -22.6,15.4 -31.6,17.5 0,-30.4 2.1,-54.8 2.1,-83.3 -14.3,0.3 -33.6,14.1 -43,21 -14.2,10.4 -22.8,19.3 -34.4,31.8 -79.9,86.2 6.7,134.6 -23.6,198.5 -4.6,9.6 -5.6,12.4 -12.7,19.4l-35.1 31.1c-11.9,11 -9.4,3.6 -26.3,3.6 -0.7,-8.2 -2.1,-7.9 -6.7,-12.5 -4.7,-4.7 -4.4,-6.1 -12.5,-6.8 -3.2,11.9 -30.7,46.4 -41.5,52.5 -17.3,9.7 -63.6,-3.3 -84.5,-3.3 -16.3,24.2 -32.3,45.8 -56.8,62.8 -24.9,17.2 -51.2,28.3 -85,36.7 -25.7,6.4 -50.7,8.6 -77.5,12.1 -34.4,4.4 -110,7.1 -143.8,7.9 -72.2,1.7 -137,39.7 -209.2,10.7 -43.3,-17.3 -84.2,-37.3 -130.2,-49.2 -16.6,-4.2 -34.3,-6.6 -51.3,-10.6 -7.4,11.1 -13.6,23.5 -17.1,38.5 -27.4,-6.4 -96.8,-46.9 -123.1,-62.6 -48.5,-28.9 -92.2,-60.6 -134.6,-96.1l-48.2 -45.8c-23.3,-24.2 -43.5,-49.8 -56.5,-82.3 -4.8,-12 -7.3,-22.7 -12.1,-34.8 -4.9,-12.1 -9.8,-21.2 -16.2,-30.8l-44.9 0c0,38 -3.3,18.6 12.8,42.7 -59.3,0 -92.6,-31.5 -112.5,-81.7 -17,-42.6 -20.4,-112.6 -81.8,-112.6 0,12.1 -1.5,24.9 2.7,33.6 4.4,8.9 9.7,12.9 12.3,24.1 -29.5,-19.7 -19.5,-30.9 -84,-63.4 -44.3,-22.3 -88.7,-36.5 -117.7,-78.8 -4.6,-6.8 -14.3,-25 -16.1,-32.9 11.5,7.7 22.2,16.4 34.8,22.8 18,9.1 27.5,7.1 52.7,7.1 -2.7,-7.7 -33.7,-23 -40.6,-27.8 -53,-37.6 -97.8,-87.2 -134.1,-141.4l-25.3 -42.9c-44.9,-89.9 -92.3,-204.9 -111.9,-302.3 -6.9,-34 -15,-83.9 -14.8,-124.1 0,-11 0.9,-22.7 -0.6,-33.6 -2.9,-21.1 2.3,-140.5 5.5,-164.4 7.8,-59.8 15.4,-121.4 27.7,-179.4 7.8,-36.9 19,-73 30.6,-108.1 22,-66.5 55,-112.6 64.5,-142.7 7.7,-24.1 -7.8,-4.6 14.7,-49.4l70.4 -136.7c7.9,-15.8 15.1,-32.7 24.2,-46.3 9.5,-14.1 17.9,-26.1 28.4,-39.9 8.6,-11.4 20.7,-31 20.7,-49.7 -7.3,3.8 -13.9,7.6 -22,12.1 -8,4.5 -13.2,9.1 -22.8,11.3 1.6,-19.3 68.3,-131.3 85.5,-134.4 18.1,-3.1 52.5,2.1 72.5,2.1 0.4,-18.9 9.6,-39.2 8.5,-59.7 -0.4,-6.9 -2.8,-24.2 -3.6,-30.6 -1.5,-10.9 -0.6,-22.5 -0.6,-33.6l29.9 -14.9c9.8,-5.3 19.2,-11.8 28.3,-18.7 42.4,-31.7 67.3,-58.7 99.8,-83.9 14.7,-11.4 37.3,-31.5 57.7,-36.2 -12.2,22.9 -19.3,40.2 -19.3,68.3 76.8,-51.4 55.1,-123.1 137.6,-157.1 24.1,-10 47.5,-17.8 69.4,-30.9 91.6,-54.9 164.3,-100.5 269.2,-128.1 53.9,-14.1 109.2,-22.9 165.7,-30.8 113.1,-15.7 260,-8.1 373.4,8.6 44.6,6.6 86.8,13.4 131.4,15.9 9.8,0.6 11.7,2.1 23.5,2.1 11.8,0 14.3,1.9 23.5,2.1 -3.1,-11.6 -23.3,-17.9 -29.9,-27.7 95.6,0 324.8,124.6 419,181 86.1,51.7 103.1,64.1 178.6,120.4 19.3,14.3 36.9,29.8 56.1,44.2l83.5 66c48.5,39.7 216.6,176.2 255.7,196.9 -3.3,-14.5 -17.1,-39.4 -24.7,-52.1 -28.6,-48.3 -58.7,-94 -90.2,-140.4 -10.6,-15.8 -20.4,-29.8 -31.8,-45.1 -11.4,-15.2 -21,-29.5 -32.3,-44.5 -5.8,-7.8 -10.5,-13.9 -16.5,-22l-51.8 -65.6c-19.8,-24.6 -52.1,-56.5 -74.6,-79.2 -39.1,-39.6 -85.1,-71.5 -132.5,-100.3 -49.4,-29.9 -122.3,-38.4 -165.3,-67.4 -48.8,-33 -38.3,-27.3 -97,-56.7 -32.7,-16.3 -70.9,-33.9 -96.3,-59.6 -45.7,-46.2 -88.6,-64.6 -153,-77.6 -60.5,-12.2 -120.5,-11.2 -182.8,-11.6l-180.3 14.1c-30.3,4.2 -172.1,20.3 -210.4,20.1 -12.8,-0.1 -25.8,0.2 -38.6,0.1 -13.6,-0.2 -24.1,-4.1 -36.2,-4.4 0,-11.2 -3.4,-19.8 -4.3,-29.9 48.8,-32.6 151.7,-33.3 213.9,-40.2l40.2 -2.5c10.2,-0.2 11.5,-1.3 19.5,-1.9 11.6,-0.8 11.6,2.6 16.9,-4.5 -21.6,0 -48.2,-8.5 -68.6,-12.6 -21.7,-4.4 -45.1,-13 -68.1,-13l111.4 -10.3c25.2,-4.3 46.1,-9.7 65.9,-23.8 5.9,-4.3 12.7,-9.2 14.9,-17.2 -18,-1.5 -36.2,-6.2 -57.4,-3.9 -206.5,22.7 -447.5,38.9 -634.5,125.7l-20.6 11.3c-20.6,11 -39.4,24 -55.7,40.4 -9.2,9.3 -27.1,21.5 -28.3,35.8l52.5 -11.5c51.3,-12.8 98.4,-34.4 148.5,-50.2 17.5,-5.5 32.9,-9.6 51.8,-14.3 51.2,-12.9 131.8,-15.7 170,9.8 -5.6,8.3 -15.2,10.4 -24.9,15.7 -27.1,14.7 -54.8,26.4 -83.7,38 -38.4,15.4 -80.8,29 -121.8,42.7 -41.3,13.8 -80.7,27.2 -121,43.3 -19.6,7.9 -38.7,15.9 -56.4,24.8l-56.3 27c-36.3,20.3 -69.2,38.9 -103.5,60.9 -66.4,42.6 -128.6,89.4 -187.9,141 -4.1,3.6 -88.7,71.3 -96.5,63.6 -2.9,-6.1 -3,-20.7 -4.8,-29.4 -1.8,-8.6 -6.2,-16.5 -10.2,-24 -10.7,2.9 -23.3,19.2 -26.5,31.1 -4.1,15.2 4.6,34.7 8.1,47.1 4.7,16.7 3.5,33.3 -3.6,47.1 -2.8,5.7 -8.1,13.4 -11.8,18.1 -2.3,2.9 -4.5,5.8 -6.6,8.3 -4.3,5.4 -0.8,4.2 -8.7,6.3 -2.6,-9.8 -30.6,-36.6 -38.7,-46.6 -6.6,-8 -11.9,-15.9 -18.3,-24.5 -6.5,-8.6 -11.4,-17.2 -19.9,-22.8 0,33.6 16.6,69.6 5.7,97.4 -19.3,49.1 -96.2,73.6 -131.6,154.6 -4.7,10.8 -8.3,23.9 -15.4,33.7 -1.5,2.1 -2.7,3.3 -3.9,4.7 -14,-60.5 23.9,-65.7 30.2,-106.5 1.3,-8.4 -0.3,-6.2 -0.3,-17.4 -42.4,1 -48.3,67.8 -55.6,98.1 -2.6,10.9 -11.8,28.3 -12.7,38.6 -11,-8.1 -7.3,-51.3 -27.8,-66.2 -25,18.3 4.8,58.9 -55.7,104.3 -25.6,19.3 -82,32.7 -91.6,68.6 19.9,4.7 37.4,14.5 57.7,19.3 0,73.3 -16.4,65.7 -54.6,73.5 -6.6,1.3 -9.5,2.8 -15.9,3.3 5.7,21.3 32.8,40 29.9,78.9 -0.9,11.4 -5.5,21.5 -6.4,32.2 -18.3,-13.4 -6.3,-56.8 -47,-57.7l-14.7 45.1c-5.1,17.7 -8.1,28.4 -15.9,43.9 -22.8,45.2 -24.9,36.6 -24.9,96.8 12.9,6.2 34,8.7 47,14.9 -4.3,18.2 -17.2,33.2 -21.4,51.3 -21.5,0 -96.5,-25.5 -108.9,-34.2 -34.4,-24 19.2,-313.8 19.2,-388.6l-4.2 0c0,17.7 -5.9,32.5 -9.9,50 -9.4,41.5 -45.6,205.4 -62.8,236.1 -4.4,7.9 -52.3,57.8 -59.7,59.8 0,-24.8 -4.3,-45.6 -4.3,-68.3 -9.3,6.8 -30.9,75.7 -33.7,85.9 -29.3,105.2 -38.5,213.1 -32.5,324.1 0.5,9.3 0,20.4 0,29.9 -0.2,35.4 14.2,162 18.9,190.3 24.6,147.5 48.2,164.1 53.7,187.6 7.6,-5.5 7.6,-23.8 9.4,-33.2 1.8,-8.9 4.9,-29.4 7.7,-35.1 7.3,5.4 13.2,24.2 14.5,34.7 3.5,28.1 -24.2,44.6 -31.7,67.7 -2.9,8.9 10.5,23.9 16,31.2 32.6,43.4 67.9,37 110.1,65 18.4,12.2 24.1,76.2 27.7,98.2 9.6,57.5 36.4,210.8 36.4,266.9 15.1,-3.5 34.8,-20.1 49.1,-21.3 4,48.6 51.4,80.6 82.7,111.5 13.4,13.3 17.4,23.5 26.2,40.1 -28.7,-6.7 -40.6,-35.8 -67.1,-46.2 -11,-4.3 -18.6,-5.1 -33.3,-5.1 0,44 19.1,71.4 40.1,103l17 25.7c3,4.5 0.6,1.3 2.7,3.7 -0.6,-28.4 -18.6,-60.7 -19.2,-89.7z"/>
   <path class="fil16 str0" d="M14608.6 13888.8l1.1 -2.8c-0.5,0.7 -0.9,1.5 -1.1,2.8zm-46 42.9l-1.7 -2.7 1.7 0.3 0 2.4z"/>
  </g>
 </g>
</svg>
