<?xml version="1.0" encoding="UTF-8"?>
<!DOCTYPE svg PUBLIC "-//W3C//DTD SVG 1.1//EN" "http://www.w3.org/Graphics/SVG/1.1/DTD/svg11.dtd">
<!-- Creator: CorelDRAW 2019 (64-Bit) -->
<svg xmlns="http://www.w3.org/2000/svg" xml:space="preserve" width="215.9mm" height="279.4mm" version="1.1" style="shape-rendering:geometricPrecision; text-rendering:geometricPrecision; image-rendering:optimizeQuality; fill-rule:evenodd; clip-rule:evenodd"
viewBox="0 0 21590 27940"
 xmlns:xlink="http://www.w3.org/1999/xlink">
 <defs>
  <style type="text/css">
   <![CDATA[
    .fil1 {fill:#3C4493}
    .fil0 {fill:#3E4095}
   ]]>
  </style>
 </defs>
 <g id="Capa_x0020_1">
  <metadata id="CorelCorpID_0Corel-Layer"/>
  <path class="fil0" d="M8564.7 9348.91c196.58,-70.49 747.73,-296.12 1005.15,-269.1 232.7,24.43 407.3,487.44 426.8,609.41 -203.22,124.68 -1430.97,476.59 -1660.73,540.22 325.58,25.93 1433.57,-331.8 1769.35,-192.33 92.5,38.42 92.93,36.12 144.78,105.67 34.96,46.85 86.67,93.99 123.27,127.08 90.67,81.9 213.61,143.56 367.51,161.98l-37.17 -50.64c-11.39,-11.91 -24.27,-20.81 -38.88,-34.84 -75.13,-72.15 -135.58,-150.38 -189.24,-252.23 -189.87,-360.53 -223.28,-819.08 -465.14,-1155.15 -30.16,-41.89 -39.59,-45.81 -64.66,-89.45 64.64,-71.73 554.6,-382.46 698.89,-368.37 182.29,96.67 154.89,1964.76 271.15,2112.3 19.34,-384.74 -26.69,-2005.31 -187.72,-2298.56 -151.43,-1.15 -807.76,467.34 -911.18,554.63 1.78,3.29 5.03,4.32 6.01,9.49 0.95,5.11 4.69,7.41 6.05,9.34 7.31,10.53 11.5,16.25 18.93,26.38 90.02,122.73 155.11,261.59 214.13,404.67 45.24,109.65 153.27,396.57 162.72,516.98 -19,-35.1 -43.92,-59.74 -68.94,-109.93 -68.55,-137.61 -104.98,-283.5 -163.25,-425.65 -90.93,-221.84 -171.84,-341.62 -361.83,-434.81 17.1,-5.3 37.73,-4.73 43.29,-6.42 39.77,-12.16 238.43,-178.34 280.14,-208.93 105.42,-77.34 206.06,-149.54 318.16,-226.92 176.25,-121.68 498.05,-339.23 784.91,-327.86 278.85,11.06 685.83,85.29 960.27,138.91 224.33,43.83 436.2,94.3 647.75,175.96 66.41,25.64 130.13,62.88 183.01,82.73 -437.43,-162.11 -957.84,-254.24 -1476.72,-306.59 -503.82,-50.82 -521.4,-51.17 -502.69,343.65 13.29,280.25 33.7,560.6 54.11,839.87 19.57,267.64 39.81,556.44 83.13,818.06 25.11,151.56 119.13,153.65 258.55,182.9 517.38,108.55 1162.66,111.86 1693.11,80.24 156.03,-9.29 266.54,-33.2 408.69,-51.76 15.83,159.69 70.55,248.35 -370.48,348.82 -238.68,54.37 -465.13,59.64 -716.58,48.71 -338.26,-14.68 -685.88,-43.79 -1008.09,-138.72 -114.89,-33.84 -180.34,-70.15 -273.19,-108.05 -5.84,96.01 -17.76,266.68 40.91,320.7l1.1 -174.75c0.15,-1.1 -36.46,21.15 17.03,-47.16 2.12,3.52 4.23,5.14 4.87,11.31l26.73 225.64c185,53.04 390.28,124.59 605.69,118.52l-548.95 -142.81 -8.58 -175.65c155.3,17.8 323.41,70.99 474.18,103.39 94.33,20.28 159.37,9.71 197.89,82.14 24.78,46.56 53.38,158.43 102.59,184.78 278.91,68.36 892.22,54.49 1140.34,-59.82l33.33 -203.78 263.65 -115.55c22.24,221.01 -83.91,197.85 -225.53,293.91 98.41,-5.24 164.69,-78.91 246.24,-111.51 -47.24,497.26 109.59,586.71 -943.84,642.55 -386.57,20.49 -777.58,12.42 -1162.74,-25.88 -106.43,-10.57 -252.13,-41.82 -349.4,-42.8 -266.03,319.8 1443.89,179 1867.54,146.35 334.06,-25.75 645.82,-10.09 679.64,-367.87 20.78,-219.88 65.58,-815.59 -20.06,-983.92 -366.06,163.51 -1586.97,79.46 -2030.48,11.74 -247.22,-37.77 -265.45,-17.19 -297.22,-249.12 -22.43,-163.67 -40.49,-335.44 -57.54,-502.76 -33.64,-330.01 -71.91,-696.54 -70.14,-1031.94 215.96,25.64 354.53,209.59 365.75,444.7l-108.24 -1.03c-30.05,-0.28 -56.03,10.27 -77.34,31.44 -21.31,21.2 -32.05,47.09 -31.96,77.13l1.23 449.53 76.75 1.25c96.76,1.57 180.58,-32.35 249.05,-100.72 68.47,-68.38 102.48,-152.18 101.02,-248.93 -2.4,-160.49 -16.37,-319.12 -66.78,-427.31 -50.47,-108.32 -116.45,-174.04 -197.29,-230.22 -38.48,-26.76 -82.83,-50.81 -135,-70.99l-126.45 -36.21c-32.77,-13.08 -18.53,-5.08 -36.78,-22.48 140.49,-111.96 459.26,-39.49 657.12,-9.29 394.84,60.29 878.1,139.32 1239.1,294.64 114.57,49.29 137.02,81.7 187.61,194.87l79.01 215.52c32.26,71.48 -9.9,37.41 60.48,49.41 15.23,-26.29 15.44,-42.05 1.81,-95.9l-76.47 -275.48c150.68,46.37 228.21,224.8 232.4,425.7l-73.13 -0.33c-29.97,-0.14 -55.81,10.48 -77.02,31.65 -21.19,21.19 -31.86,47.01 -31.75,76.99l1.27 382.63 4.22 0.07c101.04,1.51 188.58,-35.22 258.28,-108.37 69.7,-73.16 102.15,-162.36 95.73,-263.21 -19.11,-300.83 -107.22,-598.77 -402.32,-673.14 -136.48,-34.38 -64.88,-21.07 -153.55,-82.42 -353.34,-244.52 -1233.01,-437.29 -1702.89,-491.38 -390.03,-44.89 -501.28,-36.52 -787.57,138.18 -200.35,122.25 -385.2,262.22 -578.87,393.5l-503.63 357.62c-95.03,72.12 -229.36,169.97 -347.93,232.92 -85.2,66.71 -425.58,202.25 -516.48,252.26z"/>
  <g id="_2294297131888">
   <path class="fil1" d="M9316.91 12060.19l0 0zm-1366.8 -50l0 0zm0 0c58.51,39.17 78.06,126.14 94.95,192.58 6.02,23.71 19.93,52.53 21.73,74.11 -17.2,-1.43 -49.81,-12.89 -69.08,-18.43 -20.61,-5.92 -51.3,-18.6 -72.6,-19.07 5.87,25.19 34.81,68.44 49.35,88.15l78.82 96.21c20.41,23.09 84.38,73.13 45.27,101.57 -17.41,12.65 -22.5,14.87 -35.93,34.93 45.73,24.2 77.33,34.93 125.06,66.63 77.84,51.7 152.56,108.27 227.36,164.34l336.91 246.48c76.71,55.85 160.19,103.21 244.09,147.61l-35.14 48.22c-48.51,63.36 12.14,-9.88 271.33,119.8 117.35,58.72 232.51,124.74 362.21,154.51 33.73,7.74 65.48,9.72 99.23,17.45 33.8,7.73 51.47,20.79 86.91,25.6 124.77,16.9 261.41,-19.4 374.88,0.16 23.79,4.1 21.75,6.53 31.13,27.2 11.33,24.98 17.91,64.04 17.91,98.77 116.63,0 235.42,9.73 350.81,24.23l440.72 59.33c98.8,13.64 40.84,9.97 175.23,-62.72 29.13,-15.76 51.35,-27.48 83.4,-41.61 94.13,-41.48 474.95,-127.14 600,-158.41 192.91,-48.24 391.07,-96.84 573.89,-176.18 142.96,-62.05 282.54,-130.48 412.06,-217.17l150.52 -103.68c235.66,-175.81 319.45,-249.27 529.31,-474.95 7.28,-7.83 7.05,-8.88 12.96,-16.2 89.57,-110.9 181.41,-222.94 254.59,-345.48 63.18,-105.81 129.55,-212.12 178.17,-326.04l59.43 -128.09c113.98,-260.36 202.01,-561.42 228.92,-846.18 19.92,-210.67 1.12,-372.84 -50.48,-561.32 -8.76,-32.02 -19.99,-62.29 -29.19,-95.82l-32.46 -92.55c-11.05,-27.71 -16.57,-70.71 -41.67,-87.51 -0.87,38.98 -12.63,99.08 -12.51,154.17 0.3,129.03 13.4,383.91 -29.16,479.23 -41.62,93.23 -129.39,153.7 -206.55,214.32 -46.06,36.18 -97.95,73.88 -130.98,123.21 49.39,-4.11 100.73,-33.41 150.01,-37.51 0,128.2 -51.8,131.71 -75.31,245.56 -2.62,12.7 -6.89,24.11 -8.03,37.8 -40.11,-3.33 -110.57,-52.34 -154.18,-62.5 1.62,72.75 62.11,126.34 -79.78,232.76l-66.07 50.6c9.49,17.93 18.49,32.78 27.84,51.33 33.32,66.08 32.68,66.66 -17.71,104.64 -17.58,13.25 -30.89,21.71 -49.27,34.07 -107.41,72.26 -179.83,29.43 -237.26,50.27 -8.18,2.98 -19.36,12.22 -23.63,18.05 19.36,4.51 38.33,13.97 56.91,22.26 19.13,8.53 38.84,14.7 55.6,23.57 -22.94,34.27 -61.27,80.3 -90.57,109.45 -35.64,35.46 -68.5,69.92 -109.4,98.95 -33.06,23.45 -64.67,26.65 -95.89,41.63 -1.04,-46.65 -12.83,-99.75 -16.67,-145.85 -35.61,40.98 -32.72,121.4 -49.45,171.4 -6.04,18.04 -17.54,37.11 -21.39,53.62 -34.09,-18.03 -64.94,-40.86 -104.17,-50 -28.36,18.99 -61.17,75.03 -84.57,102.95 -14.26,17.02 -31.18,29.59 -49.55,42.12 -14.83,10.12 -44.11,30.01 -61.74,34.12 0,-59.35 4.17,-106.93 4.17,-162.52 -27.81,0.61 -65.66,27.56 -83.99,41.01 -27.58,20.24 -44.45,37.72 -67.08,62.11 -155.9,168.13 13.03,262.64 -46.08,387.29 -8.86,18.69 -10.87,24.14 -24.64,37.86l-68.65 60.6c-23.24,21.52 -18.26,7.02 -51.26,7.02 -1.32,-15.85 -4.03,-15.27 -13.13,-24.38 -9.1,-9.1 -8.53,-11.8 -24.37,-13.12 -6.17,23.08 -59.97,90.51 -81.01,102.34 -33.77,18.98 -124.09,-6.5 -164.85,-6.5 -31.74,47.4 -63.05,89.43 -110.8,122.55 -48.63,33.72 -100.04,55.23 -165.84,71.68 -50.29,12.58 -99.1,16.89 -151.38,23.65 -67.11,8.68 -214.61,13.77 -280.49,15.36 -141.05,3.41 -267.46,77.46 -408.31,20.99 -84.54,-33.89 -164.31,-72.85 -254.07,-95.96 -32.36,-8.34 -66.9,-13.03 -100.09,-20.76 -14.44,21.56 -26.53,45.82 -33.33,75.01 -53.48,-12.46 -188.92,-91.49 -240.39,-122.14 -94.54,-56.3 -179.92,-118.12 -262.6,-187.45l-94.03 -89.32c-45.43,-47.2 -85,-97.3 -110.24,-160.63 -9.35,-23.49 -14.21,-44.31 -23.7,-67.97 -9.48,-23.65 -19.11,-41.37 -31.62,-60.06l-87.51 0c0,74.17 -6.5,36.3 25.01,83.35 -115.85,0 -180.69,-61.61 -219.71,-159.51 -33.15,-83.18 -39.78,-219.7 -159.5,-219.7 0,23.6 -3.03,48.63 5.29,65.55 8.52,17.33 18.8,25.15 23.88,46.96 -57.41,-38.45 -37.99,-60.17 -163.9,-123.63 -86.5,-43.6 -173.11,-71.32 -229.57,-153.8 -9.11,-13.31 -27.97,-48.8 -31.57,-64.27 22.41,15.01 43.31,32.15 67.93,44.58 35.18,17.78 53.75,13.76 102.92,13.76 -5.38,-14.86 -65.82,-44.72 -79.17,-54.18 -103.57,-73.42 -190.86,-170.23 -261.71,-275.84l-49.48 -83.86c-87.63,-175.37 -180.1,-399.74 -218.43,-589.99 -13.35,-66.31 -29.21,-163.65 -28.8,-242.06 0.11,-21.57 1.79,-44.4 -1.11,-65.56 -5.65,-41.16 4.49,-274.22 10.61,-320.86 15.29,-116.59 30.06,-236.92 54.04,-350.17 15.24,-71.97 37.27,-142.39 59.91,-210.95 42.84,-129.71 107.17,-219.69 125.87,-278.45 14.93,-46.92 -15.25,-8.85 28.51,-96.39l137.52 -266.69c15.4,-30.81 29.39,-63.77 47.17,-90.34 18.49,-27.64 34.98,-50.88 55.44,-77.9 16.84,-22.24 40.45,-60.5 40.45,-97.06 -14.3,7.57 -27.28,14.94 -42.99,23.67 -15.73,8.74 -25.75,17.79 -44.52,22.16 3.14,-37.73 133.28,-256.36 166.95,-262.27 35.22,-6.18 102.26,3.92 141.42,3.92 0.82,-36.89 18.7,-76.41 16.59,-116.32 -0.72,-13.57 -5.45,-47.33 -7.12,-59.83 -2.84,-21.21 -1.14,-43.94 -1.14,-65.55l58.36 -29.15c19.22,-10.39 37.42,-22.94 55.33,-36.34 82.74,-61.94 131.29,-114.66 194.64,-163.73 28.74,-22.26 72.82,-61.55 112.55,-70.81 -23.68,44.76 -37.51,78.54 -37.51,133.35 149.89,-100.36 107.37,-240.16 268.42,-306.64 47.03,-19.42 92.69,-34.6 135.56,-60.29 178.73,-107.13 320.44,-196.14 525.24,-249.84 105.2,-27.58 213.02,-44.78 323.27,-60.09 220.85,-30.68 507.4,-16 728.68,16.66 87.08,12.85 169.43,26.27 256.43,31.1 19.13,1.06 23.01,3.98 45.96,4.04 23.02,0.06 27.79,3.77 45.84,4.17 -6.06,-22.71 -45.53,-35.04 -58.34,-54.17 186.56,0 633.74,243.14 817.57,353.37 168.08,100.78 201.33,125.03 348.64,234.76 37.58,28 71.9,58.35 109.49,86.36l162.9 128.8c94.64,77.42 422.6,343.85 499.09,384.32 -6.59,-28.29 -33.54,-77.02 -48.23,-101.78 -55.96,-94.33 -114.62,-183.38 -176.01,-274.03 -20.85,-30.81 -39.91,-58.09 -62.14,-87.88 -22.25,-29.81 -40.99,-57.59 -63.06,-86.96 -11.32,-15.08 -20.39,-27.16 -32.15,-42.85l-101.17 -128.02c-38.5,-47.94 -101.65,-110.36 -145.41,-154.62 -76.34,-77.24 -166.07,-139.54 -258.61,-195.6 -96.47,-58.44 -238.74,-75.03 -322.56,-131.65 -95.28,-64.36 -74.79,-53.28 -189.46,-110.57 -63.73,-31.85 -138.34,-66.25 -187.85,-116.35 -89.11,-90.15 -172.85,-126.13 -298.59,-151.46 -118.06,-23.78 -235.11,-21.91 -356.7,-22.61l-351.78 27.43c-59.14,8.21 -335.9,39.72 -410.72,39.33 -25,-0.13 -50.25,0.43 -75.19,0.14 -26.62,-0.31 -47.08,-7.98 -70.68,-8.5 0,-21.97 -6.7,-38.71 -8.33,-58.34 95.09,-63.67 296.01,-65.13 417.32,-78.56l78.56 -4.78c19.83,-0.5 22.31,-2.64 37.95,-3.72 22.68,-1.56 22.72,5.09 32.89,-8.78 -41.98,0 -93.97,-16.73 -133.69,-24.66 -42.44,-8.47 -88.06,-25.35 -133,-25.35l217.34 -20.18c49.3,-8.39 89.99,-18.86 128.6,-46.42 11.6,-8.28 24.93,-17.82 29.09,-33.41 -35.12,-2.92 -70.57,-12.28 -111.9,-7.73 -403.04,44.36 -873.3,76.03 -1238.23,245.26l-40.28 22.21c-40.11,21.33 -76.92,46.76 -108.7,78.83 -17.94,18.1 -52.88,41.81 -55.2,69.8l102.53 -22.47c100.09,-24.87 192.03,-67.08 289.66,-97.88 34.18,-10.79 64.26,-18.73 101.16,-28.02 99.99,-25.17 257.27,-30.66 331.73,19.2 -10.82,16.16 -29.59,20.21 -48.63,30.54 -52.87,28.69 -106.84,51.52 -163.29,74.24 -74.84,30.12 -157.71,56.65 -237.6,83.26 -80.65,26.88 -157.62,53.14 -236.27,84.6 -38.27,15.31 -75.37,31.01 -110.08,48.27l-109.72 52.79c-70.82,39.64 -135.16,75.92 -202.06,118.81 -129.57,83.08 -251,174.39 -366.57,275.16 -8.07,7.04 -173.19,139.23 -188.45,124.08 -5.68,-11.84 -5.9,-40.36 -9.36,-57.31 -3.44,-16.83 -12.11,-32.32 -19.81,-46.86 -20.96,5.59 -45.52,37.44 -51.83,60.78 -8,29.6 9.03,67.62 15.85,91.87 9.13,32.46 6.79,64.87 -6.96,91.92 -5.61,11.04 -15.91,26.03 -23.1,35.24 -4.53,5.79 -8.78,11.26 -12.87,16.31 -8.43,10.41 -1.56,8.13 -16.93,12.24 -5.1,-19.1 -59.75,-71.52 -75.65,-91.03 -12.72,-15.61 -23.2,-31.06 -35.67,-47.67 -12.63,-16.83 -22.24,-33.64 -38.69,-44.66 0,65.7 32.24,135.89 10.96,190.15 -37.58,95.83 -187.6,143.72 -256.75,301.63 -9.25,21.11 -16.27,46.66 -30.05,65.81 -2.96,4.11 -5.21,6.47 -7.52,9.14 -27.48,-117.94 46.48,-128.12 58.92,-207.81 2.56,-16.4 -0.58,-12.12 -0.58,-33.88 -82.74,1.84 -94.32,132.31 -108.57,191.46 -5.1,21.13 -23.12,55.27 -24.78,75.23 -21.4,-15.68 -14.32,-99.98 -54.17,-129.18 -48.83,35.77 9.25,115.06 -108.86,203.68 -49.94,37.46 -159.92,63.65 -178.67,133.85 38.92,9.07 72.97,28.3 112.51,37.51 0,143.15 -31.91,128.26 -106.56,143.46 -12.85,2.62 -18.46,5.51 -30.95,6.55 11.06,41.42 64.03,77.98 58.31,153.87 -1.66,22.24 -10.75,42.08 -12.48,62.82 -35.71,-26.17 -12.2,-110.74 -91.67,-112.51l-28.68 88c-10.06,34.59 -15.74,55.3 -31.04,85.63 -44.45,88.12 -48.63,71.35 -48.63,188.9 25.28,12.13 66.4,17.04 91.68,29.18 -8.24,35.35 -33.43,64.65 -41.67,100.01 -42.08,0 -188.29,-49.72 -212.54,-66.66 -67.17,-46.92 37.52,-612.45 37.52,-758.43l-8.33 0c0,34.55 -11.44,63.43 -19.18,97.5 -18.44,81.16 -88.99,400.89 -122.61,460.78 -8.65,15.41 -102.12,112.93 -116.57,116.79 0,-48.46 -8.34,-89.11 -8.34,-133.35 -18.16,13.31 -60.27,147.74 -65.8,167.56 -57.22,205.34 -75.05,415.93 -63.35,632.5 0.98,18.28 -0.05,39.85 -0.12,58.46 -0.29,69.08 27.82,316.09 37.02,371.36 47.88,287.73 94.08,320.29 104.75,366.11 14.75,-10.79 14.73,-46.53 18.41,-64.93 3.47,-17.37 9.58,-57.26 14.93,-68.42 14.26,10.45 25.88,47.3 28.39,67.79 6.72,54.7 -47.2,86.89 -61.94,132.05 -5.68,17.42 20.43,46.67 31.16,60.92 63.77,84.62 132.54,72.2 214.89,126.81 36.03,23.89 47.06,148.69 54.19,191.66 18.62,112.12 70.85,411.42 70.85,520.88 29.57,-6.89 67.96,-39.35 95.84,-41.67 7.9,94.94 100.35,157.32 161.51,217.69 26.17,25.83 33.88,45.8 51.01,78.18 -55.95,-13.04 -79.14,-69.83 -130.8,-90.06 -21.54,-8.44 -36.4,-9.95 -65.05,-9.95 0,85.88 37.2,139.17 78.34,200.84l33.05 50.3c5.92,8.73 1.14,2.45 5.28,7.21 -1.23,-55.51 -36.24,-118.43 -37.5,-175.01z"/>
   <path class="fil1" d="M14437.86 10002.12l2.07 -5.59c-1,1.34 -1.65,2.97 -2.07,5.59zm-89.85 83.6l-3.29 -5.31 3.29 0.72 0 4.59z"/>
  </g>
  <g id="_2294297128336">
   <path class="fil0" d="M7521.08 13844.14c10.19,-576.27 -222.31,-1058.07 -806.66,-1016.6 -413.91,29.38 -974.64,102.35 -1322.63,-356.08 135.13,2.78 902.83,211.98 1002.75,-44.71 42.57,-442.41 -609.56,-434.99 -841.07,-411.25 -344.31,35.31 -598.74,92.64 -975.41,41.1 -386.26,-52.86 -741.38,-174.92 -1104.01,-373.16 -118.09,-64.56 -856.6,-527.48 -960.28,-679.69 546.5,260.03 980.33,547.72 1572.04,710.14 304.87,83.69 1281.18,214.15 1264.51,-149.17 -20.58,-481.2 -1446.72,-485.98 -1668.13,-510.13 -477.32,-52.07 -1393.11,-322.15 -1653.58,-783.77 368.7,126.5 697.36,345.31 1109.76,466.15 846.86,248.14 1195.57,-36.8 2055.57,254.59 490.7,166.27 939.06,576.21 1049.93,468.22 248.82,-485.03 -445.01,-963.76 -826.94,-1032.62 -325.15,-58.62 -894.67,102.83 -1227.18,147 -812.94,107.97 -2045.24,-638.49 -2809.46,-1106.19 238.82,116.64 2094.41,722.69 2447.1,826.42 223.58,65.74 613.04,172.47 713.38,-50.85 -27.53,-439.47 -1563.05,-545.52 -1868.94,-586 -786.1,-104.04 -854.11,-206.47 -1518.26,-603.07 -215.35,-128.59 -237.87,-148 -366.56,-337.17 883.39,497.89 1367.12,675.35 2324.63,819.82 876.6,132.26 1518.93,23.94 2250.38,321.77 1084.85,441.72 2620.47,2157.13 2237.72,3810.52l-62.59 153.65c-3.48,5.67 -9.85,15.28 -16.07,21.08z"/>
   <path class="fil0" d="M6345.92 8381.33c-38.63,14.33 14.71,4.77 -69.69,17.05 -32.79,4.78 -52.93,4.01 -86.99,5.99 -146.6,8.52 -277.48,32.77 -394.43,122.14 -203.29,155.35 -133.23,472.21 -40.85,631.89 283.23,489.6 1173.51,719.64 1680.2,1932.7 89.91,215.23 313.49,957.63 298,1314.81l-184.45 -510.59c-35.98,-83.99 -47.62,-148.41 -84.47,-239.01 -131.06,-322.23 -494.12,-834.93 -737.6,-1109.99 -1445.37,-1632.78 -2354.61,-970.02 -3957.02,-1288.73 -700.55,-139.33 -1569.61,-510.52 -2146.83,-966.97 1048.24,460.69 1927.47,777.72 3067.49,675.89 251.22,-22.44 422.37,-110.49 645.24,-182.4 594.84,-191.94 942.18,-775.89 2011.4,-402.78z"/>
   <path class="fil0" d="M3383.28 8283.53c-183.48,-248.58 -411.8,-184.77 -656.25,-194.9 114.05,-134.99 355.61,-122.5 510.76,-116.94 399.01,14.28 818.98,219.6 1235.42,249.92 209.86,15.28 366.2,-27.64 550.32,-37.38 -159.69,261.43 -741.08,492.97 -1015.19,573.04 -419.77,122.64 -743.73,111.07 -1226.22,47.9 -781.36,-102.29 -1740.41,-462.5 -2473.69,-872.18l-225.34 -157.21c-61.53,-67.72 -33.68,-38.28 -56.14,-80.61 347.59,205.7 1456.78,673.88 1846.04,782.85 443.97,124.31 1381.65,354.71 1510.29,-194.49z"/>
   <path class="fil0" d="M5843.64 10785.73c187.72,80.66 481.15,316.39 339,518.84 -97.49,78.6 -605.85,-340.31 -917.23,-474.1 -219.53,-94.33 -368.8,-69.04 -574.75,-91.41 27.89,-16.78 13.67,-10.85 56.35,-31.38 8.63,-4.14 50.49,-22.31 55.27,-24.04 266.85,-96.51 776.45,-11.73 1041.36,102.09z"/>
   <path class="fil0" d="M5163.65 11562.15c-216.71,189.76 -896.12,107.27 -1226.22,-44.48 36.87,-15.82 -16.78,-7.58 64.06,-17.44l235.77 4.22c132.75,-3.37 207.94,12.31 289.8,-93.43 -415.6,-172.57 -737.39,-10 -1184.16,-197.67 214.12,-17.77 611.32,11.57 851.13,18.5 409.04,11.84 575.46,141.6 969.62,330.3z"/>
   <path class="fil0" d="M4335.77 10177.83c-78.66,96.94 -138.17,78.45 -330.54,32.53l-1175.97 -344.84c248.21,-65.27 1303.57,82.09 1506.51,312.31z"/>
  </g>
  <g id="_2294165827360">
   <path class="fil0" d="M14209.09 13846.55c-10.23,-578.59 223.11,-1062.32 809.57,-1020.68 415.39,29.5 978.14,102.76 1327.38,-357.51 -135.61,2.79 -906.07,212.83 -1006.35,-44.89 -42.72,-444.18 611.74,-436.73 844.09,-412.9 345.55,35.46 600.9,93.01 978.92,41.27 387.65,-53.07 744.05,-175.62 1107.98,-374.66 118.52,-64.81 859.68,-529.59 963.73,-682.41 -548.46,261.07 -983.85,549.92 -1577.69,712.99 -305.97,84.02 -1285.79,215 -1269.06,-149.77 20.65,-483.13 1451.92,-487.93 1674.13,-512.18 479.03,-52.27 1398.12,-323.44 1659.53,-786.91 -370.03,127.01 -699.87,346.7 -1113.76,468.02 -849.9,249.13 -1199.86,-36.95 -2062.96,255.61 -492.46,166.94 -942.43,578.51 -1053.7,470.1 -249.71,-486.97 446.6,-967.62 829.91,-1036.76 326.32,-58.86 897.89,103.24 1231.6,147.59 815.86,108.4 2052.6,-641.05 2819.56,-1110.63 -239.68,117.11 -2101.94,725.59 -2455.91,829.73 -224.37,66.01 -615.24,173.16 -715.93,-51.05 27.62,-441.23 1568.66,-547.7 1875.66,-588.35 788.92,-104.46 857.18,-207.29 1523.72,-605.48 216.12,-129.11 238.73,-148.6 367.88,-338.52 -886.57,499.88 -1372.05,678.05 -2332.99,823.1 -879.76,132.8 -1524.4,24.03 -2258.48,323.06 -1088.76,443.49 -2629.9,2165.77 -2245.77,3825.79l62.81 154.27c3.49,5.69 9.89,15.34 16.13,21.17z"/>
   <path class="fil0" d="M15388.47 8361.84c38.78,14.39 -14.76,4.78 69.95,17.12 32.91,4.8 53.12,4.02 87.3,6.02 147.13,8.55 278.48,32.89 395.85,122.62 204.02,155.97 133.71,474.1 41,634.43 -284.26,491.56 -1177.74,722.51 -1686.25,1940.44 -90.23,216.09 -314.62,961.47 -299.07,1320.08l185.12 -512.64c36.11,-84.32 47.79,-149.01 84.77,-239.97 131.53,-323.52 495.9,-838.28 740.26,-1114.43 1450.57,-1639.33 2363.07,-973.91 3971.25,-1293.9 703.06,-139.89 1575.25,-512.57 2154.55,-970.85 -1052.01,462.54 -1934.4,780.84 -3078.52,678.6 -252.12,-22.53 -423.9,-110.93 -647.57,-183.13 -596.97,-192.7 -945.57,-779 -2018.64,-404.39z"/>
   <path class="fil0" d="M18361.77 8263.64c184.15,-249.57 413.29,-185.5 658.61,-195.68 -114.45,-135.53 -356.88,-122.98 -512.59,-117.4 -400.45,14.34 -821.93,220.48 -1239.86,250.92 -210.62,15.34 -367.52,-27.76 -552.3,-37.53 160.26,262.48 743.75,494.94 1018.84,575.34 421.28,123.13 746.41,111.51 1230.63,48.09 784.17,-102.71 1746.67,-464.36 2482.58,-875.68l226.16 -157.84c61.75,-67.99 33.8,-38.43 56.34,-80.93 -348.84,206.53 -1462.02,676.58 -1852.68,785.99 -445.56,124.8 -1386.62,356.13 -1515.73,-195.28z"/>
   <path class="fil0" d="M15892.57 10775.87c-188.4,80.98 -482.89,317.66 -340.22,520.93 97.84,78.91 608.02,-341.68 920.52,-476.01 220.32,-94.7 370.13,-69.31 576.83,-91.77 -27.99,-16.85 -13.73,-10.9 -56.56,-31.51 -8.66,-4.16 -50.67,-22.4 -55.47,-24.13 -267.81,-96.91 -779.24,-11.78 -1045.1,102.49z"/>
   <path class="fil0" d="M16575 11555.41c217.49,190.52 899.35,107.7 1230.63,-44.66 -37,-15.89 16.84,-7.61 -64.29,-17.52l-236.62 4.24c-133.22,-3.38 -208.68,12.36 -290.84,-93.8 417.09,-173.27 740.04,-10.04 1188.42,-198.46 -214.89,-17.85 -613.52,11.61 -854.19,18.57 -410.51,11.89 -577.53,142.17 -973.11,331.63z"/>
   <path class="fil0" d="M17405.86 10165.54c78.95,97.33 138.67,78.77 331.73,32.66l1180.2 -346.22c-249.1,-65.53 -1308.26,82.41 -1511.93,313.56z"/>
  </g>
 </g>
</svg>
